<svg xmlns="http://www.w3.org/2000/svg" width="101.262" height="110.064" viewBox="0 0 101.262 110.064">
  <g id="img18" transform="translate(-2832.816 3957.897)">
    <g id="Grupo_131451" data-name="Grupo 131451" transform="translate(2832.816 -3957.897)">
      <path id="Trazado_168255" data-name="Trazado 168255" d="M2837.876-3747.2h4.42c-.259-.448-.527-.873-.758-1.317a8.9,8.9,0,0,1-.967-4.154c0-4.5.008-8.991.008-13.487q0-6.457-.012-12.913c0-2.382-.024-4.764.005-7.145a11.863,11.863,0,0,1,4.811-9.714,11.59,11.59,0,0,1,6.372-2.361,11.537,11.537,0,0,1,5.746,1.04,13.943,13.943,0,0,1,4.49,3.425c1.87,2.068,3.763,4.114,5.646,6.17.473.517.952,1.028,1.41,1.557a.936.936,0,0,0,.785.349c4.2-.012,8.406-.005,12.61-.011a5.942,5.942,0,0,1,2.476.522,1.214,1.214,0,0,0,.478.091c1.134.008,2.268.027,3.4,0a6.123,6.123,0,0,1,6.1,5.175c.066.475.081.958.123,1.471h7.029v-4.206a1.9,1.9,0,0,1-1.8-2.173q0-3.649,0-7.3V-3812.5a1.88,1.88,0,0,1,2.114-2.115c1.464.008,2.933-.037,4.39.07a8.189,8.189,0,0,1,6.171,3.486,8.462,8.462,0,0,1,1.648,5.209q-.015,7.221,0,14.443a8.613,8.613,0,0,1-1.64,5.137.84.84,0,0,0-.169.444c-.009,2.381,0,4.762,0,7.144,0,.05.009.1.019.206h14.54a6.622,6.622,0,0,1,6.675,5.637,6.6,6.6,0,0,1-5.711,7.583,10.431,10.431,0,0,1-1.256.07q-9.3.007-18.609,0h-.446v46.033c.133.006.256.017.379.017l13.293,0q4.087,0,8.172,0a1.8,1.8,0,0,1,1.938,1.427,1.8,1.8,0,0,1-1.719,2.2q-7.986.006-15.973,0h-23.157q-17.043,0-34.085,0-6.248,0-12.5.005a1.816,1.816,0,0,1-1.777-1.344,1.779,1.779,0,0,1,.953-2.08,2.45,2.45,0,0,1,.957-.2c1.006-.023,2.012-.006,3.019-.005h.384v-24.418h-.428c-3.681,0-7.362-.026-11.043.014a1.913,1.913,0,0,1-2.063-1.861c0-.788-.063-1.576-.111-2.364-.071-1.165-.158-2.33-.229-3.495-.084-1.37-.157-2.741-.237-4.113q-.182-3.144-.365-6.288c-.086-1.511-.164-3.024-.25-4.535-.089-1.563-.19-3.125-.274-4.688-.031-.571-.062-1.145-.036-1.714a1.767,1.767,0,0,1,2.557-1.437,1.829,1.829,0,0,1,1.044,1.682c.105,2.008.236,4.014.351,6.021.09,1.563.169,3.126.259,4.689q.167,2.935.341,5.87.135,2.344.269,4.688C2837.721-3749.8,2837.8-3748.521,2837.876-3747.2Zm6.341-22.341q0,8.312,0,16.623a10.312,10.312,0,0,0,.077,1.255,5.327,5.327,0,0,0,4.768,4.434c2.032.065,4.066.031,6.1.033,3.171,0,6.342,0,9.513,0a24.667,24.667,0,0,1,3.128.075,5.685,5.685,0,0,1,4.9,5.615q.025,9.305,0,18.61a3.824,3.824,0,0,0,4.538,3.684,3.775,3.775,0,0,0,3.06-3.8c.008-2.505,0-5.01,0-7.516q0-8.312,0-16.623c0-.368.025-.736.028-1.1.006-.725.021-1.449,0-2.174a7.826,7.826,0,0,0-.129-1.892,3.474,3.474,0,0,0-3.58-2.625q-8.025,0-16.05,0a1.652,1.652,0,0,1-1.562-.841,2.714,2.714,0,0,1-.28-1.234c-.012-4.7.005-9.4.007-14.1,0-2.458-.016-4.915-.013-7.373a.427.427,0,0,0-.245-.416q-2.414-1.5-4.817-3.013a1.792,1.792,0,0,1-.62-2.492,1.817,1.817,0,0,1,2.5-.627c.707.4,1.4.822,2.106,1.233q4.41,2.584,8.823,5.162a1.19,1.19,0,0,0,.57.155q7.852.012,15.7.006a1.756,1.756,0,0,0,1.687-1.243,1.722,1.722,0,0,0-.669-1.985,2.452,2.452,0,0,0-1.471-.442c-4.547,0-9.095,0-13.642.007a1.888,1.888,0,0,1-1.488-.637c-.282-.311-.568-.619-.852-.928-2.478-2.7-4.931-5.427-7.439-8.1a8.213,8.213,0,0,0-7.843-2.729,8.35,8.35,0,0,0-6.814,8.183Q2844.216-3777.95,2844.217-3769.543Zm18.139,10.974c1.017,0,1.994,0,2.972,0,3.948.006,7.9-.036,11.843.033a7.02,7.02,0,0,1,6.785,6.975q.012,10.314,0,20.63c0,2.687.024,5.374-.02,8.059a10.227,10.227,0,0,1-.367,2.241,10.834,10.834,0,0,1-.595,1.48h11.593v-46.008h-32.21Zm-10.837,15.031v24.38h18.557c-.041-.088-.059-.132-.082-.174a7.892,7.892,0,0,1-.939-3.881q.016-9.114,0-18.228a2.083,2.083,0,0,0-2.063-2.11q-7.6-.011-15.208-.006C2851.712-3743.556,2851.636-3743.546,2851.519-3743.538Zm10.846-25.327c.141.006.265.016.389.016h13.6q5.521,0,11.043,0,16.735.012,33.471.024c2.2,0,4.4-.015,6.606-.025a2.764,2.764,0,0,0,.457-.023,3.018,3.018,0,0,0,2.5-2.742,2.946,2.946,0,0,0-2.233-3.1,9,9,0,0,0-1.964-.1q-12.952-.008-25.9,0l-20.173,0q-8.674,0-17.347,0h-.445Zm41.924,49.71v-46.015h-6.074v46.015Zm-.375-67.209c.755,0,1.455.019,2.153,0a4.986,4.986,0,0,0,4.876-5.036q0-7.315,0-14.63a4.865,4.865,0,0,0-1.258-3.269c-1.564-1.8-3.64-1.767-5.769-1.632Zm5.19,3.265-3.34.451v4.145h3.34Zm-17.771,4.6a2.679,2.679,0,0,0-3.3-3.009,5.53,5.53,0,0,1-.162,3.009Z" transform="translate(-2832.816 3825.572)" fill="#1d272b"/>
      <path id="Trazado_168256" data-name="Trazado 168256" d="M2947.277-3946.36a11.569,11.569,0,0,1-11.866,11.5,11.54,11.54,0,0,1-11.186-11.363,11.523,11.523,0,0,1,11.795-11.668A11.566,11.566,0,0,1,2947.277-3946.36Zm-11.518-7.9a7.916,7.916,0,0,0-7.9,7.795,7.91,7.91,0,0,0,7.876,7.973,7.923,7.923,0,0,0,7.887-7.735A7.867,7.867,0,0,0,2935.759-3954.258Z" transform="translate(-2917.238 3957.897)" fill="#1d272b"/>
    </g>
  </g>
</svg>
