<svg xmlns="http://www.w3.org/2000/svg" xmlns:xlink="http://www.w3.org/1999/xlink" width="222.94" height="222.945" viewBox="0 0 222.94 222.945">
  <defs>
    <radialGradient id="radial-gradient" cx="0.076" cy="0.019" r="1.465" gradientTransform="translate(0)" gradientUnits="objectBoundingBox">
      <stop offset="0" stop-color="#f6f6f7"/>
      <stop offset="0.477" stop-color="#f9f9fa"/>
      <stop offset="0.715" stop-color="#fff"/>
    </radialGradient>
  </defs>
  <g id="img1" transform="translate(-701.749 -761.795)">
    <g id="Grupo_91009" data-name="Grupo 91009" transform="translate(701.749 761.795)">
      <g id="Grupo_42274" data-name="Grupo 42274" transform="translate(0 0)">
        <g id="Grupo_18423" data-name="Grupo 18423" transform="translate(0 0)">
          <g id="Grupo_18421" data-name="Grupo 18421">
            <g id="Grupo_18420" data-name="Grupo 18420">
              <g id="Grupo_18419" data-name="Grupo 18419">
                <path id="Trazado_40936" data-name="Trazado 40936" d="M417.562,2257.189a111.47,111.47,0,1,1-111.468-111.468A111.468,111.468,0,0,1,417.562,2257.189Z" transform="translate(-194.623 -2145.721)" fill="#fff"/>
              </g>
            </g>
          </g>
          <path id="Trazado_40937" data-name="Trazado 40937" d="M415.569,2255.017A111.467,111.467,0,1,0,304.1,2366.492,111.031,111.031,0,0,0,415.569,2255.017Z" transform="translate(-192.629 -2143.547)" fill="url(#radial-gradient)"/>
          <path id="Trazado_40938" data-name="Trazado 40938" d="M389.579,2246.181a94.349,94.349,0,1,0-94.349,94.35A94.011,94.011,0,0,0,389.579,2246.181Z" transform="translate(-183.54 -2134.468)" fill="none" stroke="#008f85" stroke-miterlimit="10" stroke-width="5"/>
          <g id="Grupo_18422" data-name="Grupo 18422" transform="translate(19.748 62.583)">
            <path id="Trazado_40939" data-name="Trazado 40939" d="M392.465,2164.488A111.483,111.483,0,0,1,200.545,2275.5a111.8,111.8,0,0,0,11.094,14.849,111.485,111.485,0,0,0,180.826-125.859Z" transform="translate(-200.545 -2164.488)" fill="#eceef0"/>
          </g>
        </g>
      </g>
    </g>
    <g id="BuBIup" transform="translate(629.619 633.086)">
      <g id="Grupo_130124" data-name="Grupo 130124" transform="translate(121.963 186.16)">
        <path id="Trazado_167055" data-name="Trazado 167055" d="M254.867,312.15,221.6,187.5c22.3,12.023,44.509,12.032,66.854,0L255.192,312.14Zm9.5-48.613c.236-.543.307-.662.341-.791q5.476-20.534,10.915-41.077a1.83,1.83,0,0,0-.4-1.482c-3.839-3.9-7.727-7.746-11.61-11.6a5.984,5.984,0,0,0-.832-.573l-1.975,11.28H249.243l-1.972-11.315a2.472,2.472,0,0,0-.5.263c-4.019,3.994-8.05,7.977-12.015,12.023a2.056,2.056,0,0,0-.258,1.665c1.961,7.541,3.972,15.068,5.978,22.6q2.477,9.3,4.968,18.591l.285-.008c1.176-13.673,2.351-27.347,3.52-40.938h11.568c.286,3.467.562,6.8.853,10.324H255.6c.03.625.052,1.072.077,1.6h6.144C262.663,243.825,263.5,253.474,264.365,263.537Zm-14.55-63.758a68.311,68.311,0,0,1-22.769-5.592l6.027,22.572Zm10.43.006,16.734,17,6.032-22.6A68.142,68.142,0,0,1,260.244,199.785Z" transform="translate(-192.391 -187.106)" fill="#1d272b"/>
        <path id="Trazado_167056" data-name="Trazado 167056" d="M126.9,224.867,160.47,292.9a27.075,27.075,0,0,1-3.5-.051c-.381-.052-.787-.64-1-1.073q-8.174-16.517-16.3-33.055-8.536-17.315-17.079-34.626c-.128-.259-.238-.527-.4-.886l9.994-4.8-10.216-3.972,16.323-28.271c.55,1.02.943,1.889,1.463,2.673a1.6,1.6,0,0,1-.03,1.962c-3.962,6.779-7.877,13.586-11.8,20.386-.242.419-.468.848-.795,1.444l13.987,5.436Z" transform="translate(-121.963 -186.16)" fill="#1d272b"/>
        <path id="Trazado_167057" data-name="Trazado 167057" d="M417.908,292.915l33.577-68.038-14.212-6.8,14.014-5.443c-2.527-4.386-4.978-8.643-7.433-12.9-1.682-2.916-3.32-5.859-5.081-8.726a1.943,1.943,0,0,1,.027-2.483,22.071,22.071,0,0,0,1.289-2.35l16.333,28.249-10.2,3.993,10.017,4.818c-3.15,6.378-6.256,12.665-9.359,18.954q-12.037,24.394-24.03,48.81c-.732,1.5-1.534,2.205-3.172,1.931A12.614,12.614,0,0,0,417.908,292.915Z" transform="translate(-331.149 -186.169)" fill="#1d272b"/>
        <path id="Trazado_167059" data-name="Trazado 167059" d="M262.942,215.906,246.2,232.886l-6.027-22.572A68.311,68.311,0,0,0,262.942,215.906Z" transform="translate(-205.519 -203.233)" fill="#008f85"/>
        <path id="Trazado_167060" data-name="Trazado 167060" d="M353.415,215.9a68.142,68.142,0,0,0,22.766-5.6l-6.032,22.6Z" transform="translate(-285.562 -203.217)" fill="#008f85"/>
      </g>
    </g>
  </g>
</svg>
