<svg xmlns="http://www.w3.org/2000/svg" xmlns:xlink="http://www.w3.org/1999/xlink" width="222.94" height="222.945" viewBox="0 0 222.94 222.945">
  <defs>
    <radialGradient id="radial-gradient" cx="0.076" cy="0.019" r="1.465" gradientTransform="translate(0)" gradientUnits="objectBoundingBox">
      <stop offset="0" stop-color="#f6f6f7"/>
      <stop offset="0.477" stop-color="#f9f9fa"/>
      <stop offset="0.715" stop-color="#fff"/>
    </radialGradient>
  </defs>
  <g id="img2" transform="translate(-701.749 -761.795)">
    <g id="Grupo_91009" data-name="Grupo 91009" transform="translate(701.749 761.795)">
      <g id="Grupo_42274" data-name="Grupo 42274" transform="translate(0 0)">
        <g id="Grupo_18423" data-name="Grupo 18423" transform="translate(0 0)">
          <g id="Grupo_18421" data-name="Grupo 18421">
            <g id="Grupo_18420" data-name="Grupo 18420">
              <g id="Grupo_18419" data-name="Grupo 18419">
                <path id="Trazado_40936" data-name="Trazado 40936" d="M417.562,2257.189a111.47,111.47,0,1,1-111.468-111.468A111.468,111.468,0,0,1,417.562,2257.189Z" transform="translate(-194.623 -2145.721)" fill="#fff"/>
              </g>
            </g>
          </g>
          <path id="Trazado_40937" data-name="Trazado 40937" d="M415.569,2255.017A111.467,111.467,0,1,0,304.1,2366.492,111.031,111.031,0,0,0,415.569,2255.017Z" transform="translate(-192.629 -2143.547)" fill="url(#radial-gradient)"/>
          <path id="Trazado_40938" data-name="Trazado 40938" d="M389.579,2246.181a94.349,94.349,0,1,0-94.349,94.35A94.011,94.011,0,0,0,389.579,2246.181Z" transform="translate(-183.54 -2134.468)" fill="none" stroke="#1d272b" stroke-miterlimit="10" stroke-width="5"/>
          <g id="Grupo_18422" data-name="Grupo 18422" transform="translate(19.748 62.583)">
            <path id="Trazado_40939" data-name="Trazado 40939" d="M392.465,2164.488A111.483,111.483,0,0,1,200.545,2275.5a111.8,111.8,0,0,0,11.094,14.849,111.485,111.485,0,0,0,180.826-125.859Z" transform="translate(-200.545 -2164.488)" fill="#eceef0"/>
          </g>
          <g id="XNzkG7" transform="translate(49.585 52.191)">
            <g id="Grupo_121017" data-name="Grupo 121017" transform="translate(0)">
              <path id="Trazado_158635" data-name="Trazado 158635" d="M565.93,83.22l14.881,14.891c-.831.776-1.783,1.629-2.694,2.524q-2.511,2.466-4.981,4.976c-.919.936-1.093,1.987-.3,2.811,2.246,2.318,4.573,4.557,6.938,6.895.286-.839.529-1.608.81-2.362a13.762,13.762,0,0,1,10.782-9.271c3.966-.789,7.954-1.457,11.932-2.182.432-.079.86-.178,1.637-.34-.377-.569-.553-1.11-.924-1.353a20.248,20.248,0,0,1-8.77-12.227,1.676,1.676,0,0,0-.933-1.027,7.541,7.541,0,0,1-5.514-6.814c-.157-2.459-.109-4.934-.067-7.4a99.164,99.164,0,0,1,.371-11.506c1.661-12.347,12.755-21.841,25.27-21.929A26.023,26.023,0,0,1,640.3,60.4a27.118,27.118,0,0,1,.4,4.221q.061,12.016.019,24.032a5.892,5.892,0,0,1-6.394,6.228c-2.353-.1-4.248.215-5.741,2.3-.767,1.073-2.12,1.718-3.158,2.614a4.432,4.432,0,0,0-.7,1.116,3.9,3.9,0,0,0,.985.506c4.094.765,8.205,1.446,12.291,2.256a13.565,13.565,0,0,1,10.786,9.249c1.617,4.565,3.087,9.181,4.681,13.951H610.951l-.154.293,3.009,2.428c-.4.479-.511.636-.647.761-3.3,3.041-6.575,6.12-9.93,9.106a13.836,13.836,0,0,1-18.869-.455q-13.833-13.632-27.464-27.468a13.841,13.841,0,0,1,.234-19.579q4.06-4.093,8.152-8.155C565.506,83.58,565.753,83.379,565.93,83.22Zm32.865,31.89c2.336,2.346,4.633,4.612,6.876,6.93a2.657,2.657,0,0,0,2.11.891q19.352-.044,38.7-.02h1.435c-.985-2.972-1.865-5.782-2.845-8.556a9.85,9.85,0,0,0-7.989-6.788c-3.776-.7-7.577-1.277-11.324-2.1a3.718,3.718,0,0,0-4.1,1.262c-2.173,2.436-4.576,4.665-6.943,7.04-2.713-2.721-5.322-5.37-7.983-7.967a1.962,1.962,0,0,0-1.427-.566c-4.5.759-9.007,1.524-13.479,2.441a9.662,9.662,0,0,0-7.374,6.369,17.249,17.249,0,0,1-.723,2.055c-.99,1.825-.573,3.21,1.075,4.4a15.776,15.776,0,0,1,1.812,1.786c1.626,1.632,2.408,1.656,4.087.137C593.37,120.011,596.035,117.6,598.795,115.11Zm-4.024-46.2c8.131.447,14.675-2.688,19.94-8.945,5.273,6.268,11.824,9.391,20.044,8.941-.288,1.646.024,2.8,1.94,2.879,0-2.368.073-4.742-.013-7.11-.322-8.91-4.415-15.595-12.406-19.485-8.054-3.921-15.93-3-23.055,2.418-8.088,6.152-9.236,14.853-8.343,24.178C594.595,71.267,594.595,71.267,594.77,68.908ZM614.79,90.891h1.462c3.76,0,7.521.019,11.281-.023.444-.005,1.131-.228,1.281-.548a11.743,11.743,0,0,0,1.445-3.949c.273-4.423.275-8.862.375-13.295,0-.064-.087-.13-.162-.232a26.225,26.225,0,0,1-15.7-7.027c-7.1,5.183-7.1,5.183-15.877,7.121,0,4-.006,7.992.008,11.982a6.8,6.8,0,0,0,.182,1.438,15.957,15.957,0,0,0,21.242,11.493,42.041,42.041,0,0,0,4.686-2.495l-.176-.428H614.79Zm-21.778,34.978c-3.684,2.534-6.192,2.288-9.406-.931q-6.517-6.528-13.036-13.055a7.786,7.786,0,0,1-1.375-1.68,6.025,6.025,0,0,1,.829-7.225l-9.1-9.078c-5.031,4.262-5.305,10.736-.594,15.447q13.087,13.089,26.173,26.179c4.743,4.75,11.2,4.506,15.578-.571Zm14.67,4.076-9.145-9.2-2.37,2.167,9.148,9.19ZM574.971,97.983l-8.9-8.918L564.14,90.65l8.937,9.092Zm45.589,4.08a20.861,20.861,0,0,1-11.6.033l5.809,5.744Zm12.651-11.3c3.331.633,3.938-1.021,3.248-4.8-.754.388-1.8.579-2.117,1.164A17.656,17.656,0,0,0,633.211,90.764Zm1.577-15.205v6.683a3.935,3.935,0,0,0,0-6.683Zm-40.21,6.662v-6.6C592.132,77.46,592.121,80.329,594.579,82.221Z" transform="translate(-552.954 -18.911)" fill="#00978e"/>
              <path id="Trazado_158636" data-name="Trazado 158636" d="M907.1-3.423c.7-4.159,1.35-8.014,2.024-12.015-1.673,0-3.24,0-4.807,0-4.043-.011-6.525-2.466-6.531-6.478q-.011-7.584,0-15.169a5.979,5.979,0,0,1,6.314-6.329q13.712-.027,27.425,0c3.795.008,6.268,2.536,6.277,6.363q.018,7.645,0,15.29c-.011,3.809-2.532,6.522-6.305,6.259a14.365,14.365,0,0,0-9.571,2.794C917.531-9.69,912.909-7,908.383-4.175,908.049-3.966,907.7-3.776,907.1-3.423Zm5.444-8.087c2.588-1.617,5.1-2.953,7.35-4.648,3.412-2.575,7.069-3.916,11.357-3.267a.722.722,0,0,0,.121,0c1.672-.032,2.4-.708,2.4-2.347q.024-7.647,0-15.294c-.006-1.662-.712-2.352-2.388-2.354q-13.6-.016-27.19,0c-1.672,0-2.364.711-2.368,2.373q-.016,7.586,0,15.173c0,1.747.682,2.434,2.418,2.444,2.751.015,5.5,0,8.253.009.427,0,.852.036,1.375.059C913.423-16.718,913-14.225,912.543-11.51Z" transform="translate(-814.041 43.428)" fill="#00978e"/>
              <path id="Trazado_158637" data-name="Trazado 158637" d="M631.429-16.468l-1.157,3.735c-17.225-4.687-33.072-2.059-47.326,8.755a50.657,50.657,0,0,0-18.434,28.442l5.3-3.125,2.068,3.409-11.729,7.04-7.03-11.72,3.433-2.05,3.678,6.1C566.111,3.4,578.943-10.547,599.569-16.8A54.028,54.028,0,0,1,631.429-16.468Z" transform="translate(-553.083 24.964)" fill="#1d272b"/>
              <path id="Trazado_158638" data-name="Trazado 158638" d="M994.508,117.018l-2.054,3.435-5.737-3.427c5.719,19.416,2.469,36.948-9.639,53.028-.618-.493-1.113-.882-1.6-1.279s-.994-.814-1.516-1.242c11.285-14.962,14.306-31.35,8.617-49.38l-3.387,5.611-3.425-2.057,7.025-11.716Z" transform="translate(-871.722 -72.735)" fill="#1d272b"/>
              <path id="Trazado_158639" data-name="Trazado 158639" d="M880.705,519.3c-.037-.624-.075-1.248-.122-2.036,1.429.628,1.482,1.018.584,2.011Z" transform="translate(-801.021 -381.103)" fill="#00978e"/>
              <path id="Trazado_158640" data-name="Trazado 158640" d="M954.931-10.1v3.8h-23.89v-3.8Z" transform="translate(-839.226 18.195)" fill="#1d272b"/>
              <path id="Trazado_158641" data-name="Trazado 158641" d="M930.942,26.659V22.848h15.889v3.811Z" transform="translate(-839.151 -6.753)" fill="#1d272b"/>
            </g>
          </g>
        </g>
      </g>
    </g>
  </g>
</svg>
