<svg xmlns="http://www.w3.org/2000/svg" width="219.401" height="187.853" viewBox="0 0 219.401 187.853">
  <g id="img23" transform="translate(-638.639 -913.243)">
    <g id="Grupo_131483" data-name="Grupo 131483" transform="matrix(0.995, -0.105, 0.105, 0.995, 638.639, 928.972)">
      <path id="Trazado_168294" data-name="Trazado 168294" d="M115.2,3.52,150.317,139.3a4.7,4.7,0,0,1-3.369,5.72l-105.963,27.4a4.7,4.7,0,0,1-5.72-3.369L.151,33.274a4.695,4.695,0,0,1,3.369-5.72L109.483.151A4.7,4.7,0,0,1,115.2,3.52Z" transform="translate(0 0)" fill="#e5a755"/>
      <path id="Trazado_168295" data-name="Trazado 168295" d="M115.2,3.52l.434,1.678L110.4,21.491,61.888,34.681,13.058,46.666.586,34.955.151,33.274a4.692,4.692,0,0,1,3.369-5.72L109.483.151A4.693,4.693,0,0,1,115.2,3.52Z" transform="translate(0 0)" fill="#d89444"/>
      <path id="Trazado_168296" data-name="Trazado 168296" d="M115.053,8.293l.2.782a4.7,4.7,0,0,1-3.369,5.72L5.923,42.2A4.694,4.694,0,0,1,.2,38.83L0,38.045,3.634,27.392a2.933,2.933,0,0,1,2-1.852L104.055.087a2.952,2.952,0,0,1,2.654.647Z" transform="translate(35.062 130.22)" fill="#d89444"/>
      <path id="Trazado_168297" data-name="Trazado 168297" d="M113.445,11.852a4.685,4.685,0,0,1-3.232,2.935L4.25,42.19a4.685,4.685,0,0,1-4.25-1L2.212,27.453a2.378,2.378,0,0,1,1.752-1.925L102.381.076a2.386,2.386,0,0,1,2.469.833Z" transform="translate(36.735 130.229)" fill="#f9c067"/>
      <path id="Trazado_168298" data-name="Trazado 168298" d="M112.961.89,110.031,21.2a1.434,1.434,0,0,1-1.062,1.188L13.917,46.972a1.438,1.438,0,0,1-1.508-.523L0,30.107a4.685,4.685,0,0,1,3.075-2.553L109.038.151A4.681,4.681,0,0,1,112.961.89Z" transform="translate(0.445 0)" fill="#f9c067"/>
      <path id="Trazado_168299" data-name="Trazado 168299" d="M13.8,45.622a4.46,4.46,0,0,1-4.311-3.338L.143,6.127A4.463,4.463,0,0,1,3.338.7L5.5.142a4.457,4.457,0,0,1,5.425,3.2l9.351,36.156a4.463,4.463,0,0,1-3.2,5.425h0l-2.164.56A4.45,4.45,0,0,1,13.8,45.622ZM6.616,1.272a3.177,3.177,0,0,0-.8.1l-2.164.56A3.191,3.191,0,0,0,1.374,5.809l9.351,36.156A3.184,3.184,0,0,0,14.6,44.248l2.164-.56a3.191,3.191,0,0,0,2.283-3.875L9.7,3.657A3.186,3.186,0,0,0,6.616,1.272Z" transform="translate(53.871 20.35)" fill="#444"/>
      <ellipse id="Elipse_4485" data-name="Elipse 4485" cx="6.217" cy="6.217" rx="6.217" ry="6.217" transform="translate(50.842 25.971) rotate(-45)" fill="#fff"/>
      <ellipse id="Elipse_4486" data-name="Elipse 4486" cx="6.217" cy="6.217" rx="6.217" ry="6.217" transform="translate(62.547 55.058)" fill="#fff"/>
    </g>
    <g id="Grupo_131482" data-name="Grupo 131482" transform="translate(708.156 927.633)">
      <path id="Trazado_168284" data-name="Trazado 168284" d="M1837.229,1398.47l-103.769-29.235a3.827,3.827,0,0,1-2.638-4.708l38.484-136.594a3.828,3.828,0,0,1,4.708-2.638l103.769,29.236a3.827,3.827,0,0,1,2.638,4.708l-38.484,136.594A3.827,3.827,0,0,1,1837.229,1398.47Z" transform="translate(-1730.679 -1225.152)" fill="#1d272b"/>
      <path id="Trazado_168285" data-name="Trazado 168285" d="M2496.354,1571.77l-50.378-14.193a2.831,2.831,0,0,1-1.952-3.483h0a2.831,2.831,0,0,1,3.483-1.951l50.378,14.193a2.831,2.831,0,0,1,1.952,3.483h0A2.831,2.831,0,0,1,2496.354,1571.77Z" transform="translate(-2383.189 -1524.204)" fill="#b3cef6"/>
      <path id="Trazado_168286" data-name="Trazado 168286" d="M2302.887,1717.549l-79.356-22.358a2.831,2.831,0,0,1-1.952-3.483h0a2.831,2.831,0,0,1,3.483-1.952l79.356,22.357a2.831,2.831,0,0,1,1.951,3.483h0A2.831,2.831,0,0,1,2302.887,1717.549Z" transform="translate(-2179.685 -1650.101)" fill="#e4ecf9"/>
      <path id="Trazado_168287" data-name="Trazado 168287" d="M2261.491,1864.482l-79.356-22.358a2.831,2.831,0,0,1-1.952-3.483h0a2.832,2.832,0,0,1,3.483-1.952l79.356,22.358a2.831,2.831,0,0,1,1.951,3.482h0A2.831,2.831,0,0,1,2261.491,1864.482Z" transform="translate(-2141.813 -1784.524)" fill="#e4ecf9"/>
      <path id="Trazado_168288" data-name="Trazado 168288" d="M2220.095,2011.416l-79.356-22.358a2.831,2.831,0,0,1-1.951-3.483h0a2.831,2.831,0,0,1,3.483-1.952l79.356,22.357a2.832,2.832,0,0,1,1.952,3.483h0A2.831,2.831,0,0,1,2220.095,2011.416Z" transform="translate(-2103.942 -1918.947)" fill="#e4ecf9"/>
      <path id="Trazado_168289" data-name="Trazado 168289" d="M2178.7,2158.349l-79.356-22.357a2.831,2.831,0,0,1-1.952-3.483h0a2.831,2.831,0,0,1,3.483-1.951l79.356,22.357a2.831,2.831,0,0,1,1.952,3.483h0A2.831,2.831,0,0,1,2178.7,2158.349Z" transform="translate(-2066.069 -2053.369)" fill="#e4ecf9"/>
      <path id="Trazado_168290" data-name="Trazado 168290" d="M2137.3,2305.283l-79.356-22.358a2.831,2.831,0,0,1-1.952-3.482h0a2.831,2.831,0,0,1,3.483-1.952l79.356,22.357a2.831,2.831,0,0,1,1.952,3.483h0A2.831,2.831,0,0,1,2137.3,2305.283Z" transform="translate(-2028.198 -2187.792)" fill="#e4ecf9"/>
      <path id="Trazado_168291" data-name="Trazado 168291" d="M2095.9,2452.216l-79.356-22.357a2.831,2.831,0,0,1-1.952-3.482h0a2.831,2.831,0,0,1,3.483-1.952l79.356,22.358a2.831,2.831,0,0,1,1.952,3.483h0A2.831,2.831,0,0,1,2095.9,2452.216Z" transform="translate(-1990.326 -2322.214)" fill="#b3cef6"/>
      <path id="Trazado_168292" data-name="Trazado 168292" d="M2054.507,2599.15l-79.356-22.357a2.831,2.831,0,0,1-1.952-3.483h0a2.831,2.831,0,0,1,3.483-1.951l79.356,22.357a2.832,2.832,0,0,1,1.952,3.483h0A2.831,2.831,0,0,1,2054.507,2599.15Z" transform="translate(-1952.453 -2456.638)" fill="#b3cef6"/>
      <path id="Trazado_168293" data-name="Trazado 168293" d="M2013.112,2746.083l-79.356-22.358a2.831,2.831,0,0,1-1.952-3.483h0a2.831,2.831,0,0,1,3.483-1.952l79.356,22.357a2.832,2.832,0,0,1,1.952,3.483h0A2.832,2.832,0,0,1,2013.112,2746.083Z" transform="translate(-1914.582 -2591.06)" fill="#b3cef6"/>
    </g>
    <g id="Grupo_131484" data-name="Grupo 131484" transform="translate(696.316 920.635)">
      <path id="Trazado_168300" data-name="Trazado 168300" d="M1699.739,1152.07,1612.691,1143a6.207,6.207,0,0,0-6.817,5.53l-14.225,136.479a6.207,6.207,0,0,0,5.53,6.817l105.851,11.033a6.207,6.207,0,0,0,6.817-5.53l12.265-117.676Z" transform="translate(-1591.615 -1142.963)" fill="#fff"/>
      <path id="Trazado_168301" data-name="Trazado 168301" d="M2838.1,1268.721a6.207,6.207,0,0,0,5.53,6.817l18.8,1.96-22.373-27.579Z" transform="translate(-2731.933 -1240.811)" fill="#ededed"/>
      <path id="Trazado_168302" data-name="Trazado 168302" d="M2891.991,1548.7l19.445,5.3.33-3.164Z" transform="translate(-2781.269 -1514.149)" fill="#cecece"/>
      <path id="Trazado_168303" data-name="Trazado 168303" d="M2139.226,1478.6l-53.232-5.548a2.631,2.631,0,0,1-2.337-2.882h0a2.631,2.631,0,0,1,2.881-2.338l53.232,5.548a2.631,2.631,0,0,1,2.337,2.882h0A2.631,2.631,0,0,1,2139.226,1478.6Z" transform="translate(-2041.747 -1440.16)" fill="#00978e"/>
      <path id="Trazado_168304" data-name="Trazado 168304" d="M1948.134,1668.978l-88-9.172a2.632,2.632,0,0,1-2.338-2.882h0a2.631,2.631,0,0,1,2.882-2.338l88,9.172a2.632,2.632,0,0,1,2.338,2.882h0A2.632,2.632,0,0,1,1948.134,1668.978Z" transform="translate(-1835.117 -1611.011)" fill="#e4ecf9"/>
      <path id="Trazado_168305" data-name="Trazado 168305" d="M1931.872,1825l-88-9.172a2.631,2.631,0,0,1-2.338-2.882h0a2.632,2.632,0,0,1,2.882-2.338l88,9.172a2.631,2.631,0,0,1,2.338,2.882h0A2.631,2.631,0,0,1,1931.872,1825Z" transform="translate(-1820.24 -1753.75)" fill="#e4ecf9"/>
      <path id="Trazado_168306" data-name="Trazado 168306" d="M1915.61,1981.027l-88-9.172a2.631,2.631,0,0,1-2.337-2.881h0a2.631,2.631,0,0,1,2.882-2.338l88,9.172a2.632,2.632,0,0,1,2.338,2.882h0A2.632,2.632,0,0,1,1915.61,1981.027Z" transform="translate(-1805.363 -1896.49)" fill="#e4ecf9"/>
      <path id="Trazado_168307" data-name="Trazado 168307" d="M1899.348,2137.051l-88-9.172a2.631,2.631,0,0,1-2.338-2.882h0a2.632,2.632,0,0,1,2.882-2.338l88,9.172a2.632,2.632,0,0,1,2.338,2.882h0A2.631,2.631,0,0,1,1899.348,2137.051Z" transform="translate(-1790.485 -2039.229)" fill="#e4ecf9"/>
      <path id="Trazado_168308" data-name="Trazado 168308" d="M1883.085,2293.075l-88-9.172a2.632,2.632,0,0,1-2.338-2.882h0a2.632,2.632,0,0,1,2.882-2.338l88,9.173a2.631,2.631,0,0,1,2.338,2.881h0A2.632,2.632,0,0,1,1883.085,2293.075Z" transform="translate(-1775.607 -2181.969)" fill="#e4ecf9"/>
      <path id="Trazado_168309" data-name="Trazado 168309" d="M1866.823,2449.1l-88-9.172a2.632,2.632,0,0,1-2.338-2.882h0a2.631,2.631,0,0,1,2.882-2.338l88,9.172a2.632,2.632,0,0,1,2.338,2.882h0A2.632,2.632,0,0,1,1866.823,2449.1Z" transform="translate(-1760.73 -2324.709)" fill="#e4ecf9"/>
      <path id="Trazado_168310" data-name="Trazado 168310" d="M2293.345,2677.932a.5.5,0,0,0-.824-.4,8.339,8.339,0,0,1-1.5,1.032l-.786.313q-.781.411-.872-.652a.5.5,0,0,0-.66-.737,3.333,3.333,0,0,1-2.27,1.06,2.762,2.762,0,0,1-.792-.269,3.354,3.354,0,0,0,.491-.461.5.5,0,0,0,.028-.5,6.212,6.212,0,0,0-.543-1.027,18.839,18.839,0,0,0,4.611-7.249.5.5,0,0,0-.8-.527,15.473,15.473,0,0,0-4.5,5,3.639,3.639,0,0,0-.56,2.281,2.174,2.174,0,0,0,.066.243,15.857,15.857,0,0,1-1.527,1.271,8.224,8.224,0,0,1-2.339,1.214c-.608.19-1.523.487-1.941-.107,1.381-.774,2.5-1.871,1.9-3.239-.894-2.056-3.03,1.046-3.142,2.778a11.315,11.315,0,0,1-2.1.715c-.617.151-.412,1.119.209.967a14.1,14.1,0,0,0,2.123-.724c1.171,2.065,4.877-.048,6.126-.987.373-.28.741-.587,1.1-.912.284.507.3.422-.405.9a.5.5,0,0,0,.068.909,5.051,5.051,0,0,0,2.419.714,2.752,2.752,0,0,0,.77-.223.484.484,0,0,0,.2.336c1.357.889,3.078.153,4.386-.727a6.6,6.6,0,0,1-2.26,4.029c-1.868,1.536-4.267,1.162-6.458.732-.617-.121-.939.816-.316.938,2.39.469,4.947.867,7.058-.644A7.388,7.388,0,0,0,2293.345,2677.932Zm-14.332-1.8c.766-.593.243.531-.024.806a3.433,3.433,0,0,1-.575.455A2.709,2.709,0,0,1,2279.014,2676.134Zm6.442-1.392a7.291,7.291,0,0,1,1.327-2.25,14.44,14.44,0,0,1,1.765-1.946,18.961,18.961,0,0,1-3.152,4.55A3.043,3.043,0,0,1,2285.456,2674.742Z" transform="translate(-2216.742 -2538.527)" fill="#e4ecf9"/>
      <path id="Trazado_168311" data-name="Trazado 168311" d="M2618.832,2704.478a9.477,9.477,0,1,1,10.845-7.874A9.487,9.487,0,0,1,2618.832,2704.478Zm2.649-16.7a7.428,7.428,0,1,0,6.172,8.5A7.436,7.436,0,0,0,2621.481,2687.783Z" transform="translate(-2524.056 -2554.289)" fill="#e4ecf9"/>
      <path id="Trazado_168312" data-name="Trazado 168312" d="M2685.393,2718.537l-.066.011a16.006,16.006,0,0,0-2.249.541l-1.068.348-1.024.407a29.559,29.559,0,0,0-3.887,1.921,31.862,31.862,0,0,0-3.586,2.337c-.646.47-1.268.973-1.879,1.492q-.52-.479-1.078-.931c-.5-.436-1.062-.825-1.611-1.224a16.316,16.316,0,0,0-1.8-1.084l-.06-.03a.137.137,0,0,0-.174.2c1.458,2.134,2.961,4.234,4.466,6.334a.254.254,0,0,0,.353.056c2.325-1.648,4.638-3.313,6.921-5.018l3.439-2.538c1.153-.838,2.274-1.719,3.412-2.577a.137.137,0,0,0-.1-.244Z" transform="translate(-2575.328 -2584.382)" fill="#00978e"/>
    </g>
  </g>
</svg>
