<svg xmlns="http://www.w3.org/2000/svg" width="103.659" height="91.539" viewBox="0 0 103.659 91.539">
  <g id="imgN3" transform="translate(-2624.608 -647.102)">
    <path id="Trazado_168448" data-name="Trazado 168448" d="M2683.185,690.913c-11.2,1.23-21.155.421-28.605-8.529-4.02,4.1-5.047,7.84-.61,11.787,8.732,7.768,9.686,16.891,4.811,27.149-1.245,2.617-1.256,5.994-2.932,8.182-1.485,1.938-5.145,4.258-6.675,3.618-2.169-.908-4.3-4.272-4.565-6.783-.356-3.429,1.208-7.024,1.671-10.584a52.106,52.106,0,0,0,.053-6.679l-2.048-.441c-2.426,5.158-4.929,10.281-7.251,15.485-1.712,3.833-3.924,6.919-8.655,5.25-5.048-1.779-3.877-5.99-2.955-9.694,1.084-4.356,2.917-8.546,3.762-12.936.99-5.142,1.115-10.445,1.886-15.637,1.492-10.046,5.4-19.221,12.759-26.17,3.852-3.636,9.258-3.285,13.435.846,2.234,2.211,3.877,5.119,6.341,6.977,3.584,2.7,7.682,4.718,11.534,7.069,3.413,2.081,6.792,4.219,10.651,6.622a56.877,56.877,0,0,1,3.709-6.411c4.852-6.706,11.847-6.66,16.694-.02a22.322,22.322,0,0,1,2.454,4.027c2.277,5.134,6.242,7.573,11.634,9,2.893.766,5.126,3.566,7.694,5.555-1.9,2.275-3.727,4.745-6.327,7.862,1.813,4.254,4.668,9.671,6.327,15.431.737,2.564.055,6.954-1.731,8.519-3.318,2.909-6.669.677-8.808-2.854-2.159-3.566-4.288-7.151-7.127-11.89-1.2,2.966-1.8,4.537-2.47,6.074-3.162,7.224-9.159,10.986-17.09,10.748-7.391-.222-13.227-4.441-15.921-11.51-2.628-6.9-.925-14.855,5.17-19.489C2683.984,698.46,2684.538,695.287,2683.185,690.913ZM2653.9,677.76c5.881,6.572,12.427,11.1,21.144,10.732,1.831-.079,3.612-1.317,5.415-2.019-1.418-1.1-2.686-2.792-4.28-3.2-5.212-1.323-10.086-2.234-13.766-7.257-13.316-18.183-18.542-10.135-24.87,3.5-5.568,11.993-5.422,14.19,4.823,22.434,6.22,5.005,8.943,10.1,6.023,17.836a18.87,18.87,0,0,0-.931,7.316,4.885,4.885,0,0,0,2.307,3.407c.643.353,2.909-.644,3.177-1.455,2.258-6.809,5.181-13.622,5.862-20.631.33-3.388-3.415-7.422-5.844-10.78C2646.238,688.359,2646.128,688.439,2653.9,677.76ZM2724.721,701q.54-1.2,1.079-2.4c-2.23-1.065-4.363-2.659-6.708-3.088-5.978-1.095-10.314-3.907-12.624-9.669a19.946,19.946,0,0,0-2.426-4.038c-3.8-5.315-9.058-5.457-12.33.283-2.444,4.288-3.628,9.295-5.373,13.981l1.364,1.122c4.7-2.534,10.65,5.265,14.812-2.985C2708.613,701.937,2716.874,700.616,2724.721,701Zm-41.192,1.337c-7.106,6.4-8.613,12.277-5.579,18.777a14.769,14.769,0,0,0,15.413,8.488c6.678-.752,10.771-4.772,12.268-12.338C2695.231,717.385,2684.3,718.1,2683.529,702.341Zm22.111,2.271c5.273,7.856,10.126,15.265,15.249,22.481.593.833,3.076,1.227,3.979.675.827-.5,1.279-2.763.892-3.909-1.292-3.823-3.418-7.384-4.525-11.246C2719.07,705.058,2714.095,703.057,2705.64,704.612Zm1.053,10.126c-1.567-7.568-4.353-12.3-10.316-13.692-2.889-.675-8.631.014-8.972,1.233-1.2,4.3-.356,9.358,4.966,10.847C2696.52,714.285,2701.031,714.158,2706.693,714.737Zm-72.239-14.853c-2.253,7.49-4.615,14.864-6.583,22.344-.333,1.269,1.032,2.985,1.612,4.5,1.375-.811,3.319-1.291,4.017-2.494,2.122-3.658,3.432-7.8,5.663-11.378C2642.929,706.816,2641.2,702.931,2634.455,699.884Z" transform="translate(0 5.411)" fill="#1d272b"/>
    <path id="Trazado_168449" data-name="Trazado 168449" d="M2653.077,647.1a10.673,10.673,0,0,1,10.776,10.622,10.873,10.873,0,0,1-10.646,10.8,10.72,10.72,0,0,1-.13-21.42Zm8.932,12.343-.006-3.188c-2.548-5.916-5.637-5.609-8.79-6.055-4.351-.616-7.488,2.66-7.539,7.546-.05,4.98,3.315,8.081,7.541,7.6C2656.33,664.995,2660.929,663.435,2662.009,659.447Z" transform="translate(6.455)" fill="#1d272b"/>
    <path id="Trazado_168450" data-name="Trazado 168450" d="M2688,677.126a9.866,9.866,0,0,1-9.526-10.107,9.75,9.75,0,0,1,10.177-9.391,9.436,9.436,0,0,1,9.458,10.023A9.813,9.813,0,0,1,2688,677.126Zm-2.35-2.674a6.369,6.369,0,0,0,4.366.917c5.015-2.78,4.7-5.239,5.058-8.111.561-4.43-2.99-7.628-7.19-6.5-2.6.7-5.873,4.456-6.057,7.039C2681.65,670.217,2682.844,671.968,2685.646,674.453Z" transform="translate(19.02 3.716)" fill="#1d272b"/>
  </g>
</svg>
