<svg xmlns="http://www.w3.org/2000/svg" xmlns:xlink="http://www.w3.org/1999/xlink" width="276.673" height="216.232" viewBox="0 0 276.673 216.232">
  <defs>
    <radialGradient id="radial-gradient" cx="0.5" cy="0.5" r="0.5" gradientUnits="objectBoundingBox">
      <stop offset="0" stop-color="#f6f6f7"/>
      <stop offset="0.477" stop-color="#f9f9fa"/>
      <stop offset="0.715" stop-color="#fff"/>
    </radialGradient>
    <linearGradient id="linear-gradient" x1="0.5" x2="0.5" y2="1" gradientUnits="objectBoundingBox">
      <stop offset="0" stop-color="#f5f5f5"/>
      <stop offset="0.25" stop-color="#f5f5f5"/>
      <stop offset="1" stop-color="#eeeef2"/>
    </linearGradient>
    <radialGradient id="radial-gradient-4" cx="0.076" cy="0.019" r="1.465" gradientTransform="translate(0.001)" xlink:href="#radial-gradient"/>
  </defs>
  <g id="img1" transform="translate(-39.691 -83.482)">
    <path id="Trazado_158666" data-name="Trazado 158666" d="M318.318,297.566c.311-28.84-1.216-57.958-6.749-85.324-5.88-29.049-16.556-56.143-31.969-73.617s-35.807-24.3-53.552-14.3c-6.719,3.786-13.035,9.864-20.078,11.43-5.946,1.321-12.156-.779-17.282-5.847C179.979,121.3,175,105.327,166.912,95.259c-10.214-12.718-24.458-14.4-36.805-8.562s-23.117,18.287-32.914,31.863c-17.006,23.566-31.871,51.214-44.04,81.716v97.289Z" transform="translate(-4.607)" fill="#dfdfe5"/>
    <path id="Trazado_158667" data-name="Trazado 158667" d="M306.525,314.292a356.4,356.4,0,0,0-6.154-53.177C294.564,232.065,284,204.972,268.765,187.5s-35.411-24.3-52.958-14.3c-6.64,3.786-12.89,9.864-19.853,11.43-5.88,1.321-12.018-.779-17.091-5.847-8.608-8.608-13.524-24.583-21.524-34.651-10.108-12.718-24.186-14.4-36.4-8.562s-22.859,18.287-32.544,31.863a367.14,367.14,0,0,0-35.239,62.049v84.809Z" transform="translate(-4.607 -16.725)" fill="#e3e3e8" style="mix-blend-mode: multiply;isolation: isolate"/>
    <path id="Trazado_158668" data-name="Trazado 158668" d="M295.966,336.08q-.875-5.694-1.944-11.3c-5.589-29.049-15.756-56.143-30.417-73.617s-34.07-24.3-50.949-14.3c-6.389,3.786-12.4,9.863-19.107,11.429-5.655,1.321-11.561-.779-16.444-5.846-8.278-8.6-13.015-24.583-20.711-34.652-9.725-12.717-23.268-14.4-35.021-8.562S99.379,217.525,90.064,231.1a377.178,377.178,0,0,0-36.911,69.131V336.08Z" transform="translate(-4.607 -38.514)" fill="#dfdfe5" style="mix-blend-mode: multiply;isolation: isolate"/>
    <path id="Trazado_158669" data-name="Trazado 158669" d="M287.657,356.683c-5.744-17.852-13.492-33.707-23.231-45.315-14.66-17.468-34.07-24.3-50.949-14.3-6.389,3.786-12.4,9.864-19.107,11.43-5.655,1.321-11.561-.779-16.444-5.847-8.278-8.6-13.015-24.583-20.711-34.651-9.725-12.718-23.268-14.4-35.021-8.562S100.2,277.727,90.885,291.3a373.881,373.881,0,0,0-35.333,65.379Z" transform="translate(-5.428 -59.116)" fill="#dfdfe5" style="mix-blend-mode: multiply;isolation: isolate"/>
    <path id="Trazado_158670" data-name="Trazado 158670" d="M286.731,235.57q-2.447,4.232-4.9,8.463c-2.24,3.859-4.473,7.723-6.759,11.555a29.775,29.775,0,0,1-2.926,4.307,31.108,31.108,0,0,1-5.444,4.645c-.139.1-.291.2-.436.3a61,61,0,0,1-9.216,5.259l-54.921,35.279a6.525,6.525,0,0,1-9.56-3.4l-8.344-23.678V266.634l17.811-2.444,3.495,12.883.76,2.795A1.877,1.877,0,0,0,209.039,281l36.554-20.936a25.442,25.442,0,0,0,2.431-3.825c1.513-2.861,2.7-5.9,4.473-8.6a30.681,30.681,0,0,1,5.034-5.754c.951-.866,1.936-1.691,2.94-2.5.516-.416,1.031-.826,1.553-1.229.456-.35.858-.845,1.487-.832,1.889.033,1.453,3.045.971,4.142-.681,1.546-1.9,2.8-2.59,4.347a10.648,10.648,0,0,0-.641,2.028c.508-.218,1.017-.429,1.519-.647,6.58-2.874,12.123-7.736,16.8-13.186.707-.826,1.592-1.751,2.676-1.632a1.661,1.661,0,0,1,.872.383,2.182,2.182,0,0,1,.5.615l.2-.159a4.776,4.776,0,0,1,1.546-.912,1.681,1.681,0,0,1,1.678.357C287.756,233.429,287.254,234.658,286.731,235.57Z" transform="translate(-49.462 -50.904)" fill="#ffc582"/>
    <path id="Trazado_158671" data-name="Trazado 158671" d="M205.53,293.7c-6.7.456-17.369-.918-21.306-1.48v-8.958l17.811-2.444Z" transform="translate(-49.462 -67.533)" fill="#eca0a4" style="mix-blend-mode: multiply;isolation: isolate"/>
    <path id="Trazado_158672" data-name="Trazado 158672" d="M45.078,355.8l-1.853,11H67.3l-4.151-4.969V285.8H44.47l.073,8.2Z" transform="translate(-1.21 -69.238)" fill="#ffc582"/>
    <path id="Trazado_158673" data-name="Trazado 158673" d="M63.794,285.8v10.709c-5.318-.092-13.319-1.473-18.6-2.51l-.072-8.2Z" transform="translate(-1.857 -69.238)" fill="#eca0a4" style="mix-blend-mode: multiply;isolation: isolate"/>
    <rect id="Rectángulo_34290" data-name="Rectángulo 34290" width="78.595" height="23.326" transform="translate(59.235 274.24)"/>
    <rect id="Rectángulo_34291" data-name="Rectángulo 34291" width="78.595" height="7.362" transform="translate(59.235 274.24)" fill="#343435"/>
    <g id="Grupo_121032" data-name="Grupo 121032" transform="translate(63.824 273.93)">
      <g id="Grupo_121030" data-name="Grupo 121030">
        <rect id="Rectángulo_34292" data-name="Rectángulo 34292" width="2.732" height="9.777"/>
        <rect id="Rectángulo_34293" data-name="Rectángulo 34293" width="2.732" height="9.777" transform="translate(19.382)"/>
      </g>
      <g id="Grupo_121031" data-name="Grupo 121031" transform="translate(47.303)">
        <rect id="Rectángulo_34294" data-name="Rectángulo 34294" width="2.732" height="9.777"/>
        <rect id="Rectángulo_34295" data-name="Rectángulo 34295" width="2.732" height="9.777" transform="translate(19.382)"/>
      </g>
    </g>
    <path id="Trazado_158674" data-name="Trazado 158674" d="M141.913,215.226s27.133.7,41.646,19.911a26.592,26.592,0,0,1,4.049,7.97l5.229,22.716-23.579,1.617Z" transform="translate(-34.983 -45.086)" fill="url(#radial-gradient)"/>
    <path id="Trazado_158675" data-name="Trazado 158675" d="M90.614,215.226s-27.133.7-41.646,19.911a26.592,26.592,0,0,0-4.049,7.97l-5.229,23.9,23.579.431Z" transform="translate(0 -45.086)" fill="url(#radial-gradient)"/>
    <path id="Trazado_158676" data-name="Trazado 158676" d="M146.648,305.762l1.792-2.423-1.8-4.022V249.068c0-20.621-16.156-37.485-35.91-37.485H103.8c-19.754,0-35.91,16.865-35.91,37.485v50.249l-1.8,4.022,1.792,2.423L65.22,312.2l2.576,7.74h78.947l2.575-7.74Z" transform="translate(-8.737 -43.839)" fill="url(#radial-gradient)"/>
    <path id="Trazado_158677" data-name="Trazado 158677" d="M98.866,118.632H91.814V145.1s-.126,12.19,7.052,14.709Z" transform="translate(-17.838 -12.029)" fill="#3b2314"/>
    <path id="Trazado_158678" data-name="Trazado 158678" d="M155.757,118.632h7.052V145.1s.126,12.19-7.052,14.709Z" transform="translate(-39.72 -12.029)" fill="#3b2314"/>
    <path id="Trazado_158679" data-name="Trazado 158679" d="M134.322,186.827v17.237a10.8,10.8,0,0,1-21.59,0V186.827a10.8,10.8,0,0,1,21.59,0Z" transform="translate(-24.996 -31.673)" fill="#ffc582"/>
    <path id="Trazado_158680" data-name="Trazado 158680" d="M134.322,186.827V199.4a46.126,46.126,0,0,1-21.59-4.9v-7.67a10.8,10.8,0,0,1,21.59,0Z" transform="translate(-24.996 -31.673)" fill="#eca0a4" style="mix-blend-mode: multiply;isolation: isolate"/>
    <path id="Trazado_158681" data-name="Trazado 158681" d="M138.883,120V150.63a18.568,18.568,0,0,1-18.511,18.518H116.8A18.574,18.574,0,0,1,98.279,150.63V120A18.574,18.574,0,0,1,116.8,101.477h3.574A18.568,18.568,0,0,1,138.883,120Z" transform="translate(-20.05 -6.158)" fill="#ffc582"/>
    <path id="Trazado_158682" data-name="Trazado 158682" d="M138.883,120v8.476c-23.525,4.446-35.233-1.473-40.6-6.283V120A18.574,18.574,0,0,1,116.8,101.477h3.574A18.568,18.568,0,0,1,138.883,120Z" transform="translate(-20.05 -6.158)" fill="#eca0a4" style="mix-blend-mode: multiply;isolation: isolate"/>
    <path id="Trazado_158683" data-name="Trazado 158683" d="M140.926,110.59c0-7.612-10.994-13.783-24.556-13.783s-24.556,6.171-24.556,13.783a9.7,9.7,0,0,0,3.369,6.965v5.911l.738,13.057h1.19a1.818,1.818,0,0,0,1.863-1.768v-8.3a8.762,8.762,0,0,0,2.716-4.819,40.788,40.788,0,0,0,29.359,0,8.764,8.764,0,0,0,2.717,4.819v8.3a1.817,1.817,0,0,0,1.863,1.768h1.19l.737-13.057v-5.911A9.7,9.7,0,0,0,140.926,110.59Z" transform="translate(-17.838 -4.56)" fill="#3b2314"/>
    <path id="Trazado_158684" data-name="Trazado 158684" d="M115.067,172.95a9.34,9.34,0,0,0,18.521,0Z" transform="translate(-25.795 -30.618)" fill="#fff"/>
    <path id="Trazado_158685" data-name="Trazado 158685" d="M129.294,166.016h-3.589a1.374,1.374,0,0,1-1.369-1.369h0a1.374,1.374,0,0,1,1.369-1.369h3.589a1.374,1.374,0,0,1,1.369,1.369h0A1.374,1.374,0,0,1,129.294,166.016Z" transform="translate(-28.967 -27.308)" fill="#df757b"/>
    <g id="Grupo_121037" data-name="Grupo 121037" transform="translate(84.188 122.333)">
      <g id="Grupo_121033" data-name="Grupo 121033" transform="translate(1.231 6.08)">
        <path id="Trazado_158686" data-name="Trazado 158686" d="M115.569,153.841a.41.41,0,0,1-.29-.12,3.8,3.8,0,0,0-5.369,0,.41.41,0,1,1-.58-.58,4.616,4.616,0,0,1,6.529,0,.41.41,0,0,1-.29.7Z" transform="translate(-109.21 -151.789)" fill="#944c52"/>
      </g>
      <g id="Grupo_121034" data-name="Grupo 121034">
        <path id="Trazado_158687" data-name="Trazado 158687" d="M115.749,145.759a.82.82,0,0,1-.58-.24,4.546,4.546,0,0,0-6.429,0,.82.82,0,0,1-1.16-1.16,6.187,6.187,0,0,1,8.75,0,.82.82,0,0,1-.58,1.4Z" transform="translate(-107.339 -142.546)" fill="#3b2314"/>
      </g>
      <g id="Grupo_121035" data-name="Grupo 121035" transform="translate(20.689 6.08)">
        <path id="Trazado_158688" data-name="Trazado 158688" d="M145.15,153.841a.412.412,0,0,1-.29-.12,3.8,3.8,0,0,0-5.368,0,.41.41,0,0,1-.58-.58,4.616,4.616,0,0,1,6.528,0,.41.41,0,0,1-.29.7Z" transform="translate(-138.791 -151.789)" fill="#944c52"/>
      </g>
      <g id="Grupo_121036" data-name="Grupo 121036" transform="translate(19.458)">
        <path id="Trazado_158689" data-name="Trazado 158689" d="M145.33,145.759a.817.817,0,0,1-.579-.24,4.547,4.547,0,0,0-6.43,0,.82.82,0,0,1-1.16-1.16,6.187,6.187,0,0,1,8.75,0,.82.82,0,0,1-.58,1.4Z" transform="translate(-136.92 -142.546)" fill="#3b2314"/>
      </g>
    </g>
    <path id="Trazado_158690" data-name="Trazado 158690" d="M125.169,193.665h-5.1A2.273,2.273,0,0,1,117.8,191.4h0a2.273,2.273,0,0,1,2.267-2.267h5.1a2.274,2.274,0,0,1,2.267,2.267h0A2.273,2.273,0,0,1,125.169,193.665Z" transform="translate(-26.732 -36.156)"/>
    <g id="Grupo_121038" data-name="Grupo 121038" transform="translate(73.717 137.205)">
      <path id="Trazado_158691" data-name="Trazado 158691" d="M109.528,183.918H101.14a7.958,7.958,0,0,1-7.447-5.071l-.041-.146-2.221-12.658a.755.755,0,0,1,1.488-.262l2.208,12.581a6.454,6.454,0,0,0,6.013,4.045h8.388a.755.755,0,1,1,0,1.511Z" transform="translate(-91.419 -165.156)" fill="#404041"/>
    </g>
    <g id="Grupo_121041" data-name="Grupo 121041" transform="translate(70.713 125.87)">
      <g id="Grupo_121039" data-name="Grupo 121039" transform="translate(0 0)">
        <path id="Trazado_158692" data-name="Trazado 158692" d="M94.371,148.777v12.7a.853.853,0,0,1-.853.854H91.605c-.105,0-.211-.008-.31-.015-2.478-.242-4.443-3.37-4.443-7.193s1.965-6.944,4.443-7.186c.1-.007.2-.015.31-.015h1.912A.853.853,0,0,1,94.371,148.777Z" transform="translate(-86.853 -147.923)"/>
        <path id="Trazado_158693" data-name="Trazado 158693" d="M96.682,148.777v12.7a.853.853,0,0,1-.853.854H93.917c-.105,0-.211-.008-.31-.015V147.938c.1-.007.2-.015.31-.015h1.912A.853.853,0,0,1,96.682,148.777Z" transform="translate(-89.164 -147.923)" fill="#404041"/>
      </g>
      <g id="Grupo_121040" data-name="Grupo 121040" transform="translate(48.12 0)">
        <path id="Trazado_158694" data-name="Trazado 158694" d="M160.009,148.777v12.7a.853.853,0,0,0,.854.854h1.911c.106,0,.212-.008.31-.015,2.479-.242,4.443-3.37,4.443-7.193s-1.964-6.944-4.443-7.186c-.1-.007-.2-.015-.31-.015h-1.911A.853.853,0,0,0,160.009,148.777Z" transform="translate(-160.009 -147.923)"/>
        <path id="Trazado_158695" data-name="Trazado 158695" d="M160.009,148.777v12.7a.853.853,0,0,0,.854.854h1.911c.106,0,.212-.008.31-.015V147.938c-.1-.007-.2-.015-.31-.015h-1.911A.853.853,0,0,0,160.009,148.777Z" transform="translate(-160.009 -147.923)" fill="#404041"/>
      </g>
    </g>
    <g id="Grupo_121042" data-name="Grupo 121042" transform="translate(97.718 184.511)">
      <rect id="Rectángulo_34296" data-name="Rectángulo 34296" width="1.629" height="91.592" transform="translate(0 0)" fill="#231f20"/>
    </g>
    <g id="Grupo_121043" data-name="Grupo 121043" transform="translate(113.158 194.581)">
      <path id="Trazado_158696" data-name="Trazado 158696" d="M173.538,252.681v11.745a.3.3,0,0,1-.3.3h-3.323a.3.3,0,0,1-.3-.3V252.681a.3.3,0,0,1,.3-.3h3.323A.3.3,0,0,1,173.538,252.681Z" transform="translate(-157.622 -252.382)" fill="#1a1a1a"/>
      <path id="Rectángulo_34297" data-name="Rectángulo 34297" d="M0,0H17.5a0,0,0,0,1,0,0V21.483a3.872,3.872,0,0,1-3.872,3.872H3.872A3.872,3.872,0,0,1,0,21.483V0A0,0,0,0,1,0,0Z" transform="translate(0 5.397)" fill="#dfdfe5"/>
      <rect id="Rectángulo_34298" data-name="Rectángulo 34298" width="17.501" height="2.868" transform="translate(0 5.397)" fill="#fff"/>
      <rect id="Rectángulo_34299" data-name="Rectángulo 34299" width="2.566" height="9.81" transform="translate(12.671 2.529)" fill="#b3b3b3"/>
      <path id="Trazado_158697" data-name="Trazado 158697" d="M173.538,252.681v1.214h-3.921v-1.214a.3.3,0,0,1,.3-.3h3.323A.3.3,0,0,1,173.538,252.681Z" transform="translate(-157.622 -252.382)" fill="#4d4d4d"/>
    </g>
    <path id="Trazado_158698" data-name="Trazado 158698" d="M324.361,236.012a25.265,25.265,0,0,1,2.582-2.36,2.235,2.235,0,0,0-.5-.611,56.207,56.207,0,0,0-4.105,4.178,2.167,2.167,0,0,0-1.7,2.027v.007a28.374,28.374,0,0,0-4.716,8.1,79.6,79.6,0,0,1,4.59-6.784,22.747,22.747,0,0,0,.071,3.772s-2.444.175-2.444,3.947v3.772s-6.826,2.753-7.322,7.487l8.423-4.349,1.4-7.846,3.171-2.4V238.7l.866,2.773a7.876,7.876,0,0,0,1.189,1.619l1.552-2.682A5.219,5.219,0,0,0,324.361,236.012Zm-1.05,1.126,0,0h0v0Z" transform="translate(-92.783 -51.182)" fill="#eca0a4" style="mix-blend-mode: multiply;isolation: isolate"/>
    <path id="Trazado_158699" data-name="Trazado 158699" d="M331.1,248.136a11.013,11.013,0,0,1-.614,2.4,7.38,7.38,0,0,1-1.731,2.425,22.525,22.525,0,0,1-2.669,2.14h-.007c0-.007,0-.007.007-.013a3.175,3.175,0,0,0-.059-1.771,4.333,4.333,0,0,1-.2-2.193,2.483,2.483,0,0,1,.118-.31c.112-.264.264-.509.383-.774a6.69,6.69,0,0,0,.317-3.052c-.033-.621-.066-1.235-.1-1.856-.039-.866-.086-1.738-.132-2.6a6.377,6.377,0,0,1,.179-2.379,2.135,2.135,0,0,1,1.7-1.513,2.6,2.6,0,0,1,2.279,1.658C331.792,242.666,331.534,245.506,331.1,248.136Z" transform="translate(-97.892 -53.097)" fill="#ffc582"/>
    <path id="Trazado_158700" data-name="Trazado 158700" d="M134.919,329.519l-12.037,24.55-12.037-24.55,3.951-37.737.106-.991.106-.991.106-.991,4.089-39.038.046-.429,2.557-1.387,1.077-.581,1.209.654,2.425,1.315.2,1.9Z" transform="translate(-24.35 -56.087)" fill="#1d272b"/>
    <path id="Trazado_158701" data-name="Trazado 158701" d="M129.9,311.874v1.982H116.85l.106-.991.106-.991Z" transform="translate(-26.406 -78.161)" fill="#2b388f" style="mix-blend-mode: multiply;isolation: isolate"/>
    <path id="Trazado_158702" data-name="Trazado 158702" d="M132.3,230.188l-.938,2.319-1.268,3.112-.707,1.738-.4.991h-6.527l-.4-.991-.727-1.784-1.242-3.066-.945-2.319,3.475-4.981h6.21Z" transform="translate(-27.189 -48.501)" fill="#1d272b"/>
    <path id="Trazado_158705" data-name="Trazado 158705" d="M120.379,220.191l-4.281,7.3-1.13,1.916-.568.971-6.91-17.6,3.449-2.226,7.518,7.67Z" transform="translate(-23.202 -43.486)" fill="#dfdfe5"/>
    <path id="Trazado_158706" data-name="Trazado 158706" d="M144.1,212.779l-6.91,17.6-.588-1.011-1.1-1.876-4.281-7.3,1.9-1.949,7.531-7.69Z" transform="translate(-31.321 -43.486)" fill="#dfdfe5"/>
    <path id="Trazado_158707" data-name="Trazado 158707" d="M129.61,310.367v1.982h-13.6l.211-1.982Z" transform="translate(-26.117 -77.645)" fill="#b3b3b3"/>
    <path id="Trazado_158708" data-name="Trazado 158708" d="M277.921,134.585h-4.105v-4.1a1.477,1.477,0,1,0-2.954,0v4.1h-4.105a1.477,1.477,0,0,0,0,2.955h4.105v4.1a1.477,1.477,0,1,0,2.954,0v-4.1h4.105a1.477,1.477,0,0,0,0-2.955Z" transform="translate(-77.201 -15.578)" fill="#fff"/>
    <path id="Trazado_158709" data-name="Trazado 158709" d="M65.679,187.757H61.837v-3.843a1.383,1.383,0,0,0-2.766,0v3.843H55.227a1.383,1.383,0,1,0,0,2.766h3.843v3.843a1.383,1.383,0,1,0,2.766,0v-3.843h3.843a1.383,1.383,0,1,0,0-2.766Z" transform="translate(-4.843 -33.897)" fill="#fff"/>
    <path id="Trazado_158710" data-name="Trazado 158710" d="M302.953,127.518h-2.577V124.94a.928.928,0,1,0-1.856,0v2.578h-2.578a.927.927,0,0,0,0,1.855h2.578v2.578a.928.928,0,0,0,1.856,0v-2.578h2.577a.927.927,0,1,0,0-1.855Z" transform="translate(-87.377 -13.87)" fill="#fff"/>
    <path id="Trazado_158711" data-name="Trazado 158711" d="M453.475,242.32H450.3v-3.18a1.144,1.144,0,0,0-2.288,0v3.18h-3.18a1.144,1.144,0,1,0,0,2.288h3.18v3.179a1.144,1.144,0,1,0,2.288,0v-3.179h3.179a1.144,1.144,0,1,0,0-2.288Z" transform="translate(-138.255 -52.878)" fill="#fff"/>
    <path id="Trazado_158712" data-name="Trazado 158712" d="M77.418,173.355H75v-2.413a.869.869,0,1,0-1.737,0v2.413H70.854a.869.869,0,0,0,0,1.737h2.413v2.413a.869.869,0,0,0,1.737,0v-2.413h2.413a.869.869,0,0,0,0-1.737Z" transform="translate(-10.368 -29.633)" fill="#fff"/>
    <path id="Trazado_158713" data-name="Trazado 158713" d="M409.986,154.33H407.71v-2.277a.819.819,0,0,0-1.639,0v2.277h-2.277a.819.819,0,1,0,0,1.639h2.277v2.277a.819.819,0,1,0,1.639,0v-2.277h2.277a.819.819,0,1,0,0-1.639Z" transform="translate(-124.324 -23.186)" fill="#fff"/>
    <g id="Grupo_121044" data-name="Grupo 121044" transform="translate(72.843 91.129)">
      <path id="Trazado_158714" data-name="Trazado 158714" d="M141.47,133.133H139.2V110.582c-.018-.434-.691-11.528-21.213-13.207h-4.419c-20.523,1.679-21.2,12.773-21.214,13.244v22.514H90.091V110.582c.015-.585.633-13.63,23.342-15.47.03,0,.061,0,.092,0h4.511c.03,0,.061,0,.091,0,22.708,1.84,23.327,14.884,23.342,15.439Z" transform="translate(-90.091 -95.108)"/>
    </g>
    <path id="Trazado_158715" data-name="Trazado 158715" d="M328.857,256.347a22.519,22.519,0,0,1-2.669,2.14v-.013l-.059-1.771-.086-2.5c.112-.264.264-.509.383-.774a6.691,6.691,0,0,0,.317-3.052c-.033-.621-.066-1.235-.1-1.856a5.374,5.374,0,0,1,2.061,2.841A10.534,10.534,0,0,1,328.857,256.347Z" transform="translate(-97.996 -56.479)" fill="#eca0a4" style="mix-blend-mode: multiply;isolation: isolate"/>
    <path id="Trazado_158716" data-name="Trazado 158716" d="M316.682,250.394a1.8,1.8,0,0,0-.735.869,4.6,4.6,0,0,0-.224,1.773q.012,2.312.024,4.624a1.167,1.167,0,0,1-.141.691,1.119,1.119,0,0,1-.4.308c-3.255,1.754-6.657,3.468-8.527,6.861-.654,1.187-1.041,2.507-1.7,3.692-.987,1.777-2.535,3.165-3.776,4.774a7.074,7.074,0,0,0,2.437-1.177l9.422-6.155c2.182-1.425,4.486-2.995,5.467-5.408a10.371,10.371,0,0,0,.593-2.394c.357-2.422.816-5.7-.6-7.865a1.554,1.554,0,0,0-1.237-.762A1.215,1.215,0,0,0,316.682,250.394Z" transform="translate(-89.494 -57.063)" fill="#ffc582"/>
    <path id="Trazado_158717" data-name="Trazado 158717" d="M131.061,251.547l-7.512-1.473.046-.429,2.557-1.387,2.286.073,2.425,1.315Z" transform="translate(-28.698 -56.39)" fill="#2b388f" style="mix-blend-mode: multiply;isolation: isolate"/>
    <path id="Trazado_158718" data-name="Trazado 158718" d="M130.9,243.677l-.4.991h-6.527l-.4-.991Z" transform="translate(-28.705 -54.822)" fill="#2b388f" style="mix-blend-mode: multiply;isolation: isolate"/>
    <path id="Trazado_158719" data-name="Trazado 158719" d="M131.051,248.527h-7.944l.392-3.859h7.16Z" transform="translate(-28.547 -55.161)" fill="url(#linear-gradient)"/>
    <g id="Grupo_121046" data-name="Grupo 121046" transform="translate(192.692 133.805)">
      <g id="Grupo_121047" data-name="Grupo 121047" transform="translate(0 0)">
        <g id="Grupo_18423" data-name="Grupo 18423" transform="translate(0 0)">
          <g id="Grupo_18421" data-name="Grupo 18421">
            <g id="Grupo_18420" data-name="Grupo 18420">
              <g id="Grupo_18419" data-name="Grupo 18419">
                <path id="Trazado_40936" data-name="Trazado 40936" d="M239.589,2168.2a22.483,22.483,0,1,1-22.483-22.482A22.483,22.483,0,0,1,239.589,2168.2Z" transform="translate(-194.623 -2145.721)" fill="#fff"/>
              </g>
            </g>
          </g>
          <path id="Trazado_40937" data-name="Trazado 40937" d="M239.869,2168.509a22.483,22.483,0,1,0-22.483,22.484A22.395,22.395,0,0,0,239.869,2168.509Z" transform="translate(-194.903 -2146.026)" fill="url(#radial-gradient-4)"/>
          <path id="Trazado_40938" data-name="Trazado 40938" d="M237.173,2171.137a17.161,17.161,0,1,0-17.161,17.161A17.1,17.1,0,0,0,237.173,2171.137Z" transform="translate(-197.46 -2148.58)" fill="none" stroke="#1d272b" stroke-miterlimit="10" stroke-width="2"/>
          <g id="Grupo_18422" data-name="Grupo 18422" transform="translate(3.983 12.623)">
            <path id="Trazado_40939" data-name="Trazado 40939" d="M239.255,2164.488a22.486,22.486,0,0,1-38.71,22.39,22.414,22.414,0,0,0,38.71-22.39Z" transform="translate(-200.545 -2164.488)" fill="#eceef0"/>
          </g>
        </g>
        <g id="TKvKcl.tif" transform="translate(14.48 12.439)">
          <g id="Grupo_121018" data-name="Grupo 121018" transform="translate(0 0)">
            <path id="Trazado_158642" data-name="Trazado 158642" d="M996.48,26.94a9.4,9.4,0,0,1-1.134-.395,2.908,2.908,0,0,1-.739-.564q-2.522-2.5-5.028-5.023a3.046,3.046,0,0,1-.028-4.385,3.022,3.022,0,0,1,2.269-1.088,1.093,1.093,0,0,0,.868-.384,5.491,5.491,0,0,1,1.983-1.246c.046-.017.089-.038.163-.069a4.568,4.568,0,0,1-2.418-4.143,4.412,4.412,0,0,1,1.634-3.421,4.576,4.576,0,0,1,6.51.649,4.452,4.452,0,0,1,.875,3.925,4.517,4.517,0,0,1-2.523,3.1l1.985,1.178a.75.75,0,0,1,.109-.165q2.081-2.087,4.167-4.169c.383-.383.724-.307.911.2.664,1.815,1.324,3.632,1.995,5.445a.61.61,0,0,1-.163.724q-4.415,4.4-8.818,8.817a3.18,3.18,0,0,1-1.882.986.179.179,0,0,0-.054.029Zm8.923-15.193c-.081.1-.124.167-.179.221q-3.987,3.988-7.975,7.975c-.329.329-.531.329-.864,0-.943-.942-1.884-1.888-2.832-2.826a2.663,2.663,0,0,0-.527-.425,2.1,2.1,0,0,0-2.573.281,2.179,2.179,0,0,0-.222,3.354q2.5,2.521,5.03,5.021a2.413,2.413,0,0,0,.846.545,2.1,2.1,0,0,0,2.326-.587q4.3-4.3,8.594-8.589a.279.279,0,0,0,.08-.347c-.539-1.454-1.07-2.911-1.6-4.367C1005.481,11.935,1005.453,11.872,1005.4,11.747Zm-12.012-1.33c.018.092.03.168.049.243a3.666,3.666,0,0,0,6.875.617c.062-.13.014-.19-.066-.269C999.53,10.3,998.81,9.6,998.1,8.886a.251.251,0,0,0-.313-.06c-1.1.4-2.208.8-3.313,1.2Zm-.068-.948c.1-.035.177-.058.249-.084,1.405-.507,2.813-1.008,4.214-1.525a.61.61,0,0,1,.726.157c.639.645,1.29,1.278,1.937,1.915.052.051.109.1.2.178a3.6,3.6,0,0,0-1.581-3.4,3.486,3.486,0,0,0-3.822-.2A3.593,3.593,0,0,0,993.322,9.47Zm-.016,6.3a33.468,33.468,0,0,1,3.042,2.829V14.614A3.526,3.526,0,0,0,993.307,15.766Zm6.844-.062a4.454,4.454,0,0,0-2.859-1.109v3.965Z" transform="translate(-988.634 -5.153)" fill="#1d272b"/>
            <path id="Trazado_158643" data-name="Trazado 158643" d="M1048.386,309.15c0,.422-.353.642-.647.487a.8.8,0,0,1-.184-.142q-.858-.855-1.711-1.715a.689.689,0,0,1-.174-.261.411.411,0,0,1,.15-.474.423.423,0,0,1,.513-.026.913.913,0,0,1,.164.134c.562.56,1.125,1.119,1.68,1.686A1.689,1.689,0,0,1,1048.386,309.15Z" transform="translate(-1043.217 -294.077)" fill="#1d272b"/>
          </g>
        </g>
      </g>
    </g>
    <g id="Grupo_121047-2" data-name="Grupo 121047" transform="translate(144.969 133.805)">
      <g id="Grupo_18423-2" data-name="Grupo 18423" transform="translate(0 0)">
        <g id="Grupo_18421-2" data-name="Grupo 18421">
          <g id="Grupo_18420-2" data-name="Grupo 18420">
            <g id="Grupo_18419-2" data-name="Grupo 18419">
              <path id="Trazado_40936-2" data-name="Trazado 40936" d="M239.589,2168.2a22.483,22.483,0,1,1-22.483-22.482A22.483,22.483,0,0,1,239.589,2168.2Z" transform="translate(-194.623 -2145.721)" fill="#fff"/>
            </g>
          </g>
        </g>
        <path id="Trazado_40937-2" data-name="Trazado 40937" d="M239.869,2168.509a22.483,22.483,0,1,0-22.483,22.484A22.395,22.395,0,0,0,239.869,2168.509Z" transform="translate(-194.903 -2146.026)" fill="url(#radial-gradient-4)"/>
        <path id="Trazado_40938-2" data-name="Trazado 40938" d="M237.173,2171.137a17.161,17.161,0,1,0-17.161,17.161A17.1,17.1,0,0,0,237.173,2171.137Z" transform="translate(-197.46 -2148.58)" fill="none" stroke="#1d272d" stroke-miterlimit="10" stroke-width="2"/>
        <g id="Grupo_18422-2" data-name="Grupo 18422" transform="translate(3.983 12.623)">
          <path id="Trazado_40939-2" data-name="Trazado 40939" d="M239.255,2164.488a22.486,22.486,0,0,1-38.71,22.39,22.414,22.414,0,0,0,38.71-22.39Z" transform="translate(-200.545 -2164.488)" fill="#eceef0"/>
        </g>
      </g>
      <g id="XNzkG7" transform="translate(10.669 11.61)">
        <g id="Grupo_121017" data-name="Grupo 121017" transform="translate(0)">
          <path id="Trazado_158635" data-name="Trazado 158635" d="M555.432,47.365l2.841,2.843c-.159.148-.34.311-.514.482q-.479.471-.951.95c-.175.179-.209.379-.056.537.429.443.873.87,1.324,1.316.055-.16.1-.307.155-.451a2.627,2.627,0,0,1,2.058-1.77c.757-.151,1.519-.278,2.278-.417.082-.015.164-.034.313-.065-.072-.109-.106-.212-.176-.258a3.866,3.866,0,0,1-1.674-2.334.32.32,0,0,0-.178-.2,1.44,1.44,0,0,1-1.053-1.3c-.03-.469-.021-.942-.013-1.413a18.926,18.926,0,0,1,.071-2.2,4.954,4.954,0,0,1,9.775-.083,5.176,5.176,0,0,1,.077.806q.012,2.294,0,4.588a1.125,1.125,0,0,1-1.221,1.189,1.121,1.121,0,0,0-1.1.439,3.466,3.466,0,0,1-.6.5.845.845,0,0,0-.133.213.744.744,0,0,0,.188.1c.782.146,1.566.276,2.346.431a2.59,2.59,0,0,1,2.059,1.766c.309.871.589,1.753.894,2.663h-8.119l-.029.056.574.464c-.077.091-.1.121-.124.145-.631.58-1.255,1.168-1.9,1.738a2.642,2.642,0,0,1-3.6-.087q-2.641-2.6-5.243-5.244a2.642,2.642,0,0,1,.045-3.738q.775-.781,1.556-1.557C555.351,47.434,555.4,47.4,555.432,47.365Zm6.274,6.088c.446.448.884.88,1.313,1.323a.507.507,0,0,0,.4.17q3.694-.008,7.389,0h.274c-.188-.567-.356-1.1-.543-1.633a1.88,1.88,0,0,0-1.525-1.3c-.721-.133-1.446-.244-2.162-.4a.71.71,0,0,0-.783.241c-.415.465-.874.891-1.325,1.344-.518-.52-1.016-1.025-1.524-1.521a.374.374,0,0,0-.272-.108c-.86.145-1.72.291-2.573.466a1.845,1.845,0,0,0-1.408,1.216,3.293,3.293,0,0,1-.138.392.577.577,0,0,0,.205.84,3.013,3.013,0,0,1,.346.341c.31.312.46.316.78.026Zm-.768-8.821a4.431,4.431,0,0,0,3.807-1.708,4.441,4.441,0,0,0,3.827,1.707c-.055.314,0,.534.37.55,0-.452.014-.905,0-1.357a4.033,4.033,0,0,0-2.368-3.72,3.979,3.979,0,0,0-4.4.462c-1.544,1.174-1.763,2.836-1.593,4.616C560.9,45.084,560.9,45.084,560.938,44.633Zm3.822,4.2h.279c.718,0,1.436,0,2.154,0,.085,0,.216-.043.245-.1a2.242,2.242,0,0,0,.276-.754c.052-.844.052-1.692.072-2.538,0-.012-.017-.025-.031-.044a5.007,5.007,0,0,1-3-1.341,5.411,5.411,0,0,1-3.031,1.359c0,.764,0,1.526,0,2.287a1.3,1.3,0,0,0,.035.275,3.046,3.046,0,0,0,4.055,2.194,8.026,8.026,0,0,0,.895-.476l-.034-.082H564.76ZM560.6,55.508a1.191,1.191,0,0,1-1.8-.178q-1.244-1.246-2.489-2.492a1.486,1.486,0,0,1-.263-.321,1.15,1.15,0,0,1,.158-1.379L554.477,49.4a1.908,1.908,0,0,0-.113,2.949q2.5,2.5,5,5a1.924,1.924,0,0,0,2.974-.109Zm2.8.778-1.746-1.756-.452.414,1.746,1.754Zm-6.245-6.1-1.7-1.7-.369.3L556.8,50.52Zm8.7.779a3.983,3.983,0,0,1-2.215.006l1.109,1.1Zm2.415-2.157c.636.121.752-.195.62-.916-.144.074-.343.11-.4.222A3.371,3.371,0,0,0,568.276,48.806Zm.3-2.9v1.276a.751.751,0,0,0,0-1.276ZM560.9,47.175V45.914A.741.741,0,0,0,560.9,47.175Z" transform="translate(-552.955 -35.088)" fill="#1d272b"/>
          <path id="Trazado_158636" data-name="Trazado 158636" d="M899.559-35.791l.386-2.294h-.918a1.151,1.151,0,0,1-1.247-1.237q0-1.448,0-2.9a1.141,1.141,0,0,1,1.205-1.208q2.618-.005,5.236,0a1.138,1.138,0,0,1,1.2,1.215q0,1.459,0,2.919a1.1,1.1,0,0,1-1.2,1.195,2.742,2.742,0,0,0-1.827.533c-.839.576-1.721,1.09-2.585,1.629C899.74-35.895,899.674-35.858,899.559-35.791Zm1.039-1.544c.494-.309.974-.564,1.4-.887a2.78,2.78,0,0,1,2.168-.624.138.138,0,0,0,.023,0c.319-.006.458-.135.459-.448q0-1.46,0-2.92c0-.317-.136-.449-.456-.449q-2.6,0-5.191,0c-.319,0-.451.136-.452.453q0,1.448,0,2.9c0,.334.13.465.462.467.525,0,1.051,0,1.576,0,.081,0,.163.007.262.011Z" transform="translate(-881.793 43.428)" fill="#1d272b"/>
          <path id="Trazado_158637" data-name="Trazado 158637" d="M568.073-18.551l-.221.713a9.9,9.9,0,0,0-9.035,1.671,9.671,9.671,0,0,0-3.519,5.43l1.013-.6.395.651-2.239,1.344-1.342-2.237.655-.391.7,1.165a10.663,10.663,0,0,1,7.509-7.812A10.315,10.315,0,0,1,568.073-18.551Z" transform="translate(-553.116 20.173)" fill="#1d272b"/>
          <path id="Trazado_158638" data-name="Trazado 158638" d="M977.882,111.333l-.392.656-1.1-.654a10.841,10.841,0,0,1-1.84,10.123c-.118-.094-.212-.168-.306-.244s-.19-.155-.289-.237a9.888,9.888,0,0,0,1.645-9.427l-.646,1.071-.654-.393,1.341-2.237Z" transform="translate(-954.441 -102.879)" fill="#1d272b"/>
          <path id="Trazado_158639" data-name="Trazado 158639" d="M880.606,517.65c-.007-.119-.014-.238-.023-.389.273.12.283.194.111.384Z" transform="translate(-865.394 -491.267)" fill="#1d272b"/>
          <path id="Trazado_158640" data-name="Trazado 158640" d="M935.6-10.1v.726h-4.561V-10.1Z" transform="translate(-913.513 11.647)" fill="#1d272b"/>
          <path id="Trazado_158641" data-name="Trazado 158641" d="M930.943,23.575v-.727h3.033v.727Z" transform="translate(-913.419 -19.775)" fill="#1d272b"/>
        </g>
      </g>
    </g>
    <g id="Grupo_121048" data-name="Grupo 121048" transform="translate(240.416 133.805)">
      <g id="Grupo_18423-3" data-name="Grupo 18423" transform="translate(0 0)">
        <g id="Grupo_18421-3" data-name="Grupo 18421">
          <g id="Grupo_18420-3" data-name="Grupo 18420">
            <g id="Grupo_18419-3" data-name="Grupo 18419">
              <path id="Trazado_40936-3" data-name="Trazado 40936" d="M239.589,2168.2a22.483,22.483,0,1,1-22.483-22.482A22.483,22.483,0,0,1,239.589,2168.2Z" transform="translate(-194.623 -2145.721)" fill="#fff"/>
            </g>
          </g>
        </g>
        <path id="Trazado_40937-3" data-name="Trazado 40937" d="M239.869,2168.509a22.483,22.483,0,1,0-22.483,22.484A22.395,22.395,0,0,0,239.869,2168.509Z" transform="translate(-194.903 -2146.026)" fill="url(#radial-gradient-4)"/>
        <path id="Trazado_40938-3" data-name="Trazado 40938" d="M237.173,2171.137a17.161,17.161,0,1,0-17.161,17.161A17.1,17.1,0,0,0,237.173,2171.137Z" transform="translate(-197.46 -2148.58)" fill="none" stroke="#1d272b" stroke-miterlimit="10" stroke-width="2"/>
        <g id="Grupo_18422-3" data-name="Grupo 18422" transform="translate(3.983 12.623)">
          <path id="Trazado_40939-3" data-name="Trazado 40939" d="M239.255,2164.488a22.486,22.486,0,0,1-38.71,22.39,22.414,22.414,0,0,0,38.71-22.39Z" transform="translate(-200.545 -2164.488)" fill="#eceef0"/>
        </g>
      </g>
      <g id="p8ix17" transform="translate(11.811 13.14)">
        <g id="Grupo_121019" data-name="Grupo 121019">
          <path id="Trazado_158644" data-name="Trazado 158644" d="M1597.929,131.1c0-.547-.005-1.026,0-1.5a1.031,1.031,0,0,1,1.142-1.17q3.88-.01,7.76,0a1.032,1.032,0,0,1,1.144,1.17q.008,3.184,0,6.368a1.016,1.016,0,0,1-1.15,1.156c-.82.01-1.645.05-2.46-.012a.956.956,0,0,0-1.1,1.071c.045,2.461.019,4.923.017,7.385,0,.74-.206.941-.959.941-3.157,0-6.315-.007-9.472.015a1.293,1.293,0,0,0-.781.318c-.6.536-1.143,1.127-1.715,1.69a1.763,1.763,0,1,1-2.49-2.473c1.245-1.252,2.505-2.49,3.735-3.758a1.171,1.171,0,0,0,.3-.736c.02-3.122.013-6.243.013-9.365,0-.941.15-1.094,1.072-1.094Zm-5.328,10c.907-.4,1.814-.832,2.743-1.208.694-.281,1.451.3,1.205.957a7.168,7.168,0,0,1-1.6,3.094c-.624.567-1.2,1.189-1.861,1.852h9.514V138.51c-.393-.1-.831-.081-1.043-.292a3.079,3.079,0,0,1-.428-1.093c-.59,0-1.23,0-1.87,0-1.021,0-1.332-.319-1.334-1.35q0-.616,0-1.231v-2.731H1592.6Zm9.381-3.369.146.08c.331-.329.677-.644.987-.991a1.043,1.043,0,0,1,.885-.373c.891.026,1.784-.014,2.674.017.506.018.648-.19.644-.662-.016-2.015-.019-4.03,0-6.045.005-.522-.191-.679-.694-.675-2.443.018-4.886.007-7.329.009-.646,0-.7.055-.7.7q0,2.942,0,5.885c0,.767.012.777.78.778h2.607Zm-11.836,7.86,3.535-3.535-.35-.382-3.569,3.574Zm4.2-2.889-3.548,3.548.385.367,3.516-3.482Zm-6.147,4.014a1.049,1.049,0,0,0,1.464,1.5Zm2.5.5-1.539-1.537-.406.407,1.535,1.543Zm4.43-4.708c.38-.737.4-.764-.372-1.358-.18-.138-.556-.02-.841-.02l0,.162Z" transform="translate(-1586.93 -128.425)" fill="#1d272b"/>
          <path id="Trazado_158645" data-name="Trazado 158645" d="M1737,219.638h-1.646v.608q0,3.049,0,6.1c0,.786-.192.976-.979.979-.994,0-1.989,0-3,0v-.672h3.266v-7.014h-1.594l1.977-2.962Zm-1.973-1.76-.675,1.021h1.35Z" transform="translate(-1715.654 -207.228)" fill="#1d272b"/>
          <path id="Trazado_158646" data-name="Trazado 158646" d="M1584.512,142.356h1.639v-.629q0-3.024,0-6.047c0-.857.168-1.019,1.043-1.021.746,0,1.492,0,2.268,0v.665h-2.6v7.023h1.59l-1.972,2.961Zm1.274.7.694,1.039.689-1.039Z" transform="translate(-1584.512 -133.991)" fill="#1d272b"/>
          <path id="Trazado_158647" data-name="Trazado 158647" d="M1664.274,129.462a1.006,1.006,0,1,1-.991-.994A1.035,1.035,0,0,1,1664.274,129.462Zm-.545.046c-.21-.168-.339-.349-.45-.339a.492.492,0,0,0-.32.314c-.021.071.169.286.273.293C1663.36,129.783,1663.5,129.641,1663.729,129.508Z" transform="translate(-1653.938 -128.463)" fill="#1d272b"/>
          <path id="Trazado_158648" data-name="Trazado 158648" d="M1637.249,129.476a1.007,1.007,0,1,1,.981,1.006A1.028,1.028,0,0,1,1637.249,129.476Zm1.012-.464c-.154.219-.306.343-.312.474,0,.1.195.305.272.291a.476.476,0,0,0,.336-.289C1638.575,129.375,1638.409,129.233,1638.261,129.011Z" transform="translate(-1631.604 -128.465)" fill="#1d272b"/>
          <path id="Trazado_158649" data-name="Trazado 158649" d="M1708.123,304.549a1.042,1.042,0,0,1-.979,1.009,1.006,1.006,0,0,1-.057-2.011A1.029,1.029,0,0,1,1708.123,304.549Zm-1.019-.45c-.142.214-.3.345-.3.478,0,.1.2.2.3.3.106-.116.272-.22.3-.352C1707.427,304.428,1707.256,304.3,1707.1,304.1Z" transform="translate(-1693.102 -284.799)" fill="#1d272b"/>
          <path id="Trazado_158650" data-name="Trazado 158650" d="M1683.113,304.546a1.042,1.042,0,0,1-.976,1.012,1.006,1.006,0,0,1-.063-2.011A1.029,1.029,0,0,1,1683.113,304.546Zm-.556.069c-.2-.18-.306-.353-.432-.368-.1-.013-.229.163-.345.254.1.124.178.3.307.352C1682.172,304.886,1682.329,304.737,1682.557,304.614Z" transform="translate(-1670.769 -284.799)" fill="#1d272b"/>
          <path id="Trazado_158651" data-name="Trazado 158651" d="M1658.1,304.55a1.043,1.043,0,0,1-.981,1.008,1.006,1.006,0,0,1-.055-2.011A1.03,1.03,0,0,1,1658.1,304.55Zm-.989-.448c-.156.2-.318.321-.33.454-.009.1.2.31.28.294a.5.5,0,0,0,.328-.307C1657.416,304.45,1657.252,304.308,1657.114,304.1Z" transform="translate(-1648.436 -284.799)" fill="#1d272b"/>
          <path id="Trazado_158652" data-name="Trazado 158652" d="M1688.147,310.449c-.228.123-.385.272-.47.238-.129-.051-.207-.228-.307-.352.116-.092.242-.267.345-.254" transform="translate(-1676.359 -290.633)" fill="#1d272b"/>
          <path id="Trazado_158653" data-name="Trazado 158653" d="M1681.344,232.762v-4H1686c0,1.253.007,2.479-.012,3.705a.4.4,0,0,1-.275.28C1684.275,232.767,1682.833,232.762,1681.344,232.762Zm3.955-3.324h-3.279v2.6h3.279Z" transform="translate(-1670.978 -218.023)" fill="#1d272b"/>
          <path id="Trazado_158654" data-name="Trazado 158654" d="M1664.749,272.3c.579-.41.7-.388,1.366.3a.652.652,0,0,0,.425.117c.96.01,1.92.005,2.92.005v.628h-3.95l-.1-.7-1.01.92-.6-.962-.374.875-.565-.184c.1-.491.146-1.019.663-1.154A3.771,3.771,0,0,1,1664.749,272.3Z" transform="translate(-1654.475 -256.653)" fill="#1d272b"/>
          <path id="Trazado_158655" data-name="Trazado 158655" d="M1647.832,178.819v.58h-3.972v-.58Z" transform="translate(-1637.506 -173.424)" fill="#1d272b"/>
          <path id="Trazado_158656" data-name="Trazado 158656" d="M1643.8,216.415h3.965l.028.593H1643.8Z" transform="translate(-1637.457 -206.995)" fill="#1d272b"/>
          <path id="Trazado_158657" data-name="Trazado 158657" d="M1643.737,167.09v-.576h1.954l.028.576Z" transform="translate(-1637.397 -162.437)" fill="#1d272b"/>
          <path id="Trazado_158658" data-name="Trazado 158658" d="M1662.54,203.748h1.957c.011.192.021.364.035.587h-1.991Z" transform="translate(-1654.187 -195.685)" fill="#1d272b"/>
          <path id="Trazado_158659" data-name="Trazado 158659" d="M1645.475,192.089h-1.983l-.029-.6h1.984C1645.456,191.661,1645.464,191.847,1645.475,192.089Z" transform="translate(-1637.153 -184.737)" fill="#1d272b"/>
          <path id="Trazado_158660" data-name="Trazado 158660" d="M1668.739,167.091V166.5h1.286v.588Z" transform="translate(-1659.722 -162.427)" fill="#1d272b"/>
          <path id="Trazado_158661" data-name="Trazado 158661" d="M1668.874,191.374h1.279v.591h-1.279Z" transform="translate(-1659.843 -184.635)" fill="#1d272b"/>
          <path id="Trazado_158662" data-name="Trazado 158662" d="M1645.158,203.847v.595h-1.278v-.595Z" transform="translate(-1637.525 -195.773)" fill="#1d272b"/>
          <path id="Trazado_158663" data-name="Trazado 158663" d="M1726.051,141.064c.831,0,1.026.211.928,1.02-.063.528-.143,1.054-.221,1.58-.065.437-.294.744-.762.729-.437-.014-.649-.314-.708-.73-.071-.509-.149-1.018-.214-1.528C1724.962,141.264,1725.151,141.061,1726.051,141.064Zm-.361.687.276,1.821.122-.007.257-1.814Z" transform="translate(-1710 -139.711)" fill="#1d272b"/>
          <path id="Trazado_158664" data-name="Trazado 158664" d="M1725.9,178.485a1.005,1.005,0,1,1-.987,1.037A1,1,0,0,1,1725.9,178.485Zm.459.968c-.228-.129-.369-.27-.5-.261-.1.007-.282.246-.256.31a.529.529,0,0,0,.35.288C1726.051,179.8,1726.172,179.621,1726.364,179.453Z" transform="translate(-1709.887 -173.126)" fill="#1d272b"/>
        </g>
      </g>
    </g>
    <g id="Grupo_121049" data-name="Grupo 121049" transform="translate(132.13 100.845)">
      <path id="Trazado_151907" data-name="Trazado 151907" d="M337.115,236.244H314.857a6.532,6.532,0,0,0-6.532,6.532v10.638a6.532,6.532,0,0,0,6.532,6.532h.748l-1.514,2.14a.851.851,0,0,0,1.027,1.275l7.1-3.007a5.139,5.139,0,0,1,2-.408h12.893a6.531,6.531,0,0,0,6.532-6.532V242.776A6.532,6.532,0,0,0,337.115,236.244Z" transform="translate(-308.325 -236.244)" fill="#d93328"/>
      <path id="Trazado_151908" data-name="Trazado 151908" d="M341.053,247.376H314.687a1.133,1.133,0,0,1-1.133-1.133h0a1.133,1.133,0,0,1,1.133-1.133h26.366a1.133,1.133,0,0,1,1.133,1.133h0A1.133,1.133,0,0,1,341.053,247.376Z" transform="translate(-310.209 -239.438)" fill="#ededed"/>
      <path id="Trazado_151909" data-name="Trazado 151909" d="M341.053,255.265H314.687a1.133,1.133,0,0,1-1.133-1.133h0A1.133,1.133,0,0,1,314.687,253h26.366a1.133,1.133,0,0,1,1.133,1.133h0A1.133,1.133,0,0,1,341.053,255.265Z" transform="translate(-310.209 -242.281)" fill="#ededed"/>
      <path id="Trazado_151910" data-name="Trazado 151910" d="M329.509,263.153H314.687a1.133,1.133,0,0,1-1.133-1.133h0a1.133,1.133,0,0,1,1.133-1.133h14.822a1.133,1.133,0,0,1,1.133,1.133h0A1.133,1.133,0,0,1,329.509,263.153Z" transform="translate(-310.209 -245.123)" fill="#ededed"/>
    </g>
    <g id="Grupo_130122" data-name="Grupo 130122" transform="translate(132.969 237.126)">
      <path id="Trazado_158750" data-name="Trazado 158750" d="M1329.8,298.941l-174.607-.4,33.42-12.956h108.9Z" transform="translate(-1152.202 -285.586)" fill="#443b2c"/>
      <rect id="Rectángulo_34300" data-name="Rectángulo 34300" width="167.963" height="38.801" transform="translate(6.312 16.942)" fill="#443b2c"/>
      <path id="Rectángulo_34301" data-name="Rectángulo 34301" d="M0,0H174.209a0,0,0,0,1,0,0V3.079a4.745,4.745,0,0,1-4.745,4.745H4.745A4.745,4.745,0,0,1,0,3.079V0A0,0,0,0,1,0,0Z" transform="translate(3.189 13.097)" fill="#272015"/>
      <path id="Rectángulo_34302" data-name="Rectángulo 34302" d="M4.745,0H169.464a4.745,4.745,0,0,1,4.745,4.745V7.823a0,0,0,0,1,0,0H0a0,0,0,0,1,0,0V4.745A4.745,4.745,0,0,1,4.745,0Z" transform="translate(3.189 53.56)" fill="#26251f"/>
      <path id="Trazado_158751" data-name="Trazado 158751" d="M1330.673,297.672h-176.6a1.7,1.7,0,0,0-1.694,1.694h0a1.7,1.7,0,0,0,1.694,1.694h176.6a1.7,1.7,0,0,0,1.694-1.694h0A1.7,1.7,0,0,0,1330.673,297.672Z" transform="translate(-1152.08 -286.111)" fill="#332c21"/>
      <rect id="Rectángulo_34303" data-name="Rectángulo 34303" width="180.587" height="3.787" transform="translate(0 58.8)" fill="#332c21"/>
      <path id="Trazado_158752" data-name="Trazado 158752" d="M1321.744,320.8H1163.88a1.4,1.4,0,0,0-1.4,1.4h0a1.4,1.4,0,0,0,1.4,1.395h157.864a1.4,1.4,0,0,0,1.4-1.395h0A1.4,1.4,0,0,0,1321.744,320.8Z" transform="translate(-1152.518 -287.114)" fill="#272015"/>
      <g id="Grupo_121059" data-name="Grupo 121059" transform="translate(24.517 26.51)">
        <path id="Trazado_158753" data-name="Trazado 158753" d="M1311.557,313.3H1293.22a2.6,2.6,0,0,0-2.591,2.591h0a2.6,2.6,0,0,0,2.591,2.591h18.337a2.6,2.6,0,0,0,2.592-2.591h0A2.6,2.6,0,0,0,1311.557,313.3Z" transform="translate(-1182.596 -313.299)" opacity="0.36"/>
        <rect id="Rectángulo_34304" data-name="Rectángulo 34304" width="1.927" height="8.172" transform="translate(125.706 2.259)" fill="#ffd56c"/>
        <rect id="Rectángulo_34305" data-name="Rectángulo 34305" width="1.927" height="8.172" transform="translate(112.218 2.259)" fill="#ffd56c"/>
        <path id="Trazado_158754" data-name="Trazado 158754" d="M1254.675,313.3h-18.338a2.6,2.6,0,0,0-2.59,2.591h0a2.6,2.6,0,0,0,2.59,2.591h18.338a2.6,2.6,0,0,0,2.59-2.591h0A2.6,2.6,0,0,0,1254.675,313.3Z" transform="translate(-1180.128 -313.299)" opacity="0.36"/>
        <rect id="Rectángulo_34306" data-name="Rectángulo 34306" width="1.927" height="8.172" transform="translate(71.291 2.259)" fill="#ffd56c"/>
        <rect id="Rectángulo_34307" data-name="Rectángulo 34307" width="1.927" height="8.172" transform="translate(57.803 2.259)" fill="#ffd56c"/>
        <path id="Trazado_158755" data-name="Trazado 158755" d="M1198.624,313.3h-18.338a2.6,2.6,0,0,0-2.59,2.591h0a2.6,2.6,0,0,0,2.59,2.591h18.338a2.6,2.6,0,0,0,2.592-2.591h0A2.6,2.6,0,0,0,1198.624,313.3Z" transform="translate(-1177.696 -313.299)" opacity="0.36"/>
        <rect id="Rectángulo_34308" data-name="Rectángulo 34308" width="1.927" height="8.172" transform="translate(17.673 2.259)" fill="#ffd56c"/>
        <rect id="Rectángulo_34309" data-name="Rectángulo 34309" width="1.927" height="8.172" transform="translate(4.185 2.259)" fill="#ffd56c"/>
      </g>
      <path id="Trazado_158756" data-name="Trazado 158756" d="M1328.891,320.765h-6.275v2.79h6.275a1.4,1.4,0,1,0,0-2.79Z" transform="translate(-1159.466 -287.113)" fill="#ffd56c"/>
      <path id="Trazado_158757" data-name="Trazado 158757" d="M1163.571,320.765h6.274v2.79h-6.274a1.4,1.4,0,0,1,0-2.79Z" transform="translate(-1152.505 -287.113)" fill="#ffd56c"/>
      <path id="Trazado_158758" data-name="Trazado 158758" d="M1312.463,291.367l-13.976-5.78h-108.9l-14.91,5.78Z" transform="translate(-1153.047 -285.586)" fill="#443b2c" opacity="0.27"/>
    </g>
    <g id="Grupo_130123" data-name="Grupo 130123" transform="translate(200.025 234.81)">
      <g id="Grupo_91665" data-name="Grupo 91665" transform="translate(0.311)">
        <path id="Trazado_151011" data-name="Trazado 151011" d="M369.53,374.641c.458.263.86-.542,2.082.831s7.258,3.38,10.407,4.155,10.612-1.395,15.8-6.122,6.1-7.217,6.98-10.751.928-7.759,1.221-8.93-1.335-1.751-1.516-3.086-.413-.841-1.478-1.66-2.035-4.674-3.063-6.08-5.719-4.666-7.323-5.589-1.519-.324-2.754-.958-1.082-.211-1.755.388-1.908-.985-1.908-.985l-1.263-.665a4.469,4.469,0,0,0-1.942.833c-1.11.764-1.9.126-3.787.017s-5.312,1.821-9.085,3.613-7.375,8.8-8.664,10.619.06,7.1.743,11.639,4.917,9.042,5.584,9.791S369.072,374.377,369.53,374.641Zm6.994-18.526s-.155-3.44,1.966-5.328,3.716-2.861,3.9-1.9.4,1.207,1.027.651,2.649-.793,2.705.276.126,1.9.126,1.9a2.906,2.906,0,0,1,1.984.471c.791.638,1.693,1.4,1.292,2.2s-.554,1.388-.221,1.762,2.054,1.3.682,2.524-2.594,1.861-3.383,3.235-1.3,2.054-3.786,2.028S375.917,360.458,376.524,356.115Z" transform="translate(-360.944 -335.189)" fill="#008f85"/>
      </g>
      <path id="Trazado_151012" data-name="Trazado 151012" d="M407.447,370.368c1.372-1.221-.348-2.15-.682-2.524s-.181-.957.221-1.762-.5-1.567-1.292-2.2a2.906,2.906,0,0,0-1.984-.471s-.07-.832-.126-1.9-2.081-.831-2.705-.276-.846.306-1.027-.652-1.776.015-3.9,1.9c0,0,1.823-2.852,3.105-3.547s2.012,0,2.886.227,2.518.442,3.136,1.01a11.921,11.921,0,0,0,1.867,1.469,5.455,5.455,0,0,1,1.076.832c.451.381.749.339,1.111,1.247s1.207.6,1.09,1.6a2.821,2.821,0,0,0,.188,1.845c.215.367.847.7.806,1.407s.582.152.153,1.429-.082,1.415-.221,1.762S407.447,370.368,407.447,370.368Z" transform="translate(-378.098 -346.884)" fill="#333" opacity="0.26"/>
      <path id="Trazado_151013" data-name="Trazado 151013" d="M368.553,345.439s-.985-.353-2.247.994c-.4.427-1.144,1.206-1.975,2.1-1.783,1.925-3.965,4.4-4.007,5.122-.062,1.061,8.139,13.666,20.289,20.408s22.952,9.2,27.4,5.913c2.921-2.16,4.481-6.335,4.939-10.922a31.524,31.524,0,0,0-.151-7.317s-.07-.832-2.513-2.572a40.869,40.869,0,0,0-6.1-3.336,12.417,12.417,0,0,0,1.035,1.917,3.2,3.2,0,0,1,.341,2.268s1.243-.139,1.236,2.142c-.005,1.878-1.3,1.936-4.84,1.848-1.054-.026-2.448-.016-4.078-.049-8.874-.179-24.738-1.636-30.832-17.186Z" transform="translate(-360.324 -340.281)" fill="#444a59"/>
      <path id="Trazado_151014" data-name="Trazado 151014" d="M435.275,376.25c1.63.033,3.024.023,4.078.049,3.545.088,4.835.03,4.84-1.848.007-2.281-1.236-2.142-1.236-2.142a3.2,3.2,0,0,0-.341-2.268s3.738,1.845,2.455,4.832-2.272,2.441-3.208,2.52A62.176,62.176,0,0,1,435.275,376.25Z" transform="translate(-397.712 -352.574)" fill="#333" opacity="0.26"/>
      <path id="Trazado_151015" data-name="Trazado 151015" d="M412.957,372.178c-.458,4.587-2.018,8.763-4.939,10.922-4.451,3.291-15.253.828-27.4-5.913s-20.351-19.346-20.289-20.408c.042-.724,2.224-3.2,4.007-5.122,0,0,19.455,28.968,45.421,21.959Z" transform="translate(-360.324 -343.404)" fill="#333" opacity="0.26"/>
      <g id="Grupo_91674" data-name="Grupo 91674" transform="translate(3.192 0.519)">
        <g id="Grupo_91666" data-name="Grupo 91666" transform="translate(0 0.501)" opacity="0.12" style="mix-blend-mode: multiply;isolation: isolate">
          <path id="Trazado_151016" data-name="Trazado 151016" d="M418.876,349.8a.835.835,0,1,0,.068-1.179A.835.835,0,0,0,418.876,349.8Z" transform="translate(-392.618 -342.804)"/>
          <path id="Trazado_151017" data-name="Trazado 151017" d="M419.483,355.609a.214.214,0,1,0,.045-.264A.192.192,0,0,0,419.483,355.609Z" transform="translate(-393.009 -346.233)"/>
          <path id="Trazado_151018" data-name="Trazado 151018" d="M412.515,347.993a.418.418,0,1,0,.035-.59A.418.418,0,0,0,412.515,347.993Z" transform="translate(-389.498 -342.249)"/>
          <path id="Trazado_151019" data-name="Trazado 151019" d="M416.512,357.75a.42.42,0,1,0,.062-.558A.4.4,0,0,0,416.512,357.75Z" transform="translate(-391.501 -347.127)"/>
          <path id="Trazado_151020" data-name="Trazado 151020" d="M407.647,349.376a.551.551,0,1,0,.1-.7A.507.507,0,0,0,407.647,349.376Z" transform="translate(-387.072 -342.857)"/>
          <path id="Trazado_151021" data-name="Trazado 151021" d="M373.287,386.943c.2.224.487.294.642.156s.119-.432-.08-.655-.487-.294-.641-.156S373.088,386.719,373.287,386.943Z" transform="translate(-369.895 -361.663)"/>
          <path id="Trazado_151022" data-name="Trazado 151022" d="M369.286,390.93c.107.121.334.094.506-.059s.225-.375.118-.5a.372.372,0,0,0-.507.059C369.231,390.587,369.178,390.809,369.286,390.93Z" transform="translate(-367.959 -363.7)"/>
          <path id="Trazado_151023" data-name="Trazado 151023" d="M373.164,393.176a.673.673,0,1,0,0-1.006A.715.715,0,0,0,373.164,393.176Z" transform="translate(-369.818 -364.556)"/>
          <path id="Trazado_151024" data-name="Trazado 151024" d="M366.859,381.922a.432.432,0,1,0-.049-.684A.493.493,0,0,0,366.859,381.922Z" transform="translate(-366.694 -359.137)"/>
          <path id="Trazado_151025" data-name="Trazado 151025" d="M380.921,351.577a.261.261,0,1,0-.035-.416A.3.3,0,0,0,380.921,351.577Z" transform="translate(-373.74 -344.151)"/>
          <path id="Trazado_151026" data-name="Trazado 151026" d="M383.841,354.625a.805.805,0,1,0,.148-1.026A.739.739,0,0,0,383.841,354.625Z" transform="translate(-375.174 -345.279)"/>
          <path id="Trazado_151027" data-name="Trazado 151027" d="M380.505,356.821a.3.3,0,1,0,0-.444A.315.315,0,0,0,380.505,356.821Z" transform="translate(-373.537 -346.745)"/>
          <path id="Trazado_151028" data-name="Trazado 151028" d="M385.671,362.822a.337.337,0,1,0,.055-.44A.315.315,0,0,0,385.671,362.822Z" transform="translate(-376.127 -349.727)"/>
          <path id="Trazado_151029" data-name="Trazado 151029" d="M374.861,399s-3.081-1.954-3.136-1.01,2.11,2.37,1.362,3.037-1.539,2.04-.956,2.193a1.747,1.747,0,0,1,1.471,1.151c.306.846,1.667,3.883,2.568,2.634a4.042,4.042,0,0,0,.525-2.928s2.6,2.163,2.887,1.233-.806-2.413-.806-2.413,2.636-.557,1.511-1.569a2.5,2.5,0,0,0-2.456-.5s1.275-1.582.359-2.109-2.178.82-2.178.82Z" transform="translate(-369.203 -367.409)"/>
          <path id="Trazado_151030" data-name="Trazado 151030" d="M377.386,402.613s-1.393-.884-1.417-.457.954,1.072.615,1.373-.7.923-.432.991a.789.789,0,0,1,.665.52c.138.382.754,1.756,1.161,1.191a1.827,1.827,0,0,0,.238-1.324s1.174.978,1.305.557-.364-1.091-.364-1.091,1.191-.252.683-.709a1.13,1.13,0,0,0-1.11-.225s.576-.715.162-.953-.985.37-.985.37Z" transform="translate(-371.32 -369.556)" opacity="0.17"/>
          <path id="Trazado_151031" data-name="Trazado 151031" d="M399.747,416.684s-1.4-2.33-.071-2.844,3.108,1.482,3.108,1.482a4.965,4.965,0,0,1,2.039-.473c.943.055,2.539,1.094,2.027,1.775a11.045,11.045,0,0,1-1.262,1.346s2.179,1.192,2.138,1.9-3.593.738-3.593.738-.942,1.957-2.343,1.638-1.486-2.926-1.486-2.926-3.094.293-2.665-.983A3.078,3.078,0,0,1,399.747,416.684Z" transform="translate(-382.11 -375.4)"/>
          <path id="Trazado_151032" data-name="Trazado 151032" d="M403.688,419.268s-.7-1.166-.036-1.423,1.555.742,1.555.742a2.481,2.481,0,0,1,1.02-.237c.472.028,1.27.547,1.014.888a5.569,5.569,0,0,1-.631.674s1.09.6,1.069.95-1.8.369-1.8.369-.471.979-1.172.82-.744-1.464-.744-1.464-1.548.147-1.333-.492A1.539,1.539,0,0,1,403.688,419.268Z" transform="translate(-384.612 -377.419)" opacity="0.17"/>
          <path id="Trazado_151033" data-name="Trazado 151033" d="M426.509,353.247s.137-2.358,1.108-2.775,2.457,2.51,2.153,3.675c0,0,4.078-.946,3.635.566a3.736,3.736,0,0,1-1.663,2.151s2.442.734,1.569,1.512a8.347,8.347,0,0,1-1.483,1.1s.043,1.3-.8,1.61-2.359-1.144-2.359-1.144a1.345,1.345,0,0,1-1.622.439c-1.041-.415-1.764-2.232-1.764-2.232s-.193,1.29-1.415-.082.081-3.427.081-3.427S424.5,351.237,426.509,353.247Z" transform="translate(-394.951 -343.813)"/>
          <path id="Trazado_151034" data-name="Trazado 151034" d="M430.1,357.44s.072-1.239.582-1.458,1.291,1.319,1.131,1.931c0,0,2.142-.5,1.91.3a1.962,1.962,0,0,1-.874,1.13s1.283.386.824.794a4.388,4.388,0,0,1-.779.576s.023.685-.422.846-1.24-.6-1.24-.6a.705.705,0,0,1-.852.231c-.547-.219-.927-1.173-.927-1.173s-.1.678-.743-.043.043-1.8.043-1.8S429.046,356.384,430.1,357.44Z" transform="translate(-397.495 -346.571)" opacity="0.17"/>
          <path id="Trazado_151035" data-name="Trazado 151035" d="M392.985,339.053s4.357.371,3.081,1.954-1.858,1.43-1.858,1.43,1.915,1.649.654,3-3.164-.539-3.164-.539a1.486,1.486,0,0,1-1,.889c-.846.306-2.261.224-2.581-.387a3.189,3.189,0,0,1-.015-1.776s-1.332.514-1.762-.221-.736-1.581-.237-2.025a1.842,1.842,0,0,1,1.207-.4s-1.333-1.5-.945-2.067.332-1.637,1.636-1.679,2.4,1.441,2.4,1.441a1.718,1.718,0,0,1,1.248-1.111C392.609,337.374,392.985,339.053,392.985,339.053Z" transform="translate(-376.248 -337.224)"/>
          <path id="Trazado_151036" data-name="Trazado 151036" d="M394.643,342.553s2.063.176,1.459.925-.88.677-.88.677.907.781.31,1.419-1.5-.256-1.5-.256a.7.7,0,0,1-.473.421c-.4.145-1.07.106-1.222-.183a1.507,1.507,0,0,1-.007-.84s-.63.244-.834-.1-.348-.748-.112-.959a.873.873,0,0,1,.571-.191s-.631-.709-.447-.978.157-.775.774-.8,1.137.683,1.137.683a.814.814,0,0,1,.591-.526C394.465,341.758,394.643,342.553,394.643,342.553Z" transform="translate(-378.95 -339.451)" opacity="0.17"/>
          <path id="Trazado_151037" data-name="Trazado 151037" d="M427.366,375.177a.438.438,0,1,0,.036-.619A.438.438,0,0,0,427.366,375.177Z" transform="translate(-396.904 -355.792)"/>
          <path id="Trazado_151038" data-name="Trazado 151038" d="M440.522,373.123a.376.376,0,1,0,.031-.531A.376.376,0,0,0,440.522,373.123Z" transform="translate(-403.474 -354.819)"/>
          <path id="Trazado_151039" data-name="Trazado 151039" d="M432.089,375.423a.564.564,0,1,0,.046-.8A.564.564,0,0,0,432.089,375.423Z" transform="translate(-399.244 -355.81)"/>
          <path id="Trazado_151040" data-name="Trazado 151040" d="M439.642,376.7a.331.331,0,1,0-.007-.539A.393.393,0,0,0,439.642,376.7Z" transform="translate(-403.028 -356.624)"/>
          <path id="Trazado_151041" data-name="Trazado 151041" d="M393.877,406.475a.313.313,0,1,0,.443-.006A.313.313,0,0,0,393.877,406.475Z" transform="translate(-380.21 -371.722)"/>
          <path id="Trazado_151042" data-name="Trazado 151042" d="M392.327,413.064a.318.318,0,1,0-.016-.489A.35.35,0,0,0,392.327,413.064Z" transform="translate(-379.427 -374.777)"/>
          <path id="Trazado_151043" data-name="Trazado 151043" d="M395.928,411.3a.442.442,0,1,0-.005-.666A.473.473,0,0,0,395.928,411.3Z" transform="translate(-381.207 -373.792)"/>
          <path id="Trazado_151044" data-name="Trazado 151044" d="M404.806,409.5a.251.251,0,1,0,.021-.354A.251.251,0,0,0,404.806,409.5Z" transform="translate(-385.674 -373.07)"/>
        </g>
        <g id="Grupo_91673" data-name="Grupo 91673">
          <g id="Grupo_91672" data-name="Grupo 91672">
            <g id="Grupo_91667" data-name="Grupo 91667" transform="translate(0 5.048)">
              <path id="Trazado_151045" data-name="Trazado 151045" d="M418.876,348.8a.835.835,0,1,0,.068-1.179A.835.835,0,0,0,418.876,348.8Z" transform="translate(-392.618 -346.853)" fill="#f9f4e1"/>
              <path id="Trazado_151046" data-name="Trazado 151046" d="M419.483,354.609a.214.214,0,1,0,.045-.264A.192.192,0,0,0,419.483,354.609Z" transform="translate(-393.009 -350.281)" fill="#f9f4e1"/>
              <path id="Trazado_151047" data-name="Trazado 151047" d="M412.515,346.993a.418.418,0,1,0,.035-.59A.418.418,0,0,0,412.515,346.993Z" transform="translate(-389.498 -346.297)" fill="#f9f4e1"/>
              <path id="Trazado_151048" data-name="Trazado 151048" d="M416.512,356.75a.42.42,0,1,0,.062-.558A.4.4,0,0,0,416.512,356.75Z" transform="translate(-391.501 -351.176)" fill="#f9f4e1"/>
              <path id="Trazado_151049" data-name="Trazado 151049" d="M407.647,348.376a.551.551,0,1,0,.1-.7A.507.507,0,0,0,407.647,348.376Z" transform="translate(-387.072 -346.906)" fill="#f9f4e1"/>
              <path id="Trazado_151050" data-name="Trazado 151050" d="M373.287,385.943c.2.224.487.294.642.156s.119-.432-.08-.656-.487-.294-.641-.156S373.088,385.719,373.287,385.943Z" transform="translate(-369.895 -365.712)" fill="#f9f4e1"/>
              <path id="Trazado_151051" data-name="Trazado 151051" d="M369.286,389.93c.107.121.334.094.506-.059s.225-.375.118-.5a.372.372,0,0,0-.507.059C369.231,389.587,369.178,389.809,369.286,389.93Z" transform="translate(-367.959 -367.748)" fill="#f9f4e1"/>
              <path id="Trazado_151052" data-name="Trazado 151052" d="M373.164,392.176a.673.673,0,1,0,0-1.006A.715.715,0,0,0,373.164,392.176Z" transform="translate(-369.818 -368.604)" fill="#f9f4e1"/>
              <path id="Trazado_151053" data-name="Trazado 151053" d="M366.859,380.922a.432.432,0,1,0-.049-.684A.493.493,0,0,0,366.859,380.922Z" transform="translate(-366.694 -363.185)" fill="#f9f4e1"/>
              <path id="Trazado_151054" data-name="Trazado 151054" d="M380.921,350.577a.261.261,0,1,0-.035-.416A.3.3,0,0,0,380.921,350.577Z" transform="translate(-373.74 -348.199)" fill="#f9f4e1"/>
              <path id="Trazado_151055" data-name="Trazado 151055" d="M383.841,353.625a.805.805,0,1,0,.148-1.026A.739.739,0,0,0,383.841,353.625Z" transform="translate(-375.174 -349.327)" fill="#f9f4e1"/>
              <path id="Trazado_151056" data-name="Trazado 151056" d="M380.505,355.821a.3.3,0,1,0,0-.444A.315.315,0,0,0,380.505,355.821Z" transform="translate(-373.537 -350.793)" fill="#f9f4e1"/>
              <path id="Trazado_151057" data-name="Trazado 151057" d="M385.671,361.822a.337.337,0,1,0,.055-.441A.315.315,0,0,0,385.671,361.822Z" transform="translate(-376.127 -353.775)" fill="#f9f4e1"/>
            </g>
            <g id="Grupo_91668" data-name="Grupo 91668" transform="translate(2.521 30.326)">
              <path id="Trazado_151058" data-name="Trazado 151058" d="M374.861,398s-3.081-1.954-3.136-1.01,2.11,2.371,1.362,3.037-1.539,2.04-.956,2.193a1.747,1.747,0,0,1,1.471,1.151c.306.846,1.667,3.883,2.568,2.634a4.042,4.042,0,0,0,.525-2.928s2.6,2.163,2.887,1.233-.806-2.413-.806-2.413,2.636-.557,1.511-1.569a2.5,2.5,0,0,0-2.456-.5s1.275-1.582.359-2.109-2.178.82-2.178.82Z" transform="translate(-371.724 -396.735)" fill="#f7b242"/>
              <path id="Trazado_151059" data-name="Trazado 151059" d="M377.386,401.613s-1.393-.884-1.417-.457.954,1.072.615,1.373-.7.923-.432.991a.789.789,0,0,1,.665.52c.138.382.754,1.756,1.161,1.191a1.827,1.827,0,0,0,.238-1.324s1.174.978,1.305.557-.364-1.091-.364-1.091,1.191-.252.683-.709a1.13,1.13,0,0,0-1.11-.225s.576-.715.162-.953-.985.37-.985.37Z" transform="translate(-373.841 -398.883)" fill="#333" opacity="0.17"/>
            </g>
            <g id="Grupo_91669" data-name="Grupo 91669" transform="translate(15.488 38.355)">
              <path id="Trazado_151060" data-name="Trazado 151060" d="M399.747,415.684s-1.4-2.33-.071-2.844,3.108,1.482,3.108,1.482a4.965,4.965,0,0,1,2.039-.473c.943.055,2.539,1.094,2.027,1.775a11.047,11.047,0,0,1-1.262,1.346s2.179,1.192,2.138,1.9-3.593.738-3.593.738-.942,1.957-2.343,1.638-1.486-2.926-1.486-2.926-3.094.293-2.665-.983A3.078,3.078,0,0,1,399.747,415.684Z" transform="translate(-397.599 -412.755)" fill="#f7b242"/>
              <path id="Trazado_151061" data-name="Trazado 151061" d="M403.688,418.268s-.7-1.166-.036-1.423,1.555.742,1.555.742a2.482,2.482,0,0,1,1.02-.237c.472.028,1.27.547,1.014.888a5.566,5.566,0,0,1-.631.674s1.09.6,1.069.95-1.8.369-1.8.369-.471.979-1.172.82-.744-1.464-.744-1.464-1.548.147-1.333-.492A1.539,1.539,0,0,1,403.688,418.268Z" transform="translate(-400.1 -414.774)" fill="#333" opacity="0.17"/>
            </g>
            <g id="Grupo_91670" data-name="Grupo 91670" transform="translate(28.389 6.619)">
              <path id="Trazado_151062" data-name="Trazado 151062" d="M426.509,352.247s.137-2.358,1.108-2.775,2.457,2.51,2.153,3.675c0,0,4.078-.946,3.635.566a3.736,3.736,0,0,1-1.663,2.151s2.442.734,1.569,1.512a8.346,8.346,0,0,1-1.483,1.1s.043,1.3-.8,1.61-2.359-1.144-2.359-1.144a1.345,1.345,0,0,1-1.622.439c-1.041-.415-1.764-2.232-1.764-2.232s-.193,1.29-1.415-.082.081-3.427.081-3.427S424.5,350.237,426.509,352.247Z" transform="translate(-423.34 -349.432)" fill="#f7b242"/>
              <path id="Trazado_151063" data-name="Trazado 151063" d="M430.1,356.44s.072-1.239.582-1.458,1.291,1.319,1.131,1.931c0,0,2.142-.5,1.91.3a1.962,1.962,0,0,1-.874,1.13s1.283.386.824.794a4.388,4.388,0,0,1-.779.576s.023.685-.422.846-1.24-.6-1.24-.6a.705.705,0,0,1-.852.231c-.547-.219-.927-1.173-.927-1.173s-.1.678-.743-.043.043-1.8.043-1.8S429.046,355.384,430.1,356.44Z" transform="translate(-425.883 -352.19)" fill="#333" opacity="0.17"/>
            </g>
            <g id="Grupo_91671" data-name="Grupo 91671" transform="translate(9.599)">
              <path id="Trazado_151064" data-name="Trazado 151064" d="M392.985,338.053s4.357.371,3.081,1.954-1.858,1.43-1.858,1.43,1.915,1.649.654,3-3.164-.539-3.164-.539a1.486,1.486,0,0,1-1,.889c-.846.306-2.261.223-2.581-.387a3.189,3.189,0,0,1-.015-1.776s-1.332.514-1.762-.221-.736-1.581-.237-2.025a1.843,1.843,0,0,1,1.207-.4s-1.333-1.5-.945-2.067.332-1.637,1.636-1.679,2.4,1.441,2.4,1.441a1.718,1.718,0,0,1,1.248-1.111C392.609,336.374,392.985,338.053,392.985,338.053Z" transform="translate(-385.847 -336.224)" fill="#f7b242"/>
              <path id="Trazado_151065" data-name="Trazado 151065" d="M394.643,341.553s2.063.176,1.459.925-.88.677-.88.677.907.781.31,1.419-1.5-.256-1.5-.256a.7.7,0,0,1-.473.421c-.4.145-1.07.106-1.222-.183a1.507,1.507,0,0,1-.007-.84s-.63.244-.834-.1-.348-.748-.112-.959a.873.873,0,0,1,.571-.191s-.631-.709-.447-.978.157-.775.774-.8,1.137.683,1.137.683a.814.814,0,0,1,.591-.526C394.465,340.758,394.643,341.553,394.643,341.553Z" transform="translate(-388.549 -338.45)" fill="#333" opacity="0.17"/>
            </g>
            <path id="Trazado_151066" data-name="Trazado 151066" d="M427.366,374.177a.438.438,0,1,0,.036-.619A.438.438,0,0,0,427.366,374.177Z" transform="translate(-396.904 -354.792)" fill="#f9f4e1"/>
            <path id="Trazado_151067" data-name="Trazado 151067" d="M440.522,372.123a.376.376,0,1,0,.031-.531A.376.376,0,0,0,440.522,372.123Z" transform="translate(-403.474 -353.819)" fill="#f9f4e1"/>
            <path id="Trazado_151068" data-name="Trazado 151068" d="M432.089,374.423a.564.564,0,1,0,.046-.8A.564.564,0,0,0,432.089,374.423Z" transform="translate(-399.244 -354.81)" fill="#f9f4e1"/>
            <path id="Trazado_151069" data-name="Trazado 151069" d="M439.642,375.7a.331.331,0,1,0-.007-.539A.393.393,0,0,0,439.642,375.7Z" transform="translate(-403.028 -355.624)" fill="#f9f4e1"/>
            <path id="Trazado_151070" data-name="Trazado 151070" d="M393.877,405.475a.313.313,0,1,0,.443-.006A.313.313,0,0,0,393.877,405.475Z" transform="translate(-380.21 -370.722)" fill="#f9f4e1"/>
            <path id="Trazado_151071" data-name="Trazado 151071" d="M392.327,412.064a.319.319,0,1,0-.016-.489A.35.35,0,0,0,392.327,412.064Z" transform="translate(-379.427 -373.777)" fill="#f9f4e1"/>
            <path id="Trazado_151072" data-name="Trazado 151072" d="M395.928,410.3a.442.442,0,1,0-.005-.666A.473.473,0,0,0,395.928,410.3Z" transform="translate(-381.207 -372.792)" fill="#f9f4e1"/>
            <path id="Trazado_151073" data-name="Trazado 151073" d="M404.806,408.5a.251.251,0,1,0,.021-.354A.251.251,0,0,0,404.806,408.5Z" transform="translate(-385.674 -372.07)" fill="#f9f4e1"/>
          </g>
        </g>
      </g>
    </g>
  </g>
</svg>
