<svg xmlns="http://www.w3.org/2000/svg" xmlns:xlink="http://www.w3.org/1999/xlink" width="310.999" height="231.882" viewBox="0 0 310.999 231.882">
  <defs>
    <linearGradient id="linear-gradient" x1="0.5" x2="0.5" y2="1" gradientUnits="objectBoundingBox">
      <stop offset="0" stop-color="#f5f5f5"/>
      <stop offset="0.25" stop-color="#f5f5f5"/>
      <stop offset="1" stop-color="#eeeef2"/>
    </linearGradient>
  </defs>
  <g id="img11" transform="translate(-229.194 -4286.739)">
    <g id="Grupo_129725" data-name="Grupo 129725" transform="translate(229.194 4293.713)">
      <path id="Trazado_151846" data-name="Trazado 151846" d="M346.1,317.5c11.56-14.191,14.848-32.61,8.727-48.874-3.87-10.283-11.3-19.835-12.246-30.558-1.9-21.438,22.039-38.77,27.006-59.884,2.183-9.279-.2-20.09-9.555-25.726-9.242-5.567-22.432-4.431-32.894-.532s-19.315,10.14-29.361,14.7-22.414,7.383-33.022,3.752c-10.745-3.678-16.84-12.951-20.254-21.987s-5.09-18.661-10.916-26.849c-9.6-13.493-30.078-20.85-49.158-18.946S148.3,114.93,139.152,128.631s-10.742,30.272-6.19,45.4c2.309,7.675,6.113,15.024,8.187,22.744s2.264,16.167-2.366,23.12c-9.683,14.539-35.229,16.566-48.606,29.034-11.041,10.29-11.387,25.994-5.122,38.649S103.1,310.5,114.836,320.273c54.762,1.491,110.505,1.59,165.267,3.082C301.386,323.934,324.838,318.512,346.1,317.5Z" transform="translate(-80.961 -98.49)" fill="#a4a4b4" opacity="0.354" style="mix-blend-mode: multiply;isolation: isolate"/>
      <path id="Trazado_151847" data-name="Trazado 151847" d="M359.21,171.844c-.137,14.649,13.788,27.4,11.365,41.846-1.3,7.73-7.186,15.566-3.763,22.617,3.028,6.239,11.7,7.321,18.335,5.292,15.524-4.749,24.96-20.618,29.473-36.213,4.245-14.669,5.3-31.054-1.5-44.729-5.478-11.017-18.116-20.744-30.949-19.844C370.416,141.637,359.313,160.81,359.21,171.844Z" transform="translate(-111.056 -104.819)" fill="#a4a4b4" opacity="0.31" style="mix-blend-mode: multiply;isolation: isolate"/>
      <path id="Trazado_151848" data-name="Trazado 151848" d="M114.67,140.231a59.417,59.417,0,0,0-1.185,57.816c3.05,5.6,7.169,10.812,12.732,13.924s12.737,3.806,18.274.648c8.4-4.789,10.253-16.086,9.585-25.729s-2.853-19.752.86-28.676c2.421-5.817,7.069-10.352,11.193-15.116s7.972-10.324,8.185-16.621c.552-16.324-16.778-15.1-27.223-11.714A59.358,59.358,0,0,0,114.67,140.231Z" transform="translate(-85.174 -100.195)" fill="#a4a4b4" opacity="0.31" style="mix-blend-mode: multiply;isolation: isolate"/>
      <g id="Grupo_107069" data-name="Grupo 107069" transform="translate(5.802)" style="mix-blend-mode: multiply;isolation: isolate">
        <path id="Trazado_151849" data-name="Trazado 151849" d="M344.619,319.109l-1.18-.871c3.246-2.87,8.427-9.448,6.673-21.274-.78-5.265-2.716-10.465-4.587-15.495-.835-2.247-1.7-4.57-2.455-6.877-8.049-24.616-4.528-51.772,9.659-74.5,1.26-2.017,2.624-4.041,3.943-6,3.91-5.8,7.953-11.8,9.692-18.284,3.049-11.374-2.978-19.9-9.869-23.006-6.611-2.983-15.943-2.527-25.6,1.251-3.533,1.381-6.968,3.071-10.288,4.706a104.274,104.274,0,0,1-13.8,5.975c-19.171,6.222-43.14.934-55.752-12.3-6.061-6.358-9.484-14.043-12.794-21.475-1.282-2.88-2.609-5.858-4.067-8.707-4.536-8.859-12.838-19.98-26.629-22.639-12.118-2.338-24.391,2.8-32.551,7.524-15.613,9.036-26.618,21.274-30.99,34.458-2.948,8.891-3.066,18.567-3.181,27.926-.171,13.936-.348,28.347-10.077,39.953-4.426,5.28-10.514,9.492-16.4,13.566-5.514,3.815-11.215,7.761-15.465,12.543-9.63,10.835-11.991,26.176-6.476,42.089,4.955,14.3,15.056,26.983,24.824,39.251l-1.342.7c-9.832-12.348-20-25.117-25.019-39.6-5.646-16.293-3.2-32.036,6.717-43.191,4.362-4.909,10.138-8.905,15.723-12.77,5.807-4.018,11.812-8.174,16.117-13.309,9.459-11.284,9.626-24.863,9.8-39.241.116-9.439.235-19.2,3.237-28.248,4.467-13.472,15.691-25.963,31.6-35.174,8.43-4.879,21.146-10.181,33.851-7.729,14.447,2.787,23.055,14.264,27.733,23.4,1.473,2.877,2.806,5.87,4.094,8.764,3.268,7.337,6.646,14.925,12.556,21.123,12.192,12.79,35.361,17.9,53.894,11.887a103.1,103.1,0,0,0,13.564-5.879c3.353-1.651,6.82-3.357,10.422-4.766,10.133-3.963,20-4.408,27.075-1.217,7.389,3.333,13.874,12.392,10.652,24.408-1.787,6.663-5.886,12.746-9.851,18.629-1.313,1.948-2.671,3.963-3.919,5.962-14.014,22.452-17.491,49.274-9.541,73.59.747,2.286,1.608,4.6,2.44,6.836,1.891,5.082,3.847,10.337,4.645,15.713C353.528,309.148,348.048,316.078,344.619,319.109Z" transform="translate(-87.906 -97.739)" fill="#a4a4b4"/>
      </g>
    </g>
    <g id="Grupo_107101" data-name="Grupo 107101" transform="translate(420.552 4300.713)">
      <rect id="Rectángulo_34158" data-name="Rectángulo 34158" width="58.446" height="41.555" rx="5" transform="translate(0)" fill="#1d272b"/>
      <g id="Grupo_107100" data-name="Grupo 107100" transform="translate(5.66 6.855)">
        <circle id="Elipse_4271" data-name="Elipse 4271" cx="4.868" cy="4.868" r="4.868" transform="translate(0 8.765) rotate(-64.201)" fill="#fff"/>
        <path id="Trazado_151927" data-name="Trazado 151927" d="M143.16,146.912H118.534a1.5,1.5,0,0,1-1.5-1.5h0a1.5,1.5,0,0,1,1.5-1.5H143.16a1.5,1.5,0,0,1,1.5,1.5h0A1.5,1.5,0,0,1,143.16,146.912Z" transform="translate(-101.977 -142.285)" fill="#fff"/>
        <path id="Trazado_151928" data-name="Trazado 151928" d="M143.16,157.064H118.534a1.5,1.5,0,0,1-1.5-1.5h0a1.5,1.5,0,0,1,1.5-1.5H143.16a1.5,1.5,0,0,1,1.5,1.5h0A1.5,1.5,0,0,1,143.16,157.064Z" transform="translate(-101.977 -145.632)" fill="#fff"/>
        <circle id="Elipse_4272" data-name="Elipse 4272" cx="4.868" cy="4.868" r="4.868" transform="translate(0.271 24.208) rotate(-70.183)" fill="#fff"/>
        <path id="Trazado_151929" data-name="Trazado 151929" d="M143.16,168.958H118.534a1.5,1.5,0,0,1-1.5-1.5h0a1.5,1.5,0,0,1,1.5-1.5H143.16a1.5,1.5,0,0,1,1.5,1.5h0A1.5,1.5,0,0,1,143.16,168.958Z" transform="translate(-101.977 -149.552)" fill="#fff"/>
        <path id="Trazado_151930" data-name="Trazado 151930" d="M143.16,179.109H118.534a1.5,1.5,0,0,1-1.5-1.5h0a1.5,1.5,0,0,1,1.5-1.5H143.16a1.5,1.5,0,0,1,1.5,1.5h0A1.5,1.5,0,0,1,143.16,179.109Z" transform="translate(-101.977 -152.899)" fill="#fff"/>
      </g>
    </g>
    <g id="Grupo_107102" data-name="Grupo 107102" transform="translate(236.324 4413.548)">
      <rect id="Rectángulo_34159" data-name="Rectángulo 34159" width="46.62" height="46.62" rx="5" transform="translate(0)" fill="#b42218"/>
      <text id="_" data-name="?" transform="translate(15.081 33.111)" fill="#fff" font-size="30" font-family="Poppins-Bold, Poppins" font-weight="700"><tspan x="0" y="0">?</tspan></text>
    </g>
    <g id="Grupo_129726" data-name="Grupo 129726" transform="translate(-174.967 4181.712)">
      <g id="Grupo_129726-2" data-name="Grupo 129726" opacity="0.4">
        <path id="Trazado_166787" data-name="Trazado 166787" d="M674.662,149.441a20.71,20.71,0,0,1,5.664,1.605,15.841,15.841,0,0,1,4.658,3.106,12.6,12.6,0,0,1,2.966,4.452,11.086,11.086,0,0,1,.585,5.642,11.276,11.276,0,0,1-1.384,4.28,13.539,13.539,0,0,1-2.474,3.072,21.992,21.992,0,0,1-3.05,2.351q-1.621,1.035-3.064,1.963a18.36,18.36,0,0,0-2.585,2,5.217,5.217,0,0,0-1.518,2.431,2.49,2.49,0,0,1-.73,1.122,1.459,1.459,0,0,1-1.2.351l-4.8-.651a1.757,1.757,0,0,1-1.162-.671,1.408,1.408,0,0,1-.311-1.263,11.1,11.1,0,0,1,1.627-4.184A15.517,15.517,0,0,1,670.543,172a22.376,22.376,0,0,1,3.141-2.307q1.647-1,3.06-1.932a14.544,14.544,0,0,0,2.383-1.927,4.024,4.024,0,0,0,1.149-2.32,4.81,4.81,0,0,0-1.484-4.219,8.68,8.68,0,0,0-5.157-2.274q-5.367-.728-8.619,4.3a3.591,3.591,0,0,1-.8.951,1.631,1.631,0,0,1-1.215.189l-5.114-.693a1.4,1.4,0,0,1-.927-.512,1.317,1.317,0,0,1-.273-1.065,9.828,9.828,0,0,1,1.969-4.33,15.577,15.577,0,0,1,4.036-3.7,18.832,18.832,0,0,1,5.529-2.367A16.614,16.614,0,0,1,674.662,149.441Zm-2.335,36.2a1.741,1.741,0,0,1,1.472,1.936l-.753,5.554a1.738,1.738,0,0,1-1.934,1.475l-5.43-.736a1.743,1.743,0,0,1-1.474-1.936l.753-5.555a1.746,1.746,0,0,1,1.936-1.474Z" fill="none" stroke="#1d272b" stroke-linecap="round" stroke-linejoin="round" stroke-width="1"/>
      </g>
      <g id="Grupo_129727" data-name="Grupo 129727">
        <path id="Trazado_166788" data-name="Trazado 166788" d="M696.69,260.182a1.786,1.786,0,0,0-1.385-1.791l-8.723-2a31.289,31.289,0,0,0-.862-5.133l7.577-4.748a1.785,1.785,0,0,0,.718-2.149,41.25,41.25,0,0,0-8.563-13.654,1.78,1.78,0,0,0-2.247-.29l-7.574,4.752a31.36,31.36,0,0,0-4.244-3.012l2-8.723a1.785,1.785,0,0,0-1.009-2.026,41.267,41.267,0,0,0-15.712-3.6,1.783,1.783,0,0,0-1.792,1.384l-2,8.723a31.258,31.258,0,0,0-5.134.862l-4.75-7.577a1.783,1.783,0,0,0-2.149-.721,41.214,41.214,0,0,0-13.654,8.562,1.787,1.787,0,0,0-.286,2.248l4.75,7.577a31.438,31.438,0,0,0-3.011,4.245l-8.723-2a1.787,1.787,0,0,0-2.027,1.009,41.144,41.144,0,0,0-3.6,15.713,1.786,1.786,0,0,0,1.386,1.79l8.722,2a31.483,31.483,0,0,0,.863,5.132l-7.576,4.749a1.788,1.788,0,0,0-.722,2.148,41.238,41.238,0,0,0,8.562,13.655,1.771,1.771,0,0,0,2.248.289l7.576-4.751a31.282,31.282,0,0,0,4.246,3.012l-2,8.722a1.784,1.784,0,0,0,1.009,2.027,41.02,41.02,0,0,0,15.713,3.6,1.784,1.784,0,0,0,1.79-1.384l2-8.723a31.4,31.4,0,0,0,5.132-.862l4.748,7.576a1.78,1.78,0,0,0,2.149.718,41.245,41.245,0,0,0,13.655-8.562,1.784,1.784,0,0,0,.29-2.247l-4.753-7.575a31.3,31.3,0,0,0,3.012-4.244l8.723,2a1.786,1.786,0,0,0,2.027-1.009,41.067,41.067,0,0,0,3.6-15.713Zm-29.465,3.583a12.807,12.807,0,0,1-12.565,7.878h0a12.673,12.673,0,0,1-10.9-17.392,12.808,12.808,0,0,1,12.568-7.877,13.145,13.145,0,0,1,1.995.3,12.664,12.664,0,0,1,8.908,17.092Z" fill="#a4a4b4"/>
      </g>
      <g id="Grupo_129728" data-name="Grupo 129728" transform="translate(-20.132 0.971)" opacity="0.2">
        <path id="Trazado_166789" data-name="Trazado 166789" d="M731.029,317.656a1.148,1.148,0,0,0-.162-1.447l-4.123-4.014a20.113,20.113,0,0,0,1.242-3.108l5.749-.075a1.148,1.148,0,0,0,1.113-.94,26.516,26.516,0,0,0-.139-10.362,1.145,1.145,0,0,0-1.137-.911l-5.749.079A20.126,20.126,0,0,0,726.5,293.8l4.014-4.122a1.147,1.147,0,0,0,.123-1.45A26.535,26.535,0,0,0,723.21,281a1.147,1.147,0,0,0-1.447.162l-4.014,4.122a20.144,20.144,0,0,0-3.108-1.242l-.076-5.75a1.148,1.148,0,0,0-.939-1.115,26.516,26.516,0,0,0-10.362.139,1.15,1.15,0,0,0-.909,1.139l.077,5.75a20.1,20.1,0,0,0-3.073,1.325l-4.123-4.014a1.148,1.148,0,0,0-1.451-.124,26.488,26.488,0,0,0-7.231,7.427,1.148,1.148,0,0,0,.163,1.446l4.122,4.014a20.31,20.31,0,0,0-1.242,3.108l-5.748.075a1.15,1.15,0,0,0-1.115.939,26.518,26.518,0,0,0,.138,10.362,1.138,1.138,0,0,0,1.138.91l5.75-.077a20.009,20.009,0,0,0,1.325,3.074l-4.014,4.122a1.148,1.148,0,0,0-.123,1.451,26.431,26.431,0,0,0,7.426,7.231,1.15,1.15,0,0,0,1.447-.162l4.014-4.123a20.094,20.094,0,0,0,3.107,1.242l.075,5.749a1.145,1.145,0,0,0,.94,1.113,26.522,26.522,0,0,0,10.363-.139,1.148,1.148,0,0,0,.91-1.137l-.078-5.749a20.059,20.059,0,0,0,3.073-1.325l4.122,4.014a1.148,1.148,0,0,0,1.451.124,26.431,26.431,0,0,0,7.231-7.426Zm-17.382-7.882a8.236,8.236,0,0,1-9.535.127v0a8.148,8.148,0,0,1-.175-13.2,8.235,8.235,0,0,1,9.536-.126,8.542,8.542,0,0,1,1,.832,8.144,8.144,0,0,1-.821,12.366Z" fill="#a4a4b4"/>
      </g>
      <circle id="Elipse_4472" data-name="Elipse 4472" cx="16.304" cy="16.304" r="16.304" transform="translate(593.007 183.728) rotate(-45)" fill="#1d272b"/>
      <path id="Trazado_166790" data-name="Trazado 166790" d="M499.528,330.357a12.79,12.79,0,0,0,11.165,6.551H669.379a12.788,12.788,0,0,0,10.889-19.493l-43.4-70.48a12.782,12.782,0,0,0-15.485-5.22,74.428,74.428,0,0,0-62.694,0,12.783,12.783,0,0,0-15.485,5.22l-43.4,70.48A12.791,12.791,0,0,0,499.528,330.357Zm146.958-19.024H630.57V285.485Zm-112.9,0L549.5,285.486v25.847Z" fill="url(#linear-gradient)"/>
      <g id="Grupo_129729" data-name="Grupo 129729">
        <path id="Rectángulo_35910" data-name="Rectángulo 35910" d="M11.362,0h0A11.362,11.362,0,0,1,22.725,11.362V49.708a0,0,0,0,1,0,0H0a0,0,0,0,1,0,0V11.362A11.362,11.362,0,0,1,11.362,0Z" transform="translate(601.398 254.597) rotate(180)" fill="#1d272b"/>
        <path id="Rectángulo_35911" data-name="Rectángulo 35911" d="M11.362,0h0A11.362,11.362,0,0,1,22.725,11.362V49.708a0,0,0,0,1,0,0H0a0,0,0,0,1,0,0V11.362A11.362,11.362,0,0,1,11.362,0Z" transform="translate(601.398 249.804) rotate(-180)" fill="#ff9e9b"/>
        <path id="Trazado_166791" data-name="Trazado 166791" d="M601.4,227.925a11.363,11.363,0,0,1-22.725,0v-24.9H601.4Z" fill="#ff9e9b" opacity="0.5" style="mix-blend-mode: multiply;isolation: isolate"/>
      </g>
      <path id="Trazado_166792" data-name="Trazado 166792" d="M599.613,336.908H640.07v-.2a20.229,20.229,0,0,0-20.228-20.228h0A20.229,20.229,0,0,0,599.613,336.7Z" fill="#1d272b"/>
      <path id="Trazado_166793" data-name="Trazado 166793" d="M591.749,229.466h0a24.137,24.137,0,0,0,22.113-26.006L610.8,165.609,562.681,169.5l3.062,37.85A24.138,24.138,0,0,0,591.749,229.466Z" fill="#ff9e9b"/>
      <ellipse id="Elipse_4473" data-name="Elipse 4473" cx="1.578" cy="1.786" rx="1.578" ry="1.786" transform="translate(591.506 194.035)" fill="#1d272b"/>
      <ellipse id="Elipse_4474" data-name="Elipse 4474" cx="1.578" cy="1.786" rx="1.578" ry="1.786" transform="translate(572.123 194.035)" fill="#1d272b"/>
      <path id="Trazado_166794" data-name="Trazado 166794" d="M597.07,209.37a6.87,6.87,0,0,1-11.47,5.953Z" fill="#fff"/>
      <path id="Trazado_166795" data-name="Trazado 166795" d="M595.037,336.908h36.932v-.187A18.466,18.466,0,0,0,613.5,318.256h0a18.466,18.466,0,0,0-18.466,18.465Z" fill="#ff9e9b"/>
      <path id="Rectángulo_35912" data-name="Rectángulo 35912" d="M0,0H24.55a0,0,0,0,1,0,0V.124A12.275,12.275,0,0,1,12.275,12.4h0A12.275,12.275,0,0,1,0,.124V0A0,0,0,0,1,0,0Z" transform="translate(614.494 336.908) rotate(180)" fill="#1d272b"/>
      <g id="Grupo_129730" data-name="Grupo 129730">
        <path id="Trazado_166796" data-name="Trazado 166796" d="M464.116,336.908H576.342a8.854,8.854,0,0,0,8.854-8.854H455.262A8.854,8.854,0,0,0,464.116,336.908Z" fill="#1d272b"/>
        <path id="Trazado_166797" data-name="Trazado 166797" d="M452.7,328.054h89.761a3.938,3.938,0,0,0,3.835-4.831l-13.646-58.6a3.937,3.937,0,0,0-3.835-3.045H439.051a3.937,3.937,0,0,0-3.835,4.83l13.646,58.605A3.937,3.937,0,0,0,452.7,328.054Z" fill="url(#linear-gradient)"/>
        <path id="Trazado_166798" data-name="Trazado 166798" d="M449.6,328.054h89.761a3.938,3.938,0,0,0,3.835-4.831l-13.646-58.6a3.938,3.938,0,0,0-3.835-3.045H435.955a3.937,3.937,0,0,0-3.835,4.83l13.646,58.605A3.937,3.937,0,0,0,449.6,328.054Z" fill="#1d272b"/>
        <circle id="Elipse_4475" data-name="Elipse 4475" cx="10.415" cy="10.415" r="10.415" transform="translate(476.267 284.399)" fill="url(#linear-gradient)"/>
      </g>
      <path id="Trazado_166799" data-name="Trazado 166799" d="M589.4,144.338c-15.828-2.136-30.683,11.136-33.18,29.642l57.319,7.734C616.04,163.207,605.233,146.473,589.4,144.338Z" fill="#1d272b"/>
      <path id="Trazado_166800" data-name="Trazado 166800" d="M565.611,186.3a10.95,10.95,0,0,0,12.315-9.388l-21.7-2.928A10.95,10.95,0,0,0,565.611,186.3Z" fill="#1d272b"/>
      <path id="Trazado_166801" data-name="Trazado 166801" d="M587.585,182.97c10.625,4.579,21.507,3.026,24.306-3.469L573.415,162.92C570.616,169.415,576.96,178.392,587.585,182.97Z" fill="#1d272b"/>
      <path id="Trazado_166802" data-name="Trazado 166802" d="M622.791,196.468a8.761,8.761,0,1,1-10.469-6.627A8.761,8.761,0,0,1,622.791,196.468Z" fill="#ff9e9b"/>
      <path id="Trazado_166803" data-name="Trazado 166803" d="M585.566,194.582s-1.494,9.6-5.106,12.938c3.463,1.565,4.194,0,4.194,0" fill="none" stroke="#ff9e9b" stroke-miterlimit="10" stroke-width="0.911" opacity="0.5" style="mix-blend-mode: multiply;isolation: isolate"/>
      <path id="Trazado_166804" data-name="Trazado 166804" d="M574.044,189.6a7,7,0,0,0-3.166.422,1.311,1.311,0,0,1-1.574-.464h0a1.163,1.163,0,0,1,.793-1.59,9.182,9.182,0,0,1,4.162-.555c.834.082,1.357.748,1.183,1.327h0A1.312,1.312,0,0,1,574.044,189.6Z" fill="#1d272b"/>
      <path id="Trazado_166805" data-name="Trazado 166805" d="M593.652,189.6a7,7,0,0,1,3.166.422,1.311,1.311,0,0,0,1.574-.464h0a1.164,1.164,0,0,0-.794-1.59,9.176,9.176,0,0,0-4.161-.555c-.834.082-1.357.748-1.183,1.327h0A1.312,1.312,0,0,0,593.652,189.6Z" fill="#1d272b"/>
      <circle id="Elipse_4476" data-name="Elipse 4476" cx="8.745" cy="8.745" r="8.745" transform="translate(601.049 158.651) rotate(-24.805)" fill="#1d272b"/>
      <path id="Trazado_166806" data-name="Trazado 166806" d="M579.75,164.205a14.272,14.272,0,1,1-12.235-16.052A14.271,14.271,0,0,1,579.75,164.205Z" fill="#1d272b"/>
      <path id="Trazado_166807" data-name="Trazado 166807" d="M618.345,197.468a4.2,4.2,0,1,1-5.023-3.18A4.2,4.2,0,0,1,618.345,197.468Z" fill="#1d272b"/>
      <path id="Trazado_166808" data-name="Trazado 166808" d="M604,215.477a11.768,11.768,0,0,0,9.329-6.77c1.512-3.323,1.068-6.909.816-10.428" fill="none" stroke="#fff" stroke-linecap="round" stroke-linejoin="round" stroke-width="1.713"/>
      <path id="Trazado_166809" data-name="Trazado 166809" d="M604.952,217.4l-6.466.505a1.81,1.81,0,0,1-1.944-1.663h0a1.808,1.808,0,0,1,1.663-1.944l6.466-.5Z" fill="#1d272b"/>
      <path id="Trazado_166810" data-name="Trazado 166810" d="M616.723,197.858a2.61,2.61,0,1,1-3.119-1.975A2.61,2.61,0,0,1,616.723,197.858Z" fill="none" stroke="#fff" stroke-linecap="round" stroke-linejoin="round" stroke-width="0.244"/>
      <g id="Grupo_129731" data-name="Grupo 129731" opacity="0.4">
        <path id="Trazado_166811" data-name="Trazado 166811" d="M479.446,226.935l37.229-16.874L505.67,235.286Z" fill="none" stroke="#1d272b" stroke-linecap="round" stroke-linejoin="round" stroke-width="1"/>
        <path id="Trazado_166812" data-name="Trazado 166812" d="M516.675,210.061,526.9,232.625,489.674,249.5l-10.228-22.565" fill="none" stroke="#1d272b" stroke-linecap="round" stroke-linejoin="round" stroke-width="1"/>
        <path id="Trazado_166813" data-name="Trazado 166813" d="M507.878,230.226l19.025,2.4-10.228-22.565" fill="none" stroke="#1d272b" stroke-linecap="round" stroke-linejoin="round" stroke-width="1"/>
        <path id="Trazado_166814" data-name="Trazado 166814" d="M500.409,233.611,489.674,249.5l-10.228-22.565" fill="none" stroke="#1d272b" stroke-linecap="round" stroke-linejoin="round" stroke-width="1"/>
      </g>
      <g id="Grupo_129732" data-name="Grupo 129732">
        <path id="Trazado_166821" data-name="Trazado 166821" d="M460.732,132.253a.776.776,0,0,0-.826-.535l-3.863.435a13.646,13.646,0,0,0-1.092-1.98l2.423-3.036a.775.775,0,0,0-.015-.984,17.9,17.9,0,0,0-5.474-4.365.774.774,0,0,0-.963.2L448.5,125.03a13.608,13.608,0,0,0-2.173-.624l-.435-3.863a.776.776,0,0,0-.705-.685,17.924,17.924,0,0,0-6.959.784.774.774,0,0,0-.535.825l.435,3.863a13.639,13.639,0,0,0-1.98,1.092L433.112,124a.776.776,0,0,0-.985.013,17.921,17.921,0,0,0-4.365,5.475.777.777,0,0,0,.207.962l3.037,2.422a13.591,13.591,0,0,0-.624,2.174l-3.863.435a.777.777,0,0,0-.686.705,17.859,17.859,0,0,0,.785,6.959.777.777,0,0,0,.825.535l3.863-.436a13.689,13.689,0,0,0,1.092,1.98l-2.422,3.037a.776.776,0,0,0,.013.984,17.923,17.923,0,0,0,5.474,4.365.769.769,0,0,0,.963-.205l2.422-3.037a13.557,13.557,0,0,0,2.174.623l.435,3.863a.777.777,0,0,0,.7.686,17.8,17.8,0,0,0,6.959-.785.775.775,0,0,0,.535-.825l-.436-3.863a13.592,13.592,0,0,0,1.98-1.091l3.036,2.422a.772.772,0,0,0,.984-.015,17.92,17.92,0,0,0,4.366-5.474.775.775,0,0,0-.2-.963l-3.038-2.421a13.58,13.58,0,0,0,.624-2.173l3.863-.435a.776.776,0,0,0,.686-.705,17.878,17.878,0,0,0-.784-6.959ZM449.17,137.96A5.563,5.563,0,0,1,445.153,143h0a5.5,5.5,0,0,1-6.972-5.56A5.565,5.565,0,0,1,442.2,132.4a5.909,5.909,0,0,1,.861-.164,5.5,5.5,0,0,1,6.111,5.724Z" fill="none" stroke="#1d272b" stroke-miterlimit="10" stroke-width="1"/>
      </g>
      <path id="Trazado_166825" data-name="Trazado 166825" d="M530.782,109.725a.432.432,0,0,0-.411-.3h-4.312l-1.332-4.1a.432.432,0,0,0-.822,0l-1.332,4.1h-4.311a.432.432,0,0,0-.254.781l3.488,2.534-1.333,4.1a.432.432,0,0,0,.665.483l3.488-2.534,3.488,2.534a.432.432,0,0,0,.665-.483l-1.332-4.1,3.488-2.534A.432.432,0,0,0,530.782,109.725Z" fill="#b42218"/>
      <path id="Trazado_166826" data-name="Trazado 166826" d="M550.238,109.725a.431.431,0,0,0-.411-.3h-4.312l-1.332-4.1a.431.431,0,0,0-.821,0l-1.332,4.1h-4.312a.432.432,0,0,0-.254.781l3.488,2.534-1.332,4.1a.432.432,0,0,0,.665.483l3.488-2.534,3.488,2.534a.432.432,0,0,0,.664-.483l-1.332-4.1,3.488-2.534A.431.431,0,0,0,550.238,109.725Z" fill="#b42218"/>
      <path id="Trazado_166827" data-name="Trazado 166827" d="M569.694,109.725a.43.43,0,0,0-.41-.3h-4.312l-1.332-4.1a.432.432,0,0,0-.822,0l-1.332,4.1h-4.312a.432.432,0,0,0-.254.781l3.488,2.534-1.332,4.1a.432.432,0,0,0,.665.483l3.488-2.534,3.488,2.534a.432.432,0,0,0,.665-.483l-1.332-4.1,3.488-2.534A.432.432,0,0,0,569.694,109.725Z" fill="#b42218"/>
      <path id="Trazado_166828" data-name="Trazado 166828" d="M589.151,109.725a.432.432,0,0,0-.411-.3h-4.312l-1.332-4.1a.432.432,0,0,0-.822,0l-1.332,4.1h-4.311a.432.432,0,0,0-.254.781l3.488,2.534-1.333,4.1a.432.432,0,0,0,.665.483l3.488-2.534,3.488,2.534a.432.432,0,0,0,.665-.483l-1.332-4.1,3.488-2.534A.432.432,0,0,0,589.151,109.725Z" fill="#db8804" opacity="0.4"/>
    </g>
    <path id="Trazado_166829" data-name="Trazado 166829" d="M498.169,150.608A25.447,25.447,0,0,0,477.2,130.956c-.892-.132-1.777-.236-2.669-.357h-2.479c-.881.121-1.783.22-2.669.357a25.5,25.5,0,0,0-1.158,50.2c1.085.231,2.2.294,3.307.446a4.54,4.54,0,0,1,.52.11h2.479c.892-.12,1.777-.225,2.669-.356a25.5,25.5,0,0,0,21.231-20.922c.115-.75.235-1.493.351-2.238v-4.079C498.584,152.942,498.427,151.766,498.169,150.608Zm-8.791,15.132a34.221,34.221,0,0,1-3.191,4.774,4.351,4.351,0,0,1-2.959,1.118c-.1,0-.191,0-.281-.01-1.253-.089-9.511-2.862-15.185-9.088s-7.675-14.7-7.649-15.96a4.365,4.365,0,0,1,1.4-3.119,33.82,33.82,0,0,1,5.052-2.741,1.49,1.49,0,0,1,1.953.395c.264.345,4.517,7.1,4.723,7.883a1.861,1.861,0,0,1-.714,1.892c-.351.317-3.791,2.465-3.941,2.555a1.092,1.092,0,0,0-.2.138c.005.005.007.06.036.169a17.5,17.5,0,0,0,8.149,8.938.465.465,0,0,0,.187.049c.012-.015.106-.143.138-.184.092-.126,2.55-3.361,2.9-3.685a1.866,1.866,0,0,1,1.95-.537c.736.266,7.09,5.127,7.416,5.427A1.5,1.5,0,0,1,489.378,165.74Z" transform="translate(-139.643 4194.038)" fill="#008f85"/>
  </g>
</svg>
