<svg xmlns="http://www.w3.org/2000/svg" width="293.424" height="173.53" viewBox="0 0 293.424 173.53">
  <g id="img20" transform="translate(-67.442 -53.313)">
    <g id="Background_Complete" data-name="Background Complete" transform="translate(67.442 53.314)">
      <g id="Grupo_131524" data-name="Grupo 131524" transform="translate(25.921 18.479)">
        <rect id="Rectángulo_36066" data-name="Rectángulo 36066" width="236.403" height="146.399" transform="translate(0 8.151)" fill="#fff" stroke="#dbdbdb" stroke-miterlimit="10" stroke-width="1"/>
        <rect id="Rectángulo_36067" data-name="Rectángulo 36067" width="236.403" height="22.587" transform="translate(0 8.151)" fill="#ebebeb"/>
        <g id="Grupo_131517" data-name="Grupo 131517" transform="translate(5.312 16.389)">
          <g id="Grupo_131510" data-name="Grupo 131510" transform="translate(21.715 0.013)">
            <g id="Grupo_131505" data-name="Grupo 131505">
              <rect id="Rectángulo_36068" data-name="Rectángulo 36068" width="194.777" height="5.507" transform="translate(0.056 0.056)" fill="#fff"/>
              <path id="Trazado_168318" data-name="Trazado 168318" d="M373.674,132.283H178.785v-5.619H373.674ZM178.9,132.17H373.562v-5.395H178.9Z" transform="translate(-178.785 -126.663)" fill="#c7c7c7"/>
            </g>
            <g id="Grupo_131509" data-name="Grupo 131509" transform="translate(1.635 1.328)">
              <g id="Grupo_131508" data-name="Grupo 131508">
                <g id="Grupo_131506" data-name="Grupo 131506" transform="translate(1.225 1.269)">
                  <path id="Trazado_168319" data-name="Trazado 168319" d="M186.48,133.77l-.391.3-.6-.791-.125-.166-.129-.171-.009-.009a.683.683,0,0,0,.15-.087c.008-.009.02-.017.029-.025a.867.867,0,0,0,.187-.221l0,.009.137.179.129.166Z" transform="translate(-185.023 -132.371)" fill="#ebebeb"/>
                  <path id="Trazado_168320" data-name="Trazado 168320" d="M185.64,132.7l-.129-.166a.77.77,0,0,0,.108-.2l-.15-.2-.009-.013a.7.7,0,0,1-.041.125.612.612,0,0,1-.05.1.87.87,0,0,1-.187.221.518.518,0,0,0,.054-.046l0,.008.125.163.129.166.47.62-.058.046-.467-.616-.125-.166-.125-.166-.008-.009c-.009.009-.021.017-.029.025a.684.684,0,0,1-.15.087.274.274,0,0,1-.05.025,1.2,1.2,0,0,1-.154.046l0,.009.137.179a1,1,0,0,0,.2-.079l.125.166.6.791.391-.3Z" transform="translate(-184.799 -132.123)" fill="#ebebeb"/>
                </g>
                <g id="Grupo_131507" data-name="Grupo 131507">
                  <path id="Trazado_168321" data-name="Trazado 168321" d="M184.134,129.87a1.066,1.066,0,0,0-1.69,1.3,1.048,1.048,0,0,0,1.145.37,1,1,0,0,0,.2-.079,1.122,1.122,0,0,0,.146-.092.2.2,0,0,0,.029-.025.621.621,0,0,0,.05-.05.869.869,0,0,0,.146-.158.77.77,0,0,0,.108-.2A1.066,1.066,0,0,0,184.134,129.87Zm-.067.978a.611.611,0,0,1-.05.1.869.869,0,0,1-.187.221c-.009.009-.021.017-.029.025a.683.683,0,0,1-.15.087.274.274,0,0,1-.05.025,1.2,1.2,0,0,1-.154.046,1.027,1.027,0,0,1-.158.012.843.843,0,1,1,.82-.641A.7.7,0,0,1,184.068,130.849Z" transform="translate(-182.222 -129.455)" fill="#ebebeb"/>
                  <path id="Trazado_168322" data-name="Trazado 168322" d="M184.267,130.936a1.064,1.064,0,1,0-1.823.233,1.048,1.048,0,0,0,1.145.37,1,1,0,0,0,.2-.079l.125.166a.855.855,0,0,0,.15-.1c.008-.009.017-.013.025-.021a.305.305,0,0,0,.054-.05.889.889,0,0,0,.146-.158l-.129-.166A.77.77,0,0,0,184.267,130.936Zm-.279.083a.625.625,0,0,1-.1.112.554.554,0,0,1-.05.046c-.008.008-.02.017-.029.025a.74.74,0,0,1-.121.075l-.029.012a.565.565,0,0,1-.208.071.84.84,0,0,1-.845-.317.855.855,0,0,1,.158-1.2.854.854,0,0,1,1.2.158.845.845,0,0,1,.15.737.738.738,0,0,1-.1.221A.421.421,0,0,1,183.988,131.019Z" transform="translate(-182.222 -129.455)" fill="#ebebeb"/>
                </g>
              </g>
            </g>
          </g>
          <g id="Grupo_131511" data-name="Grupo 131511" transform="translate(0 0.941)">
            <path id="Trazado_168323" data-name="Trazado 168323" d="M135.127,132.381l-2.006-1.846,2-1.92.311.324-1.658,1.589,1.654,1.522Z" transform="translate(-133.121 -128.615)" fill="#fff"/>
          </g>
          <g id="Grupo_131512" data-name="Grupo 131512" transform="translate(6.539 0.938)">
            <path id="Trazado_168324" data-name="Trazado 168324" d="M147.179,128.608l2.006,1.846-2,1.92-.311-.324,1.658-1.589-1.654-1.523Z" transform="translate(-146.871 -128.608)" fill="#fff"/>
          </g>
          <g id="Grupo_131514" data-name="Grupo 131514" transform="translate(220.472 0.169)">
            <path id="Trazado_168325" data-name="Trazado 168325" d="M600.791,131.9a2.653,2.653,0,0,1-2.79,0,2.652,2.652,0,1,1,2.79,0Z" transform="translate(-596.743 -126.992)" fill="#dbdbdb"/>
            <g id="Grupo_131513" data-name="Grupo 131513" transform="translate(1.258 1.543)">
              <path id="Trazado_168326" data-name="Trazado 168326" d="M602.239,131.044a.807.807,0,1,1-.807-.807A.808.808,0,0,1,602.239,131.044Z" transform="translate(-600.036 -130.237)" fill="#fff"/>
              <path id="Trazado_168327" data-name="Trazado 168327" d="M602.178,135.078v.333a2.653,2.653,0,0,1-2.79,0v-.332a1.4,1.4,0,0,1,2.79,0Z" transform="translate(-599.388 -132.044)" fill="#fff"/>
            </g>
          </g>
          <g id="Grupo_131516" data-name="Grupo 131516" transform="translate(12.225)">
            <path id="Trazado_168328" data-name="Trazado 168328" d="M161.439,131.856a2.61,2.61,0,1,1,2.588-2.95l-.471.061a2.135,2.135,0,1,0-.531,1.707l.353.319A2.616,2.616,0,0,1,161.439,131.856Z" transform="translate(-158.829 -126.636)" fill="#fff"/>
            <g id="Grupo_131515" data-name="Grupo 131515" transform="translate(3.561 0.981)">
              <path id="Trazado_168329" data-name="Trazado 168329" d="M166.318,129.369l.159-.237,1.166.787.7-1.221.248.142-.852,1.487Z" transform="translate(-166.318 -128.699)" fill="#fff"/>
            </g>
          </g>
        </g>
        <g id="Grupo_131519" data-name="Grupo 131519" transform="translate(117.726)">
          <path id="Trazado_168330" data-name="Trazado 168330" d="M413.253,92.172H371.414l-1.9,8.151h45.643Z" transform="translate(-369.512 -92.172)" fill="#ebebeb"/>
          <g id="Grupo_131518" data-name="Grupo 131518" transform="translate(38.768 2.65)">
            <rect id="Rectángulo_36069" data-name="Rectángulo 36069" width="0.395" height="3.636" transform="translate(0 0.28) rotate(-44.995)" fill="#dbdbdb"/>
            <rect id="Rectángulo_36070" data-name="Rectángulo 36070" width="0.395" height="3.636" transform="translate(2.57 0) rotate(44.995)" fill="#dbdbdb"/>
          </g>
        </g>
        <g id="Grupo_131523" data-name="Grupo 131523" transform="translate(75.401 72.247)">
          <g id="Grupo_131522" data-name="Grupo 131522" transform="translate(0 13.28)">
            <rect id="Rectángulo_36071" data-name="Rectángulo 36071" width="89.871" height="12.262" fill="#fff" stroke="#c7c7c7" stroke-miterlimit="10" stroke-width="1"/>
            <rect id="Rectángulo_36072" data-name="Rectángulo 36072" width="12.262" height="12.262" transform="translate(77.609)" fill="#ffc727"/>
            <g id="Grupo_131521" data-name="Grupo 131521" transform="translate(79.852 1.835)">
              <g id="Grupo_131520" data-name="Grupo 131520">
                <path id="Trazado_168331" data-name="Trazado 168331" d="M460.364,287.81l-1.133.858-2.1-2.771-.768-1.013a1.8,1.8,0,0,0,.44-.249,1.846,1.846,0,0,0,.582-.754l.816,1.075Z" transform="translate(-452.59 -280.077)" fill="#fff"/>
                <path id="Trazado_168332" data-name="Trazado 168332" d="M453.97,277.091a3.09,3.09,0,1,0,.068,3.669A3.092,3.092,0,0,0,453.97,277.091Zm-1.329,3.348a1.8,1.8,0,0,1-.44.249,1.844,1.844,0,1,1,.44-.249Z" transform="translate(-448.426 -275.881)" fill="#fff"/>
              </g>
            </g>
            <rect id="Rectángulo_36073" data-name="Rectángulo 36073" width="0.658" height="7.441" transform="translate(2.564 2.41)" fill="#263238"/>
          </g>
          <rect id="Rectángulo_36074" data-name="Rectángulo 36074" width="20.759" height="6.578" transform="translate(0 30.321)" fill="#c7c7c7"/>
          <rect id="Rectángulo_36075" data-name="Rectángulo 36075" width="20.759" height="6.578" transform="translate(34.556 30.321)" fill="#ffc727"/>
          <rect id="Rectángulo_36076" data-name="Rectángulo 36076" width="20.759" height="6.578" transform="translate(69.369 30.321)" fill="#c7c7c7"/>
          <rect id="Rectángulo_36077" data-name="Rectángulo 36077" width="57.327" height="3.982" transform="translate(16.272)" fill="#37474f"/>
        </g>
      </g>
      <g id="Grupo_131553" data-name="Grupo 131553" transform="translate(163.497)">
        <g id="Grupo_131530" data-name="Grupo 131530">
          <g id="Grupo_131525" data-name="Grupo 131525" transform="translate(0.002 5.53)">
            <rect id="Rectángulo_36078" data-name="Rectángulo 36078" width="129.513" height="78.782" transform="translate(0.238 0.237)" fill="#fff"/>
            <path id="Trazado_168333" data-name="Trazado 168333" d="M541.006,143.962l-129.512.177h-.177v-.177l-.06-78.782v-.237h.238l129.512.1h.139v.138Zm0,0-.138-78.782.138.139-129.512.1.237-.237-.06,78.782-.177-.177Z" transform="translate(-411.256 -64.943)" fill="#dbdbdb"/>
          </g>
          <g id="Grupo_131527" data-name="Grupo 131527">
            <rect id="Rectángulo_36079" data-name="Rectángulo 36079" width="129.927" height="5.768" fill="#1d272b"/>
            <g id="Grupo_131526" data-name="Grupo 131526" transform="translate(3.126 2.102)">
              <path id="Trazado_168334" data-name="Trazado 168334" d="M419.391,58.516a.782.782,0,1,1-.782-.782A.782.782,0,0,1,419.391,58.516Z" transform="translate(-417.827 -57.734)" fill="#ebebeb"/>
              <path id="Trazado_168335" data-name="Trazado 168335" d="M426.106,58.516a.782.782,0,1,1-.782-.782A.782.782,0,0,1,426.106,58.516Z" transform="translate(-421.349 -57.734)" fill="#fff"/>
              <path id="Trazado_168336" data-name="Trazado 168336" d="M432.82,58.516a.782.782,0,1,1-.782-.782A.782.782,0,0,1,432.82,58.516Z" transform="translate(-424.87 -57.734)" fill="#dbdbdb"/>
            </g>
          </g>
          <g id="Grupo_131528" data-name="Grupo 131528" transform="translate(127.455 5.768)">
            <rect id="Rectángulo_36080" data-name="Rectángulo 36080" width="2.297" height="78.782" fill="#dbdbdb"/>
            <path id="Trazado_168337" data-name="Trazado 168337" d="M681.029,93.264h0a.594.594,0,0,1-.594-.593V67.005a.594.594,0,0,1,.594-.593h0a.594.594,0,0,1,.593.593V92.67A.594.594,0,0,1,681.029,93.264Z" transform="translate(-679.882 -65.951)" fill="#a6a6a6"/>
          </g>
          <g id="Grupo_131529" data-name="Grupo 131529" transform="translate(41.345 2.7)">
            <rect id="Rectángulo_36081" data-name="Rectángulo 36081" width="0.19" height="1.749" transform="translate(0.779)" fill="#a6a6a6"/>
            <rect id="Rectángulo_36082" data-name="Rectángulo 36082" width="0.19" height="1.749" transform="translate(1.749 0.779) rotate(90)" fill="#a6a6a6"/>
          </g>
        </g>
        <g id="Grupo_131552" data-name="Grupo 131552" transform="translate(0.002 1.381)">
          <g id="Grupo_131531" data-name="Grupo 131531" transform="translate(0 4.149)">
            <rect id="Rectángulo_36083" data-name="Rectángulo 36083" width="127.215" height="78.782" transform="translate(0.238 0.237)" fill="#fff"/>
            <path id="Trazado_168338" data-name="Trazado 168338" d="M538.709,143.962l-127.215.176h-.176v-.176l-.061-78.782v-.237h.238l127.215.1h.14v.139Zm0,0-.139-78.782.139.139-127.215.1.237-.237-.061,78.782-.176-.176Z" transform="translate(-411.256 -64.943)" fill="#dbdbdb"/>
          </g>
          <rect id="Rectángulo_36084" data-name="Rectángulo 36084" width="127.215" height="12.155" transform="translate(0.238 4.386)" fill="#008f85"/>
          <g id="Grupo_131544" data-name="Grupo 131544" transform="translate(3.096 8.819)">
            <g id="Grupo_131537" data-name="Grupo 131537" transform="translate(11.686 0.007)">
              <g id="Grupo_131532" data-name="Grupo 131532">
                <rect id="Rectángulo_36085" data-name="Rectángulo 36085" width="104.815" height="2.963" transform="translate(0.03 0.03)" fill="#fff"/>
                <path id="Trazado_168339" data-name="Trazado 168339" d="M547.215,77.8H442.34V74.779H547.215ZM442.4,77.743H547.155v-2.9H442.4Z" transform="translate(-442.34 -74.779)" fill="#c7c7c7"/>
              </g>
              <g id="Grupo_131536" data-name="Grupo 131536" transform="translate(0.88 0.714)">
                <g id="Grupo_131535" data-name="Grupo 131535">
                  <g id="Grupo_131533" data-name="Grupo 131533" transform="translate(0.659 0.683)">
                    <path id="Trazado_168340" data-name="Trazado 168340" d="M446.481,78.6l-.21.159-.323-.426-.067-.089-.069-.092,0,0a.376.376,0,0,0,.08-.047l.016-.014a.454.454,0,0,0,.1-.118l0,0,.074.1.069.089Z" transform="translate(-445.697 -77.851)" fill="#ebebeb"/>
                    <path id="Trazado_168341" data-name="Trazado 168341" d="M446.028,78.028l-.069-.089a.415.415,0,0,0,.058-.107l-.081-.108,0-.007a.4.4,0,0,1-.022.068.3.3,0,0,1-.027.054.453.453,0,0,1-.1.118.271.271,0,0,0,.03-.025l0,0,.068.088.069.089.253.334-.031.025-.251-.331-.067-.09-.067-.089,0,0-.016.014a.376.376,0,0,1-.08.047.181.181,0,0,1-.027.013.8.8,0,0,1-.083.025l0,0,.074.1a.533.533,0,0,0,.108-.043l.067.089.323.426.21-.159Z" transform="translate(-445.576 -77.717)" fill="#ebebeb"/>
                  </g>
                  <g id="Grupo_131534" data-name="Grupo 131534">
                    <path id="Trazado_168342" data-name="Trazado 168342" d="M445.218,76.505a.573.573,0,1,0-.909.7.565.565,0,0,0,.616.2.534.534,0,0,0,.107-.043.542.542,0,0,0,.078-.049.075.075,0,0,0,.016-.013.361.361,0,0,0,.027-.027.473.473,0,0,0,.078-.085.417.417,0,0,0,.059-.107A.573.573,0,0,0,445.218,76.505Zm-.036.526a.3.3,0,0,1-.027.054.453.453,0,0,1-.1.118l-.016.014a.375.375,0,0,1-.08.047.179.179,0,0,1-.027.013.8.8,0,0,1-.083.025.591.591,0,0,1-.085.007.454.454,0,1,1,.441-.345A.4.4,0,0,1,445.183,77.032Z" transform="translate(-444.19 -76.281)" fill="#ebebeb"/>
                    <path id="Trazado_168343" data-name="Trazado 168343" d="M445.29,77.079a.573.573,0,1,0-.981.125.565.565,0,0,0,.616.2.534.534,0,0,0,.107-.043l.067.089a.444.444,0,0,0,.081-.051l.013-.011a.171.171,0,0,0,.03-.027.475.475,0,0,0,.078-.085l-.069-.089A.417.417,0,0,0,445.29,77.079Zm-.15.045a.343.343,0,0,1-.054.06.252.252,0,0,1-.027.025l-.016.013a.426.426,0,0,1-.065.04l-.016.007a.3.3,0,0,1-.112.038.452.452,0,0,1-.455-.17.46.46,0,0,1,.085-.647.459.459,0,0,1,.647.085.454.454,0,0,1,.08.4.386.386,0,0,1-.051.119A.228.228,0,0,1,445.14,77.123Z" transform="translate(-444.19 -76.281)" fill="#ebebeb"/>
                  </g>
                </g>
              </g>
            </g>
            <g id="Grupo_131538" data-name="Grupo 131538" transform="translate(0 0.507)">
              <path id="Trazado_168344" data-name="Trazado 168344" d="M418.846,77.856l-1.079-.993,1.078-1.033.167.174-.892.855.89.819Z" transform="translate(-417.767 -75.829)" fill="#fff"/>
            </g>
            <g id="Grupo_131539" data-name="Grupo 131539" transform="translate(3.519 0.505)">
              <path id="Trazado_168345" data-name="Trazado 168345" d="M425.332,75.826l1.079.994-1.077,1.033-.167-.174.892-.855-.89-.819Z" transform="translate(-425.166 -75.826)" fill="#fff"/>
            </g>
            <g id="Grupo_131541" data-name="Grupo 131541" transform="translate(118.642 0.091)">
              <path id="Trazado_168346" data-name="Trazado 168346" d="M669.433,77.6a1.4,1.4,0,0,1-.411.172,1.427,1.427,0,1,1,.411-.172Z" transform="translate(-667.255 -74.956)" fill="#dbdbdb"/>
              <g id="Grupo_131540" data-name="Grupo 131540" transform="translate(0.677 0.83)">
                <path id="Trazado_168347" data-name="Trazado 168347" d="M670.212,77.136a.434.434,0,1,1-.434-.434A.434.434,0,0,1,670.212,77.136Z" transform="translate(-669.027 -76.702)" fill="#fff"/>
                <path id="Trazado_168348" data-name="Trazado 168348" d="M670.179,79.307v.179a1.4,1.4,0,0,1-.411.172,1.422,1.422,0,0,1-1.09-.173v-.179a.751.751,0,0,1,1.5,0Z" transform="translate(-668.678 -77.675)" fill="#fff"/>
              </g>
            </g>
            <g id="Grupo_131543" data-name="Grupo 131543" transform="translate(6.579)">
              <path id="Trazado_168349" data-name="Trazado 168349" d="M433.005,77.573a1.4,1.4,0,1,1,1.393-1.587l-.254.033a1.149,1.149,0,1,0-.286.918l.19.172A1.407,1.407,0,0,1,433.005,77.573Z" transform="translate(-431.601 -74.764)" fill="#fff"/>
              <g id="Grupo_131542" data-name="Grupo 131542" transform="translate(1.916 0.528)">
                <path id="Trazado_168350" data-name="Trazado 168350" d="M435.631,76.235l.086-.127.628.423.376-.657.133.077-.459.8Z" transform="translate(-435.631 -75.874)" fill="#fff"/>
              </g>
            </g>
          </g>
          <g id="Grupo_131546" data-name="Grupo 131546" transform="translate(14.842)">
            <path id="Trazado_168351" data-name="Trazado 168351" d="M466.005,56.219H443.49L442.467,60.6h24.562Z" transform="translate(-442.467 -56.219)" fill="#008f85"/>
            <g id="Grupo_131545" data-name="Grupo 131545" transform="translate(20.862 1.426)">
              <rect id="Rectángulo_36086" data-name="Rectángulo 36086" width="0.213" height="1.956" transform="translate(0 0.15) rotate(-45.009)" fill="#008f85"/>
              <rect id="Rectángulo_36087" data-name="Rectángulo 36087" width="0.213" height="1.956" transform="translate(1.384 0) rotate(45.009)" fill="#008f85"/>
            </g>
          </g>
          <g id="Grupo_131551" data-name="Grupo 131551" transform="translate(40.575 38.878)">
            <g id="Grupo_131550" data-name="Grupo 131550" transform="translate(0 6.908)">
              <g id="Grupo_131547" data-name="Grupo 131547">
                <rect id="Rectángulo_36088" data-name="Rectángulo 36088" width="48.362" height="6.598" transform="translate(0.238 0.238)" fill="#fff"/>
                <path id="Trazado_168352" data-name="Trazado 168352" d="M545.417,159.575H496.58V152.5h48.837Zm-48.362-.476h47.886v-6.123H497.056Z" transform="translate(-496.58 -152.501)" fill="#c7c7c7"/>
              </g>
              <rect id="Rectángulo_36089" data-name="Rectángulo 36089" width="6.598" height="6.598" transform="translate(42.001 0.238)" fill="#ffc727"/>
              <g id="Grupo_131549" data-name="Grupo 131549" transform="translate(43.208 1.225)">
                <g id="Grupo_131548" data-name="Grupo 131548">
                  <path id="Trazado_168353" data-name="Trazado 168353" d="M593.866,161.5l-.61.462-1.129-1.491-.413-.545a.982.982,0,0,0,.237-.134.993.993,0,0,0,.313-.406l.439.578Z" transform="translate(-589.682 -157.335)" fill="#fff"/>
                  <path id="Trazado_168354" data-name="Trazado 168354" d="M590.425,155.729a1.664,1.664,0,1,0-.539,2.481,1.735,1.735,0,0,0,.231-.149,1.663,1.663,0,0,0,.309-2.333Zm-.715,1.8a.982.982,0,0,1-.237.134.993.993,0,1,1,.237-.134Z" transform="translate(-587.441 -155.077)" fill="#fff"/>
                </g>
              </g>
              <rect id="Rectángulo_36090" data-name="Rectángulo 36090" width="0.354" height="4.004" transform="translate(1.617 1.535)" fill="#263238"/>
            </g>
            <rect id="Rectángulo_36091" data-name="Rectángulo 36091" width="11.171" height="3.54" transform="translate(0.238 16.317)" fill="#c7c7c7"/>
            <rect id="Rectángulo_36092" data-name="Rectángulo 36092" width="11.171" height="3.54" transform="translate(18.833 16.317)" fill="#ffc727"/>
            <rect id="Rectángulo_36093" data-name="Rectángulo 36093" width="11.171" height="3.54" transform="translate(37.567 16.317)" fill="#c7c7c7"/>
            <rect id="Rectángulo_36094" data-name="Rectángulo 36094" width="30.849" height="2.143" transform="translate(8.994)" fill="#37474f"/>
          </g>
        </g>
      </g>
      <g id="Grupo_131582" data-name="Grupo 131582" transform="translate(0 53.072)">
        <g id="Grupo_131559" data-name="Grupo 131559">
          <g id="Grupo_131554" data-name="Grupo 131554" transform="translate(0.002 5.53)">
            <rect id="Rectángulo_36095" data-name="Rectángulo 36095" width="129.513" height="78.782" transform="translate(0.237 0.238)" fill="#fff"/>
            <path id="Trazado_168355" data-name="Trazado 168355" d="M197.2,255.564l-129.513.177h-.177v-.177l-.06-78.781v-.238h.237l129.512.1h.139v.139Zm0,0-.139-78.781.138.138-129.512.1.237-.237-.06,78.781-.177-.177Z" transform="translate(-67.446 -176.545)" fill="#dbdbdb"/>
          </g>
          <g id="Grupo_131556" data-name="Grupo 131556">
            <rect id="Rectángulo_36096" data-name="Rectángulo 36096" width="129.927" height="5.768" fill="#1d272b"/>
            <g id="Grupo_131555" data-name="Grupo 131555" transform="translate(3.127 2.102)">
              <path id="Trazado_168356" data-name="Trazado 168356" d="M75.581,170.118a.782.782,0,1,1-.782-.782A.782.782,0,0,1,75.581,170.118Z" transform="translate(-74.017 -169.336)" fill="#ebebeb"/>
              <path id="Trazado_168357" data-name="Trazado 168357" d="M82.3,170.118a.782.782,0,1,1-.782-.782A.783.783,0,0,1,82.3,170.118Z" transform="translate(-77.538 -169.336)" fill="#fff"/>
              <path id="Trazado_168358" data-name="Trazado 168358" d="M89.009,170.118a.782.782,0,1,1-.782-.782A.782.782,0,0,1,89.009,170.118Z" transform="translate(-81.059 -169.336)" fill="#dbdbdb"/>
            </g>
          </g>
          <g id="Grupo_131557" data-name="Grupo 131557" transform="translate(127.455 5.768)">
            <rect id="Rectángulo_36097" data-name="Rectángulo 36097" width="2.297" height="78.782" fill="#dbdbdb"/>
            <path id="Trazado_168359" data-name="Trazado 168359" d="M337.219,204.866h0a.593.593,0,0,1-.593-.593V178.607a.593.593,0,0,1,.593-.593h0a.594.594,0,0,1,.594.593v25.665A.593.593,0,0,1,337.219,204.866Z" transform="translate(-336.072 -177.553)" fill="#a6a6a6"/>
          </g>
          <g id="Grupo_131558" data-name="Grupo 131558" transform="translate(41.345 2.7)">
            <rect id="Rectángulo_36098" data-name="Rectángulo 36098" width="0.19" height="1.749" transform="translate(0.779)" fill="#a6a6a6"/>
            <rect id="Rectángulo_36099" data-name="Rectángulo 36099" width="0.19" height="1.749" transform="translate(1.749 0.779) rotate(90)" fill="#a6a6a6"/>
          </g>
        </g>
        <g id="Grupo_131581" data-name="Grupo 131581" transform="translate(0.002 1.381)">
          <g id="Grupo_131560" data-name="Grupo 131560" transform="translate(0 4.149)">
            <rect id="Rectángulo_36100" data-name="Rectángulo 36100" width="127.215" height="78.782" transform="translate(0.237 0.238)" fill="#fff"/>
            <path id="Trazado_168360" data-name="Trazado 168360" d="M194.9,255.564l-127.215.176h-.176v-.176l-.061-78.781v-.238h.237l127.215.1h.139v.139Zm0,0-.139-78.781.139.139-127.215.1.237-.237-.061,78.781-.176-.176Z" transform="translate(-67.446 -176.545)" fill="#dbdbdb"/>
          </g>
          <rect id="Rectángulo_36101" data-name="Rectángulo 36101" width="127.215" height="12.155" transform="translate(0.237 4.386)" fill="#008f85"/>
          <g id="Grupo_131573" data-name="Grupo 131573" transform="translate(3.096 8.819)">
            <g id="Grupo_131566" data-name="Grupo 131566" transform="translate(11.685 0.007)">
              <g id="Grupo_131561" data-name="Grupo 131561">
                <rect id="Rectángulo_36102" data-name="Rectángulo 36102" width="104.815" height="2.963" transform="translate(0.03 0.03)" fill="#fff"/>
                <path id="Trazado_168361" data-name="Trazado 168361" d="M203.4,189.406H98.529v-3.024H203.4Zm-104.815-.06H203.344v-2.9H98.589Z" transform="translate(-98.529 -186.382)" fill="#c7c7c7"/>
              </g>
              <g id="Grupo_131565" data-name="Grupo 131565" transform="translate(0.88 0.714)">
                <g id="Grupo_131564" data-name="Grupo 131564">
                  <g id="Grupo_131562" data-name="Grupo 131562" transform="translate(0.659 0.683)">
                    <path id="Trazado_168362" data-name="Trazado 168362" d="M102.67,190.206l-.211.159-.322-.426-.067-.089-.069-.092,0,0a.37.37,0,0,0,.081-.047l.016-.013a.484.484,0,0,0,.1-.119l0,0,.074.1.069.09Z" transform="translate(-101.886 -189.453)" fill="#ebebeb"/>
                    <path id="Trazado_168363" data-name="Trazado 168363" d="M102.218,189.632l-.069-.09a.407.407,0,0,0,.058-.107l-.08-.107,0-.007a.37.37,0,0,1-.022.067.3.3,0,0,1-.027.054.484.484,0,0,1-.1.119.272.272,0,0,0,.029-.025l0,0,.067.087.069.09.253.333-.031.025-.251-.331-.068-.089-.067-.09,0,0-.016.013a.371.371,0,0,1-.081.047.142.142,0,0,1-.027.013.647.647,0,0,1-.083.025l0,0,.074.1a.574.574,0,0,0,.107-.042l.067.089.322.426.211-.159Z" transform="translate(-101.765 -189.32)" fill="#ebebeb"/>
                  </g>
                  <g id="Grupo_131563" data-name="Grupo 131563">
                    <path id="Trazado_168364" data-name="Trazado 168364" d="M101.408,188.107a.574.574,0,0,0-.91.7.565.565,0,0,0,.616.2.548.548,0,0,0,.185-.092.076.076,0,0,0,.016-.013.285.285,0,0,0,.027-.027.478.478,0,0,0,.078-.085.407.407,0,0,0,.058-.107A.573.573,0,0,0,101.408,188.107Zm-.036.526a.3.3,0,0,1-.027.054.484.484,0,0,1-.1.119l-.016.013a.371.371,0,0,1-.081.047.139.139,0,0,1-.027.013.637.637,0,0,1-.083.025.53.53,0,0,1-.085.007.461.461,0,0,1-.363-.177.455.455,0,1,1,.8-.168A.37.37,0,0,1,101.372,188.634Z" transform="translate(-100.379 -187.884)" fill="#ebebeb"/>
                    <path id="Trazado_168365" data-name="Trazado 168365" d="M101.479,188.681a.573.573,0,1,0-.981.126.565.565,0,0,0,.616.2.571.571,0,0,0,.107-.042l.067.089a.438.438,0,0,0,.08-.051l.014-.011a.161.161,0,0,0,.029-.027.477.477,0,0,0,.078-.085l-.069-.09A.407.407,0,0,0,101.479,188.681Zm-.15.045a.344.344,0,0,1-.054.06.255.255,0,0,1-.027.025s-.011.009-.016.013a.341.341,0,0,1-.065.04l-.016.007a.306.306,0,0,1-.112.039.453.453,0,0,1-.455-.171.461.461,0,0,1,.085-.647.46.46,0,0,1,.647.085.455.455,0,0,1,.081.4.411.411,0,0,1-.052.119A.226.226,0,0,1,101.33,188.726Z" transform="translate(-100.379 -187.884)" fill="#ebebeb"/>
                  </g>
                </g>
              </g>
            </g>
            <g id="Grupo_131567" data-name="Grupo 131567" transform="translate(0 0.506)">
              <path id="Trazado_168366" data-name="Trazado 168366" d="M75.035,189.458l-1.079-.993,1.078-1.033.167.174-.892.855.89.819Z" transform="translate(-73.956 -187.432)" fill="#fff"/>
            </g>
            <g id="Grupo_131568" data-name="Grupo 131568" transform="translate(3.519 0.505)">
              <path id="Trazado_168367" data-name="Trazado 168367" d="M81.521,187.428l1.079.993-1.077,1.033-.167-.174.892-.855-.89-.819Z" transform="translate(-81.356 -187.428)" fill="#fff"/>
            </g>
            <g id="Grupo_131570" data-name="Grupo 131570" transform="translate(118.643 0.091)">
              <path id="Trazado_168368" data-name="Trazado 168368" d="M325.623,189.2a1.427,1.427,0,1,1,.636-1.552A1.417,1.417,0,0,1,325.623,189.2Z" transform="translate(-323.445 -186.558)" fill="#dbdbdb"/>
              <g id="Grupo_131569" data-name="Grupo 131569" transform="translate(0.677 0.83)">
                <circle id="Elipse_4487" data-name="Elipse 4487" cx="0.434" cy="0.434" r="0.434" transform="translate(0.316)" fill="#fff"/>
                <path id="Trazado_168369" data-name="Trazado 168369" d="M326.369,190.91v.179a1.426,1.426,0,0,1-1.5,0v-.178a.751.751,0,1,1,1.5,0Z" transform="translate(-324.868 -189.277)" fill="#fff"/>
              </g>
            </g>
            <g id="Grupo_131572" data-name="Grupo 131572" transform="translate(6.579)">
              <path id="Trazado_168370" data-name="Trazado 168370" d="M89.2,189.176a1.4,1.4,0,1,1,1.392-1.587l-.253.033a1.149,1.149,0,1,0-.286.919l.19.171A1.408,1.408,0,0,1,89.2,189.176Z" transform="translate(-87.791 -186.367)" fill="#fff"/>
              <g id="Grupo_131571" data-name="Grupo 131571" transform="translate(1.916 0.528)">
                <path id="Trazado_168371" data-name="Trazado 168371" d="M91.82,187.838l.086-.127.628.423.376-.657.133.077-.459.8Z" transform="translate(-91.82 -187.477)" fill="#fff"/>
              </g>
            </g>
          </g>
          <g id="Grupo_131575" data-name="Grupo 131575" transform="translate(14.842)">
            <path id="Trazado_168372" data-name="Trazado 168372" d="M122.194,167.821H99.68l-1.024,4.386h24.562Z" transform="translate(-98.656 -167.821)" fill="#008f85"/>
            <g id="Grupo_131574" data-name="Grupo 131574" transform="translate(20.862 1.426)">
              <rect id="Rectángulo_36103" data-name="Rectángulo 36103" width="0.213" height="1.956" transform="translate(0 0.15) rotate(-44.991)" fill="#dbdbdb"/>
              <rect id="Rectángulo_36104" data-name="Rectángulo 36104" width="0.213" height="1.956" transform="translate(1.383 0) rotate(45)" fill="#dbdbdb"/>
            </g>
          </g>
          <g id="Grupo_131580" data-name="Grupo 131580" transform="translate(40.575 38.878)">
            <g id="Grupo_131579" data-name="Grupo 131579" transform="translate(0 6.909)">
              <g id="Grupo_131576" data-name="Grupo 131576">
                <rect id="Rectángulo_36105" data-name="Rectángulo 36105" width="48.362" height="6.598" transform="translate(0.238 0.238)" fill="#fff"/>
                <path id="Trazado_168373" data-name="Trazado 168373" d="M201.607,271.178H152.769V264.1h48.838Zm-48.362-.476h47.887V264.58H153.245Z" transform="translate(-152.769 -264.104)" fill="#c7c7c7"/>
              </g>
              <rect id="Rectángulo_36106" data-name="Rectángulo 36106" width="6.598" height="6.598" transform="translate(42.001 0.238)" fill="#ffc727"/>
              <g id="Grupo_131578" data-name="Grupo 131578" transform="translate(43.209 1.225)">
                <g id="Grupo_131577" data-name="Grupo 131577">
                  <path id="Trazado_168374" data-name="Trazado 168374" d="M250.055,273.1l-.61.462-1.129-1.491-.413-.545a.948.948,0,0,0,.237-.134.989.989,0,0,0,.313-.406l.439.578Z" transform="translate(-245.871 -268.938)" fill="#fff"/>
                  <path id="Trazado_168375" data-name="Trazado 168375" d="M246.614,267.331a1.663,1.663,0,1,0,.037,1.974A1.664,1.664,0,0,0,246.614,267.331Zm-.715,1.8a.949.949,0,0,1-.237.134.992.992,0,1,1,.237-.134Z" transform="translate(-243.631 -266.68)" fill="#fff"/>
                </g>
              </g>
              <rect id="Rectángulo_36107" data-name="Rectángulo 36107" width="0.354" height="4.004" transform="translate(1.618 1.535)" fill="#263238"/>
            </g>
            <rect id="Rectángulo_36108" data-name="Rectángulo 36108" width="11.171" height="3.54" transform="translate(0.238 16.317)" fill="#c7c7c7"/>
            <rect id="Rectángulo_36109" data-name="Rectángulo 36109" width="11.171" height="3.54" transform="translate(18.833 16.317)" fill="#ffc727"/>
            <rect id="Rectángulo_36110" data-name="Rectángulo 36110" width="11.171" height="3.54" transform="translate(37.567 16.317)" fill="#c7c7c7"/>
            <rect id="Rectángulo_36111" data-name="Rectángulo 36111" width="30.849" height="2.143" transform="translate(8.994)" fill="#37474f"/>
          </g>
        </g>
      </g>
    </g>
    <g id="Screen" transform="translate(93.363 69.226)">
      <g id="Grupo_131587" data-name="Grupo 131587">
        <rect id="Rectángulo_36112" data-name="Rectángulo 36112" width="240.672" height="146.399" transform="translate(0 10.718)" fill="#fff" stroke="#dbdbdb" stroke-miterlimit="10" stroke-width="1"/>
        <g id="Grupo_131584" data-name="Grupo 131584">
          <rect id="Rectángulo_36113" data-name="Rectángulo 36113" width="240.672" height="10.718" fill="#263238"/>
          <g id="Grupo_131583" data-name="Grupo 131583" transform="translate(5.366 3.906)">
            <path id="Trazado_168376" data-name="Trazado 168376" d="M136.14,96.441a1.453,1.453,0,1,1-1.453-1.453A1.453,1.453,0,0,1,136.14,96.441Z" transform="translate(-133.234 -94.988)" fill="#c7c7c7"/>
            <path id="Trazado_168377" data-name="Trazado 168377" d="M148.617,96.441a1.453,1.453,0,1,1-1.453-1.453A1.453,1.453,0,0,1,148.617,96.441Z" transform="translate(-139.778 -94.988)" fill="#fff"/>
            <path id="Trazado_168378" data-name="Trazado 168378" d="M161.094,96.441a1.453,1.453,0,1,1-1.453-1.453A1.453,1.453,0,0,1,161.094,96.441Z" transform="translate(-146.321 -94.988)" fill="#ffc727"/>
          </g>
        </g>
        <g id="Grupo_131585" data-name="Grupo 131585" transform="translate(236.403 10.718)">
          <rect id="Rectángulo_36114" data-name="Rectángulo 36114" width="4.269" height="146.399" transform="translate(0)" fill="#dbdbdb"/>
          <path id="Trazado_168379" data-name="Trazado 168379" d="M622.34,161.013h0a1.1,1.1,0,0,1-1.1-1.1V112.217a1.1,1.1,0,0,1,1.1-1.1h0a1.1,1.1,0,0,1,1.1,1.1V159.91A1.1,1.1,0,0,1,622.34,161.013Z" transform="translate(-620.208 -110.258)" fill="#a6a6a6"/>
        </g>
        <g id="Grupo_131586" data-name="Grupo 131586" transform="translate(166.455 4.825)">
          <rect id="Rectángulo_36115" data-name="Rectángulo 36115" width="0.395" height="3.636" transform="translate(1.62)" fill="#455a64"/>
          <rect id="Rectángulo_36116" data-name="Rectángulo 36116" width="0.395" height="3.636" transform="translate(3.636 1.62) rotate(90)" fill="#455a64"/>
        </g>
      </g>
    </g>
    <g id="Tabs" transform="translate(93.363 71.793)">
      <g id="Grupo_131607" data-name="Grupo 131607" transform="translate(0 0)">
        <rect id="Rectángulo_36117" data-name="Rectángulo 36117" width="236.403" height="146.399" transform="translate(0 8.151)" fill="#fff" stroke="#dbdbdb" stroke-miterlimit="10" stroke-width="1"/>
        <rect id="Rectángulo_36118" data-name="Rectángulo 36118" width="236.403" height="22.587" transform="translate(0 8.151)" fill="#ebebeb"/>
        <g id="Grupo_131600" data-name="Grupo 131600" transform="translate(5.312 16.389)">
          <g id="Grupo_131593" data-name="Grupo 131593" transform="translate(21.715 0.013)">
            <g id="Grupo_131588" data-name="Grupo 131588">
              <rect id="Rectángulo_36119" data-name="Rectángulo 36119" width="194.777" height="5.507" transform="translate(0.056 0.056)" fill="#fff"/>
              <path id="Trazado_168380" data-name="Trazado 168380" d="M373.674,132.283H178.785v-5.619H373.674ZM178.9,132.17H373.562v-5.395H178.9Z" transform="translate(-178.785 -126.663)" fill="#c7c7c7"/>
            </g>
            <g id="Grupo_131592" data-name="Grupo 131592" transform="translate(1.635 1.328)">
              <g id="Grupo_131591" data-name="Grupo 131591">
                <g id="Grupo_131589" data-name="Grupo 131589" transform="translate(1.225 1.269)">
                  <path id="Trazado_168381" data-name="Trazado 168381" d="M186.48,133.77l-.391.3-.6-.791-.125-.166-.129-.171-.009-.009a.683.683,0,0,0,.15-.087c.008-.009.02-.017.029-.025a.867.867,0,0,0,.187-.221l0,.009.137.179.129.166Z" transform="translate(-185.023 -132.371)" fill="#ebebeb"/>
                  <path id="Trazado_168382" data-name="Trazado 168382" d="M185.64,132.7l-.129-.166a.77.77,0,0,0,.108-.2l-.15-.2-.009-.013a.7.7,0,0,1-.041.125.612.612,0,0,1-.05.1.87.87,0,0,1-.187.221.518.518,0,0,0,.054-.046l0,.008.125.163.129.166.47.62-.058.046-.467-.616-.125-.166-.125-.166-.008-.009c-.009.009-.021.017-.029.025a.684.684,0,0,1-.15.087.274.274,0,0,1-.05.025,1.2,1.2,0,0,1-.154.046l0,.009.137.179a1,1,0,0,0,.2-.079l.125.166.6.791.391-.3Z" transform="translate(-184.799 -132.123)" fill="#ebebeb"/>
                </g>
                <g id="Grupo_131590" data-name="Grupo 131590">
                  <path id="Trazado_168383" data-name="Trazado 168383" d="M184.134,129.87a1.066,1.066,0,0,0-1.69,1.3,1.048,1.048,0,0,0,1.145.37,1,1,0,0,0,.2-.079,1.122,1.122,0,0,0,.146-.092.2.2,0,0,0,.029-.025.621.621,0,0,0,.05-.05.869.869,0,0,0,.146-.158.77.77,0,0,0,.108-.2A1.066,1.066,0,0,0,184.134,129.87Zm-.067.978a.611.611,0,0,1-.05.1.869.869,0,0,1-.187.221c-.009.009-.021.017-.029.025a.683.683,0,0,1-.15.087.274.274,0,0,1-.05.025,1.2,1.2,0,0,1-.154.046,1.027,1.027,0,0,1-.158.012.843.843,0,1,1,.82-.641A.7.7,0,0,1,184.068,130.849Z" transform="translate(-182.222 -129.455)" fill="#ebebeb"/>
                  <path id="Trazado_168384" data-name="Trazado 168384" d="M184.267,130.936a1.064,1.064,0,1,0-1.823.233,1.048,1.048,0,0,0,1.145.37,1,1,0,0,0,.2-.079l.125.166a.855.855,0,0,0,.15-.1c.008-.009.017-.013.025-.021a.305.305,0,0,0,.054-.05.889.889,0,0,0,.146-.158l-.129-.166A.77.77,0,0,0,184.267,130.936Zm-.279.083a.625.625,0,0,1-.1.112.554.554,0,0,1-.05.046c-.008.008-.02.017-.029.025a.74.74,0,0,1-.121.075l-.029.012a.565.565,0,0,1-.208.071.84.84,0,0,1-.845-.317.855.855,0,0,1,.158-1.2.854.854,0,0,1,1.2.158.845.845,0,0,1,.15.737.738.738,0,0,1-.1.221A.421.421,0,0,1,183.988,131.019Z" transform="translate(-182.222 -129.455)" fill="#ebebeb"/>
                </g>
              </g>
            </g>
          </g>
          <g id="Grupo_131594" data-name="Grupo 131594" transform="translate(0 0.941)">
            <path id="Trazado_168385" data-name="Trazado 168385" d="M135.127,132.381l-2.006-1.846,2-1.92.311.324-1.658,1.589,1.654,1.522Z" transform="translate(-133.121 -128.615)" fill="#fff"/>
          </g>
          <g id="Grupo_131595" data-name="Grupo 131595" transform="translate(6.539 0.938)">
            <path id="Trazado_168386" data-name="Trazado 168386" d="M147.179,128.608l2.006,1.846-2,1.92-.311-.324,1.658-1.589-1.654-1.523Z" transform="translate(-146.871 -128.608)" fill="#fff"/>
          </g>
          <g id="Grupo_131597" data-name="Grupo 131597" transform="translate(220.472 0.169)">
            <path id="Trazado_168387" data-name="Trazado 168387" d="M600.791,131.9a2.653,2.653,0,0,1-2.79,0,2.652,2.652,0,1,1,2.79,0Z" transform="translate(-596.743 -126.992)" fill="#dbdbdb"/>
            <g id="Grupo_131596" data-name="Grupo 131596" transform="translate(1.258 1.543)">
              <path id="Trazado_168388" data-name="Trazado 168388" d="M602.239,131.044a.807.807,0,1,1-.807-.807A.808.808,0,0,1,602.239,131.044Z" transform="translate(-600.036 -130.237)" fill="#fff"/>
              <path id="Trazado_168389" data-name="Trazado 168389" d="M602.178,135.078v.333a2.653,2.653,0,0,1-2.79,0v-.332a1.4,1.4,0,0,1,2.79,0Z" transform="translate(-599.388 -132.044)" fill="#fff"/>
            </g>
          </g>
          <g id="Grupo_131599" data-name="Grupo 131599" transform="translate(12.225)">
            <path id="Trazado_168390" data-name="Trazado 168390" d="M161.439,131.856a2.61,2.61,0,1,1,2.588-2.95l-.471.061a2.135,2.135,0,1,0-.531,1.707l.353.319A2.616,2.616,0,0,1,161.439,131.856Z" transform="translate(-158.829 -126.636)" fill="#fff"/>
            <g id="Grupo_131598" data-name="Grupo 131598" transform="translate(3.561 0.981)">
              <path id="Trazado_168391" data-name="Trazado 168391" d="M166.318,129.369l.159-.237,1.166.787.7-1.221.248.142-.852,1.487Z" transform="translate(-166.318 -128.699)" fill="#fff"/>
            </g>
          </g>
        </g>
        <g id="Grupo_131602" data-name="Grupo 131602" transform="translate(116.775)">
          <path id="Trazado_168392" data-name="Trazado 168392" d="M411.253,92.172H369.414l-1.9,8.151h45.643Z" transform="translate(-367.512 -92.172)" fill="#ebebeb"/>
          <g id="Grupo_131601" data-name="Grupo 131601" transform="translate(38.768 2.65)">
            <rect id="Rectángulo_36120" data-name="Rectángulo 36120" width="0.395" height="3.636" transform="translate(0 0.28) rotate(-44.995)" fill="#dbdbdb"/>
            <rect id="Rectángulo_36121" data-name="Rectángulo 36121" width="0.395" height="3.636" transform="translate(2.57 0) rotate(44.995)" fill="#dbdbdb"/>
          </g>
        </g>
        <g id="Grupo_131606" data-name="Grupo 131606" transform="translate(75.401 72.247)">
          <g id="Grupo_131605" data-name="Grupo 131605" transform="translate(0 13.28)">
            <rect id="Rectángulo_36122" data-name="Rectángulo 36122" width="89.871" height="12.262" fill="#fff" stroke="#c7c7c7" stroke-miterlimit="10" stroke-width="1"/>
            <rect id="Rectángulo_36123" data-name="Rectángulo 36123" width="12.262" height="12.262" transform="translate(77.609)" fill="#ffc727"/>
            <g id="Grupo_131604" data-name="Grupo 131604" transform="translate(79.852 1.835)">
              <g id="Grupo_131603" data-name="Grupo 131603">
                <path id="Trazado_168393" data-name="Trazado 168393" d="M460.364,287.81l-1.133.858-2.1-2.771-.768-1.013a1.8,1.8,0,0,0,.44-.249,1.846,1.846,0,0,0,.582-.754l.816,1.075Z" transform="translate(-452.59 -280.077)" fill="#fff"/>
                <path id="Trazado_168394" data-name="Trazado 168394" d="M453.97,277.091a3.09,3.09,0,1,0,.068,3.669A3.092,3.092,0,0,0,453.97,277.091Zm-1.329,3.348a1.8,1.8,0,0,1-.44.249,1.844,1.844,0,1,1,.44-.249Z" transform="translate(-448.426 -275.881)" fill="#fff"/>
              </g>
            </g>
            <rect id="Rectángulo_36124" data-name="Rectángulo 36124" width="0.658" height="7.441" transform="translate(2.564 2.41)" fill="#263238"/>
          </g>
          <rect id="Rectángulo_36125" data-name="Rectángulo 36125" width="20.759" height="6.578" transform="translate(0 30.321)" fill="#c7c7c7"/>
          <rect id="Rectángulo_36126" data-name="Rectángulo 36126" width="20.759" height="6.578" transform="translate(34.556 30.321)" fill="#ffc727"/>
          <rect id="Rectángulo_36127" data-name="Rectángulo 36127" width="20.759" height="6.578" transform="translate(69.369 30.321)" fill="#c7c7c7"/>
          <rect id="Rectángulo_36128" data-name="Rectángulo 36128" width="57.327" height="3.982" transform="translate(16.272)" fill="#37474f"/>
        </g>
      </g>
      <g id="Grupo_131627" data-name="Grupo 131627" transform="translate(0 0)">
        <rect id="Rectángulo_36129" data-name="Rectángulo 36129" width="236.403" height="146.399" transform="translate(0 8.151)" fill="#fff" stroke="#dbdbdb" stroke-miterlimit="10" stroke-width="1"/>
        <rect id="Rectángulo_36130" data-name="Rectángulo 36130" width="236.403" height="22.587" transform="translate(0 8.151)" fill="#455a64"/>
        <g id="Grupo_131620" data-name="Grupo 131620" transform="translate(5.312 16.389)">
          <g id="Grupo_131613" data-name="Grupo 131613" transform="translate(21.715 0.013)">
            <g id="Grupo_131608" data-name="Grupo 131608">
              <rect id="Rectángulo_36131" data-name="Rectángulo 36131" width="194.777" height="5.507" transform="translate(0.056 0.056)" fill="#fff"/>
              <path id="Trazado_168395" data-name="Trazado 168395" d="M373.674,132.283H178.785v-5.619H373.674ZM178.9,132.17H373.562v-5.395H178.9Z" transform="translate(-178.785 -126.663)" fill="#c7c7c7"/>
            </g>
            <g id="Grupo_131612" data-name="Grupo 131612" transform="translate(1.635 1.328)">
              <g id="Grupo_131611" data-name="Grupo 131611">
                <g id="Grupo_131609" data-name="Grupo 131609" transform="translate(1.225 1.269)">
                  <path id="Trazado_168396" data-name="Trazado 168396" d="M186.48,133.77l-.391.3-.6-.791-.125-.166-.129-.171-.009-.009a.683.683,0,0,0,.15-.087c.008-.009.02-.017.029-.025a.867.867,0,0,0,.187-.221l0,.009.137.179.129.166Z" transform="translate(-185.023 -132.371)" fill="#ebebeb"/>
                  <path id="Trazado_168397" data-name="Trazado 168397" d="M185.64,132.7l-.129-.166a.77.77,0,0,0,.108-.2l-.15-.2-.009-.013a.7.7,0,0,1-.041.125.612.612,0,0,1-.05.1.87.87,0,0,1-.187.221.518.518,0,0,0,.054-.046l0,.008.125.163.129.166.47.62-.058.046-.467-.616-.125-.166-.125-.166-.008-.009c-.009.009-.021.017-.029.025a.684.684,0,0,1-.15.087.274.274,0,0,1-.05.025,1.2,1.2,0,0,1-.154.046l0,.009.137.179a1,1,0,0,0,.2-.079l.125.166.6.791.391-.3Z" transform="translate(-184.799 -132.123)" fill="#ebebeb"/>
                </g>
                <g id="Grupo_131610" data-name="Grupo 131610">
                  <path id="Trazado_168398" data-name="Trazado 168398" d="M184.134,129.87a1.066,1.066,0,0,0-1.69,1.3,1.048,1.048,0,0,0,1.145.37,1,1,0,0,0,.2-.079,1.122,1.122,0,0,0,.146-.092.2.2,0,0,0,.029-.025.621.621,0,0,0,.05-.05.869.869,0,0,0,.146-.158.77.77,0,0,0,.108-.2A1.066,1.066,0,0,0,184.134,129.87Zm-.067.978a.611.611,0,0,1-.05.1.869.869,0,0,1-.187.221c-.009.009-.021.017-.029.025a.683.683,0,0,1-.15.087.274.274,0,0,1-.05.025,1.2,1.2,0,0,1-.154.046,1.027,1.027,0,0,1-.158.012.843.843,0,1,1,.82-.641A.7.7,0,0,1,184.068,130.849Z" transform="translate(-182.222 -129.455)" fill="#ebebeb"/>
                  <path id="Trazado_168399" data-name="Trazado 168399" d="M184.267,130.936a1.064,1.064,0,1,0-1.823.233,1.048,1.048,0,0,0,1.145.37,1,1,0,0,0,.2-.079l.125.166a.855.855,0,0,0,.15-.1c.008-.009.017-.013.025-.021a.305.305,0,0,0,.054-.05.889.889,0,0,0,.146-.158l-.129-.166A.77.77,0,0,0,184.267,130.936Zm-.279.083a.625.625,0,0,1-.1.112.554.554,0,0,1-.05.046c-.008.008-.02.017-.029.025a.74.74,0,0,1-.121.075l-.029.012a.565.565,0,0,1-.208.071.84.84,0,0,1-.845-.317.855.855,0,0,1,.158-1.2.854.854,0,0,1,1.2.158.845.845,0,0,1,.15.737.738.738,0,0,1-.1.221A.421.421,0,0,1,183.988,131.019Z" transform="translate(-182.222 -129.455)" fill="#ebebeb"/>
                </g>
              </g>
            </g>
          </g>
          <g id="Grupo_131614" data-name="Grupo 131614" transform="translate(0 0.941)">
            <path id="Trazado_168400" data-name="Trazado 168400" d="M135.127,132.381l-2.006-1.846,2-1.92.311.324-1.658,1.589,1.654,1.522Z" transform="translate(-133.121 -128.615)" fill="#fff"/>
          </g>
          <g id="Grupo_131615" data-name="Grupo 131615" transform="translate(6.539 0.938)">
            <path id="Trazado_168401" data-name="Trazado 168401" d="M147.179,128.608l2.006,1.846-2,1.92-.311-.324,1.658-1.589-1.654-1.523Z" transform="translate(-146.871 -128.608)" fill="#fff"/>
          </g>
          <g id="Grupo_131617" data-name="Grupo 131617" transform="translate(220.472 0.169)">
            <path id="Trazado_168402" data-name="Trazado 168402" d="M600.791,131.9a2.653,2.653,0,0,1-2.79,0,2.652,2.652,0,1,1,2.79,0Z" transform="translate(-596.743 -126.992)" fill="#dbdbdb"/>
            <g id="Grupo_131616" data-name="Grupo 131616" transform="translate(1.258 1.543)">
              <path id="Trazado_168403" data-name="Trazado 168403" d="M602.239,131.044a.807.807,0,1,1-.807-.807A.808.808,0,0,1,602.239,131.044Z" transform="translate(-600.036 -130.237)" fill="#fff"/>
              <path id="Trazado_168404" data-name="Trazado 168404" d="M602.178,135.078v.333a2.653,2.653,0,0,1-2.79,0v-.332a1.4,1.4,0,0,1,2.79,0Z" transform="translate(-599.388 -132.044)" fill="#fff"/>
            </g>
          </g>
          <g id="Grupo_131619" data-name="Grupo 131619" transform="translate(12.225)">
            <path id="Trazado_168405" data-name="Trazado 168405" d="M161.439,131.856a2.61,2.61,0,1,1,2.588-2.95l-.471.061a2.135,2.135,0,1,0-.531,1.707l.353.319A2.616,2.616,0,0,1,161.439,131.856Z" transform="translate(-158.829 -126.636)" fill="#fff"/>
            <g id="Grupo_131618" data-name="Grupo 131618" transform="translate(3.561 0.981)">
              <path id="Trazado_168406" data-name="Trazado 168406" d="M166.318,129.369l.159-.237,1.166.787.7-1.221.248.142-.852,1.487Z" transform="translate(-166.318 -128.699)" fill="#fff"/>
            </g>
          </g>
        </g>
        <g id="Grupo_131622" data-name="Grupo 131622" transform="translate(27.14)">
          <path id="Trazado_168407" data-name="Trazado 168407" d="M222.762,92.172H180.923l-1.9,8.151h45.643Z" transform="translate(-179.021 -92.172)" fill="#455a64"/>
          <g id="Grupo_131621" data-name="Grupo 131621" transform="translate(38.768 2.65)">
            <rect id="Rectángulo_36132" data-name="Rectángulo 36132" width="0.395" height="3.636" transform="translate(0 0.28) rotate(-44.995)" fill="#263238"/>
            <rect id="Rectángulo_36133" data-name="Rectángulo 36133" width="0.395" height="3.636" transform="translate(2.57 0) rotate(44.995)" fill="#263238"/>
          </g>
        </g>
        <g id="Grupo_131626" data-name="Grupo 131626" transform="translate(75.401 72.247)">
          <g id="Grupo_131625" data-name="Grupo 131625" transform="translate(0 13.28)">
            <rect id="Rectángulo_36134" data-name="Rectángulo 36134" width="89.871" height="12.262" fill="#fff" stroke="#c7c7c7" stroke-miterlimit="10" stroke-width="1"/>
            <rect id="Rectángulo_36135" data-name="Rectángulo 36135" width="12.262" height="12.262" transform="translate(77.609)" fill="#ffc727"/>
            <g id="Grupo_131624" data-name="Grupo 131624" transform="translate(79.852 1.835)">
              <g id="Grupo_131623" data-name="Grupo 131623">
                <path id="Trazado_168408" data-name="Trazado 168408" d="M460.364,287.81l-1.133.858-2.1-2.771-.768-1.013a1.8,1.8,0,0,0,.44-.249,1.846,1.846,0,0,0,.582-.754l.816,1.075Z" transform="translate(-452.59 -280.077)" fill="#fff"/>
                <path id="Trazado_168409" data-name="Trazado 168409" d="M453.97,277.091a3.09,3.09,0,1,0,.068,3.669A3.092,3.092,0,0,0,453.97,277.091Zm-1.329,3.348a1.8,1.8,0,0,1-.44.249,1.844,1.844,0,1,1,.44-.249Z" transform="translate(-448.426 -275.881)" fill="#fff"/>
              </g>
            </g>
            <rect id="Rectángulo_36136" data-name="Rectángulo 36136" width="0.658" height="7.441" transform="translate(2.564 2.41)" fill="#263238"/>
          </g>
          <rect id="Rectángulo_36137" data-name="Rectángulo 36137" width="20.759" height="6.578" transform="translate(0 30.321)" fill="#c7c7c7"/>
          <rect id="Rectángulo_36138" data-name="Rectángulo 36138" width="20.759" height="6.578" transform="translate(34.556 30.321)" fill="#ffc727"/>
          <rect id="Rectángulo_36139" data-name="Rectángulo 36139" width="20.759" height="6.578" transform="translate(69.369 30.321)" fill="#c7c7c7"/>
          <rect id="Rectángulo_36140" data-name="Rectángulo 36140" width="57.327" height="3.982" transform="translate(16.272)" fill="#37474f"/>
        </g>
      </g>
      <g id="Grupo_131651" data-name="Grupo 131651" transform="translate(0 0)">
        <rect id="Rectángulo_36141" data-name="Rectángulo 36141" width="236.403" height="146.399" transform="translate(0 8.151)" fill="#fff" stroke="#dbdbdb" stroke-miterlimit="10" stroke-width="1"/>
        <rect id="Rectángulo_36142" data-name="Rectángulo 36142" width="236.403" height="22.587" transform="translate(0 8.151)" fill="#008f85"/>
        <g id="Grupo_131640" data-name="Grupo 131640" transform="translate(5.312 16.389)">
          <g id="Grupo_131633" data-name="Grupo 131633" transform="translate(21.715 0.013)">
            <g id="Grupo_131628" data-name="Grupo 131628">
              <rect id="Rectángulo_36143" data-name="Rectángulo 36143" width="194.777" height="5.507" transform="translate(0.056 0.056)" fill="#fff"/>
              <path id="Trazado_168410" data-name="Trazado 168410" d="M373.674,132.283H178.785v-5.619H373.674ZM178.9,132.17H373.562v-5.395H178.9Z" transform="translate(-178.785 -126.663)" fill="#c7c7c7"/>
            </g>
            <g id="Grupo_131632" data-name="Grupo 131632" transform="translate(1.635 1.328)">
              <g id="Grupo_131631" data-name="Grupo 131631">
                <g id="Grupo_131629" data-name="Grupo 131629" transform="translate(1.225 1.269)">
                  <path id="Trazado_168411" data-name="Trazado 168411" d="M186.48,133.77l-.391.3-.6-.791-.125-.166-.129-.171-.009-.009a.683.683,0,0,0,.15-.087c.008-.009.02-.017.029-.025a.867.867,0,0,0,.187-.221l0,.009.137.179.129.166Z" transform="translate(-185.023 -132.371)" fill="#ebebeb"/>
                  <path id="Trazado_168412" data-name="Trazado 168412" d="M185.64,132.7l-.129-.166a.77.77,0,0,0,.108-.2l-.15-.2-.009-.013a.7.7,0,0,1-.041.125.612.612,0,0,1-.05.1.87.87,0,0,1-.187.221.518.518,0,0,0,.054-.046l0,.008.125.163.129.166.47.62-.058.046-.467-.616-.125-.166-.125-.166-.008-.009c-.009.009-.021.017-.029.025a.684.684,0,0,1-.15.087.274.274,0,0,1-.05.025,1.2,1.2,0,0,1-.154.046l0,.009.137.179a1,1,0,0,0,.2-.079l.125.166.6.791.391-.3Z" transform="translate(-184.799 -132.123)" fill="#ebebeb"/>
                </g>
                <g id="Grupo_131630" data-name="Grupo 131630">
                  <path id="Trazado_168413" data-name="Trazado 168413" d="M184.134,129.87a1.066,1.066,0,0,0-1.69,1.3,1.048,1.048,0,0,0,1.145.37,1,1,0,0,0,.2-.079,1.122,1.122,0,0,0,.146-.092.2.2,0,0,0,.029-.025.621.621,0,0,0,.05-.05.869.869,0,0,0,.146-.158.77.77,0,0,0,.108-.2A1.066,1.066,0,0,0,184.134,129.87Zm-.067.978a.611.611,0,0,1-.05.1.869.869,0,0,1-.187.221c-.009.009-.021.017-.029.025a.683.683,0,0,1-.15.087.274.274,0,0,1-.05.025,1.2,1.2,0,0,1-.154.046,1.027,1.027,0,0,1-.158.012.843.843,0,1,1,.82-.641A.7.7,0,0,1,184.068,130.849Z" transform="translate(-182.222 -129.455)" fill="#ebebeb"/>
                  <path id="Trazado_168414" data-name="Trazado 168414" d="M184.267,130.936a1.064,1.064,0,1,0-1.823.233,1.048,1.048,0,0,0,1.145.37,1,1,0,0,0,.2-.079l.125.166a.855.855,0,0,0,.15-.1c.008-.009.017-.013.025-.021a.305.305,0,0,0,.054-.05.889.889,0,0,0,.146-.158l-.129-.166A.77.77,0,0,0,184.267,130.936Zm-.279.083a.625.625,0,0,1-.1.112.554.554,0,0,1-.05.046c-.008.008-.02.017-.029.025a.74.74,0,0,1-.121.075l-.029.012a.565.565,0,0,1-.208.071.84.84,0,0,1-.845-.317.855.855,0,0,1,.158-1.2.854.854,0,0,1,1.2.158.845.845,0,0,1,.15.737.738.738,0,0,1-.1.221A.421.421,0,0,1,183.988,131.019Z" transform="translate(-182.222 -129.455)" fill="#ebebeb"/>
                </g>
              </g>
            </g>
          </g>
          <g id="Grupo_131634" data-name="Grupo 131634" transform="translate(0 0.941)">
            <path id="Trazado_168415" data-name="Trazado 168415" d="M135.127,132.381l-2.006-1.846,2-1.92.311.324-1.658,1.589,1.654,1.522Z" transform="translate(-133.121 -128.615)" fill="#fff"/>
          </g>
          <g id="Grupo_131635" data-name="Grupo 131635" transform="translate(6.539 0.938)">
            <path id="Trazado_168416" data-name="Trazado 168416" d="M147.179,128.608l2.006,1.846-2,1.92-.311-.324,1.658-1.589-1.654-1.523Z" transform="translate(-146.871 -128.608)" fill="#fff"/>
          </g>
          <g id="Grupo_131637" data-name="Grupo 131637" transform="translate(220.472 0.169)">
            <path id="Trazado_168417" data-name="Trazado 168417" d="M600.791,131.9a2.653,2.653,0,0,1-2.79,0,2.652,2.652,0,1,1,2.79,0Z" transform="translate(-596.743 -126.992)" fill="#dbdbdb"/>
            <g id="Grupo_131636" data-name="Grupo 131636" transform="translate(1.258 1.543)">
              <path id="Trazado_168418" data-name="Trazado 168418" d="M602.239,131.044a.807.807,0,1,1-.807-.807A.808.808,0,0,1,602.239,131.044Z" transform="translate(-600.036 -130.237)" fill="#fff"/>
              <path id="Trazado_168419" data-name="Trazado 168419" d="M602.178,135.078v.333a2.653,2.653,0,0,1-2.79,0v-.332a1.4,1.4,0,0,1,2.79,0Z" transform="translate(-599.388 -132.044)" fill="#fff"/>
            </g>
          </g>
          <g id="Grupo_131639" data-name="Grupo 131639" transform="translate(12.225)">
            <path id="Trazado_168420" data-name="Trazado 168420" d="M161.439,131.856a2.61,2.61,0,1,1,2.588-2.95l-.471.061a2.135,2.135,0,1,0-.531,1.707l.353.319A2.616,2.616,0,0,1,161.439,131.856Z" transform="translate(-158.829 -126.636)" fill="#fff"/>
            <g id="Grupo_131638" data-name="Grupo 131638" transform="translate(3.561 0.981)">
              <path id="Trazado_168421" data-name="Trazado 168421" d="M166.318,129.369l.159-.237,1.166.787.7-1.221.248.142-.852,1.487Z" transform="translate(-166.318 -128.699)" fill="#fff"/>
            </g>
          </g>
        </g>
        <g id="Grupo_131642" data-name="Grupo 131642" transform="translate(71.73)">
          <path id="Trazado_168422" data-name="Trazado 168422" d="M316.53,92.172H274.691l-1.9,8.151h45.643Z" transform="translate(-272.789 -92.172)" fill="#008f85"/>
          <g id="Grupo_131641" data-name="Grupo 131641" transform="translate(38.768 2.65)" opacity="0.2">
            <rect id="Rectángulo_36144" data-name="Rectángulo 36144" width="0.395" height="3.636" transform="translate(0 0.28) rotate(-44.995)"/>
            <rect id="Rectángulo_36145" data-name="Rectángulo 36145" width="0.395" height="3.636" transform="translate(2.57 0) rotate(44.995)"/>
          </g>
        </g>
        <g id="Grupo_131650" data-name="Grupo 131650" transform="translate(13.039 50.279)">
          <g id="Grupo_131647" data-name="Grupo 131647" transform="translate(0 53.236)">
            <rect id="Rectángulo_36149" data-name="Rectángulo 36149" width="32.233" height="2.712" fill="#a6a6a6"/>
            <rect id="Rectángulo_36150" data-name="Rectángulo 36150" width="136.988" height="2.712" transform="translate(0 6.292)" fill="#ebebeb"/>
            <rect id="Rectángulo_36151" data-name="Rectángulo 36151" width="136.988" height="2.712" transform="translate(0 12.258)" fill="#ebebeb"/>
            <rect id="Rectángulo_36152" data-name="Rectángulo 36152" width="136.988" height="2.712" transform="translate(0 18.225)" fill="#ebebeb"/>
            <rect id="Rectángulo_36153" data-name="Rectángulo 36153" width="136.988" height="2.712" transform="translate(0 24.191)" fill="#ebebeb"/>
            <rect id="Rectángulo_36154" data-name="Rectángulo 36154" width="136.988" height="2.712" transform="translate(0 30.158)" fill="#ebebeb"/>
          </g>
          <g id="Grupo_131648" data-name="Grupo 131648" transform="translate(146.304 0.408)">
            <rect id="Rectángulo_36155" data-name="Rectángulo 36155" width="32.233" height="2.712" fill="#a6a6a6"/>
            <rect id="Rectángulo_36156" data-name="Rectángulo 36156" width="68.494" height="2.712" transform="translate(0 6.292)" fill="#ebebeb"/>
            <rect id="Rectángulo_36157" data-name="Rectángulo 36157" width="68.494" height="2.712" transform="translate(0 12.258)" fill="#ebebeb"/>
            <rect id="Rectángulo_36158" data-name="Rectángulo 36158" width="68.494" height="2.712" transform="translate(0 18.225)" fill="#ebebeb"/>
            <rect id="Rectángulo_36159" data-name="Rectángulo 36159" width="68.494" height="2.712" transform="translate(0 24.191)" fill="#ebebeb"/>
            <rect id="Rectángulo_36160" data-name="Rectángulo 36160" width="68.494" height="2.712" transform="translate(0 35.255)" fill="#ebebeb"/>
            <rect id="Rectángulo_36161" data-name="Rectángulo 36161" width="68.494" height="2.712" transform="translate(0 41.221)" fill="#ebebeb"/>
            <rect id="Rectángulo_36162" data-name="Rectángulo 36162" width="68.494" height="2.712" transform="translate(0 47.188)" fill="#ebebeb"/>
            <rect id="Rectángulo_36163" data-name="Rectángulo 36163" width="68.494" height="2.712" transform="translate(0 53.154)" fill="#ebebeb"/>
            <rect id="Rectángulo_36164" data-name="Rectángulo 36164" width="68.494" height="2.712" transform="translate(0 59.121)" fill="#ebebeb"/>
            <rect id="Rectángulo_36165" data-name="Rectángulo 36165" width="68.494" height="2.712" transform="translate(0 71.054)" fill="#ebebeb"/>
            <rect id="Rectángulo_36166" data-name="Rectángulo 36166" width="46.165" height="2.712" transform="translate(0 77.02)" fill="#ebebeb"/>
          </g>
          <g id="Grupo_131649" data-name="Grupo 131649">
            <rect id="Rectángulo_36167" data-name="Rectángulo 36167" width="32.233" height="7.255" fill="#a6a6a6"/>
            <rect id="Rectángulo_36168" data-name="Rectángulo 36168" width="136.988" height="2.712" transform="translate(0 12.258)" fill="#ebebeb"/>
            <rect id="Rectángulo_36169" data-name="Rectángulo 36169" width="136.988" height="2.712" transform="translate(0 18.225)" fill="#ebebeb"/>
            <rect id="Rectángulo_36170" data-name="Rectángulo 36170" width="136.988" height="2.712" transform="translate(0 24.191)" fill="#ebebeb"/>
            <rect id="Rectángulo_36171" data-name="Rectángulo 36171" width="136.988" height="2.712" transform="translate(0 30.158)" fill="#ebebeb"/>
            <rect id="Rectángulo_36172" data-name="Rectángulo 36172" width="136.988" height="2.712" transform="translate(0 38.094)" fill="#ebebeb"/>
            <rect id="Rectángulo_36173" data-name="Rectángulo 36173" width="136.988" height="2.712" transform="translate(0 44.061)" fill="#ebebeb"/>
          </g>
        </g>
      </g>
    </g>
  </g>
</svg>
