<svg xmlns="http://www.w3.org/2000/svg" width="382.709" height="311.149" viewBox="0 0 382.709 311.149">
  <g id="img9" transform="translate(-909.208 -5280.676)">
    <g id="Grupo_128166" data-name="Grupo 128166" transform="translate(960.382 5280.676)">
      <path id="Trazado_151846" data-name="Trazado 151846" d="M358.523,399.053c12.1-19.57,15.544-44.968,9.137-67.4-4.051-14.179-11.826-27.352-12.82-42.139-1.988-29.563,23.072-53.463,28.271-82.579,2.285-12.8-.208-27.7-10-35.476-9.675-7.677-23.483-6.11-34.436-.733s-20.22,13.983-30.737,20.275-23.464,10.182-34.57,5.174c-11.249-5.073-17.629-17.859-21.2-30.32s-5.328-25.734-11.428-37.024c-10.053-18.607-31.487-28.752-51.462-26.127s-37.821,17.006-47.394,35.9-11.246,41.744-6.481,62.611c2.417,10.583,6.4,20.719,8.57,31.363s2.37,22.295-2.477,31.882c-10.137,20.048-36.88,22.844-50.884,40.038-11.558,14.19-11.921,35.845-5.362,53.3s18.887,31.61,31.178,45.08c57.328,2.057,115.684,2.193,173.013,4.25C311.717,407.928,336.268,400.452,358.523,399.053Z" transform="translate(-80.961 -96.039)" fill="#a4a4b4" opacity="0.354" style="mix-blend-mode: multiply;isolation: isolate"/>
      <path id="Trazado_151847" data-name="Trazado 151847" d="M359.21,180.107c-.189,18.542,19.018,34.68,15.676,52.968-1.787,9.785-9.912,19.7-5.19,28.628,4.177,7.9,16.141,9.266,25.289,6.7,21.413-6.012,34.428-26.1,40.652-45.838,5.855-18.568,7.308-39.307-2.068-56.617-7.556-13.946-24.987-26.258-42.689-25.119C374.667,141.872,359.352,166.14,359.21,180.107Z" transform="translate(-110.366 -90.642)" fill="#a4a4b4" opacity="0.31" style="mix-blend-mode: multiply;isolation: isolate"/>
      <path id="Trazado_151848" data-name="Trazado 151848" d="M117.569,147a68.724,68.724,0,0,0-1.609,72.01c4.14,6.97,9.73,13.466,17.279,17.342s17.287,4.741,24.8.807c11.395-5.965,13.915-20.035,13.008-32.045s-3.872-24.6,1.168-35.716c3.286-7.245,9.594-12.894,15.191-18.827s10.82-12.859,11.109-20.7c.749-20.331-22.772-18.812-36.946-14.59C143.473,120.671,127.381,131.977,117.569,147Z" transform="translate(-42.344 -111.882)" fill="#a4a4b4" opacity="0.31" style="mix-blend-mode: multiply;isolation: isolate"/>
      <g id="Grupo_107069" data-name="Grupo 107069" transform="translate(10.385 0)" style="mix-blend-mode: multiply;isolation: isolate">
        <path id="Trazado_151849" data-name="Trazado 151849" d="M350.871,403.076l-1.208-1.2c3.325-3.958,8.632-13.031,6.835-29.344-.8-7.262-2.782-14.435-4.7-21.372-.856-3.1-1.741-6.3-2.514-9.486-8.245-33.954-4.638-71.409,9.895-102.762,1.291-2.782,2.687-5.574,4.039-8.273,4.006-8,8.147-16.279,9.928-25.219,3.124-15.688-3.051-27.446-10.109-31.732-6.772-4.114-16.331-3.485-26.225,1.726-3.619,1.905-7.137,4.236-10.539,6.49a95.142,95.142,0,0,1-14.136,8.241c-19.638,8.581-44.19,1.288-57.109-16.962-6.209-8.77-9.715-19.37-13.105-29.621-1.313-3.972-2.672-8.08-4.166-12.01-4.646-12.22-13.15-27.558-27.277-31.227-12.413-3.225-24.985,3.863-33.344,10.377-15.993,12.463-27.266,29.343-31.745,47.528-3.019,12.263-3.141,25.61-3.259,38.518-.175,19.222-.356,39.1-10.322,55.107-4.534,7.282-10.77,13.092-16.8,18.712-5.648,5.262-11.488,10.7-15.842,17.3-9.865,14.946-12.283,36.1-6.634,58.053,5.076,19.72,15.423,37.218,25.429,54.14l-1.375.964C106.517,383.992,96.1,366.38,90.96,346.4c-5.784-22.472-3.276-44.187,6.881-59.574,4.469-6.771,10.385-12.283,16.105-17.614,5.949-5.543,12.1-11.275,16.51-18.358,9.69-15.564,9.86-34.294,10.04-54.125.119-13.019.241-26.481,3.316-38.963,4.576-18.582,16.073-35.811,32.372-48.515,8.636-6.729,21.661-14.042,34.675-10.661,14.8,3.844,23.617,19.675,28.408,32.278,1.509,3.969,2.874,8.1,4.194,12.088,3.347,10.121,6.808,20.587,12.861,29.136,12.489,17.642,36.223,24.691,55.206,16.4a94.086,94.086,0,0,0,13.895-8.109,125.359,125.359,0,0,1,10.676-6.573c10.379-5.466,20.488-6.08,27.734-1.678,7.569,4.6,14.212,17.093,10.912,33.666-1.831,9.191-6.03,17.581-10.091,25.7-1.345,2.687-2.736,5.466-4.014,8.223-14.355,30.968-17.917,67.965-9.773,101.5.765,3.153,1.647,6.343,2.5,9.429,1.937,7.01,3.94,14.257,4.758,21.673C360,389.337,354.383,398.9,350.871,403.076Z" transform="translate(-87.906 -97.739)" fill="#a4a4b4"/>
      </g>
    </g>
    <g id="Grupo_128168" data-name="Grupo 128168" transform="translate(996.395 5288.42)">
      <g id="Grupo_128167" data-name="Grupo 128167" transform="translate(0 0)">
        <path id="Trazado_165170" data-name="Trazado 165170" d="M2199.605-170.2c-2.593,6.839-3.4,11.864,2.352,19.287,13.779,17.8,7.642,35.71-13.514,44.666-4.15,1.752-6.109,4.2-7.719,7.918-5.735,13.264-15.347,23.465-28.1,29.439-9.354,4.381-7.252,11.491-7.33,18.318-.117,10.351,8.19,6.563,13.073,6.559,10.9,0,30.145,8.051,30.145,8.051s12.983,15.046,13.445,17.618c-3.209.252-18.479-9.4-21.688-9.157l-.007-.037s-4.62-4.04-8.043-3.427a4.823,4.823,0,0,0-3.7-.3c-9.09-6.689-20.35-1.379-29.914-5.451-.84-2.5-2.332-4.981-2.406-7.508-.259-8.672,1.091-16.549-12.6-16.837-12.165-.255-12.652,5.857-13.057,14.411-.381,7.991-4.937,10.822-12.862,11.82-47.331,5.962-57.451,17.75-57.208,65.141.13,25.351.348,25.5,26.446,19.169,2.908-8.315-16.719-17.393,1.4-24.99,5.245,18.317,13.345,32.777,36.359,27.115l35.844-.093c24.224,7.84,32.38-10.838,40.679-29.549,8.389,13.235-1.817,20.131-2.438,29.829h13.588c11.094,2.385,14.57-1.764,15.437-13.385,1.579-21.124-11.23-46.439-17.332-65.94C2206.269-26.5,2213.412-6.287,2215,3.281c3,18.127,7.456,39.807-1.517,54.3-6.721,10.858-28.349,3.306-43.275,3.521-41.068.584-82.152-.243-123.213.462-12.817.223-18.228-3.265-16.975-16.723,1.042-11.2-.413-22.633.531-33.852,2.535-30.165,24.609-52.271,53.2-55.038,5.65-.548,14.464,5.05,16.557-4.673,1.732-8.051,2.475-17.23-7.84-21.834-1.311-.584-1.635-3.379-2.417-5.143,12.822-3.407,23.94,5.776,36.9,4.462,23.136-2.349,44.572-20.179,48.836-42.967,4.315-23.071-.223-32.522-19.875-41.4,3.317-6.068,9.186-3.772,14.159-4.271,4.458-.45,10.344.669,10.4-5.975.061-6-4.1-10.242-10.164-9.8-11.45.848-23.668-4.235-34.18,4.993-5.882,5.159-14.647,6.855-20.4,2.369-12.988-10.14-27.439-7.35-41.648-7.605-6.25-.114-15.17-1.923-15.482,7.459-.3,9.171,8.206,8.473,14.793,8.526,6.607.049,13.312-.767,19.805.081,17.243,2.255,35.276-5.354,51.882,4.222-8.148,9.057-19.343,1.975-28.551,5.419l-35.528.085c-9.475-2.624-13.425.592-11.037,10.513-1.5,16.1-1.168,31.772,10.432,44.8l1.392,11.284c-4.441,1.018-7.833-.5-9.869-4.523-5.038-9.942-10.81-17.23-22.9-21.4-13.446-4.64-13.239-27.346-1.809-45.566l1.238-.2.353-1.209c4.786-1.119,2.49-2.458.117-3.8l-1.2-7.666c5.919-25.03,22.93-40.7,44.337-52.511,6.287-3.472,12.55-6.352,17.625-12.083,5.569-6.291,13.924-8.928,21.574-3.809,17.717,11.856,35.653,23.534,52.867,35.909C2192.048-194.661,2191.809-179.159,2199.605-170.2Zm-83.309-9.451c5.939,7.123,13.527,5.35,15.6-1.383,4.3-13.908,4.734-29.115-.26-42.877-2.551-7.025-10.4-6.786-15.985-.418C2110.873-209.369,2109.937-194.459,2116.3-179.654Zm69.1,48.325c1.651,4.965-3.3,14.063,5.053,14.46,7.978.381,8.831-8.782,8.956-15.06.122-6.372-1.025-15.458-9.159-14.63C2182.792-145.805,2186.6-136.829,2185.4-131.329Zm-22.937-53.415c6.055-1.5,16.925,2.4,16.67-5.281-.239-7.3-13.32-3.557-19.5-9.621-3.136-3.075-10.055,4.32-10.169,9.057C2149.215-180.514,2158.115-186.926,2162.459-184.744Zm-63.99-1.136c-1.87-8.473-6.587-17.969-12.918-12.752-5.651,4.656-18.459.572-16.577,9.5,1.712,8.1,12.558,3.123,19.311,4.084C2091.278-184.627,2094.463-185.507,2098.469-185.88ZM2057.9-116.808c4.4-4.592,2.524-10.185,2.2-15.036-.332-5.05,3.85-14.468-4.717-14.075-8.092.373-7.058,9.848-6.688,16.362C2049.033-123.651,2049.78-117.457,2057.9-116.808Z" transform="translate(-2029.842 238.962)" fill="#1d272b"/>
        <path id="Trazado_165176" data-name="Trazado 165176" d="M2134.251-202.823q-5.416,0-10.83,0c-16.606-9.576-34.639-1.967-51.882-4.222-6.494-.848-13.2-.032-19.806-.081-6.587-.053-15.1.645-14.793-8.526.313-9.382,9.232-7.573,15.482-7.459,14.209.255,28.661-2.535,41.649,7.605,5.752,4.486,14.517,2.79,20.4-2.369,10.512-9.228,22.73-4.145,34.18-4.993,6.064-.446,10.225,3.792,10.164,9.8-.061,6.644-5.946,5.524-10.4,5.975C2143.437-206.6,2137.568-208.891,2134.251-202.823Z" transform="translate(-2008.176 286.184)" fill="#d93328"/>
        <path id="Trazado_165179" data-name="Trazado 165179" d="M2051-231.728c5.585-6.368,13.434-6.607,15.985.418,4.993,13.762,4.554,28.969.26,42.877-2.077,6.733-9.665,8.506-15.608,1.383C2058.312-202.041,2059.359-216.952,2051-231.728Z" transform="translate(-1965.186 246.358)" fill="#db8804"/>
        <path id="Trazado_165181" data-name="Trazado 165181" d="M2072.337-213.82c-4.344-2.182-13.244,4.23-13-5.845.114-4.738,7.033-12.132,10.169-9.057,6.181,6.064,19.262,2.32,19.5,9.621C2089.262-211.423,2078.392-215.321,2072.337-213.82Z" transform="translate(-1939.72 268.038)" fill="#008f85"/>
        <path id="Trazado_165182" data-name="Trazado 165182" d="M2069.127-215.144c-4.006.373-7.191,1.253-10.185.827-6.753-.961-17.6,4.016-19.311-4.084-1.882-8.924,10.927-4.839,16.577-9.5C2062.54-233.112,2067.257-223.617,2069.127-215.144Z" transform="translate(-2000.5 268.226)" fill="#008f85"/>
        <path id="Trazado_165183" data-name="Trazado 165183" d="M2053.907-235.355c8.36,14.776,7.313,29.687.637,44.678C2048.188-205.482,2049.125-220.392,2053.907-235.355Z" transform="translate(-1968.094 249.985)" fill="#db8804"/>
      </g>
      <circle id="Elipse_4385" data-name="Elipse 4385" cx="3.999" cy="3.999" r="3.999" transform="translate(70.984 103.592)" fill="#1d272b"/>
      <circle id="Elipse_4386" data-name="Elipse 4386" cx="3.999" cy="3.999" r="3.999" transform="translate(102.559 103.592)" fill="#1d272b"/>
      <path id="Trazado_165187" data-name="Trazado 165187" d="M2047.343-205.946s24.061,5.76,39.689,0" transform="translate(-1976.359 339.862)" fill="#1d272b" stroke="#030504" stroke-miterlimit="10" stroke-width="2"/>
    </g>
    <g id="Grupo_128169" data-name="Grupo 128169" transform="translate(896 5438.791) rotate(-22)">
      <g id="Grupo_128022" data-name="Grupo 128022" transform="translate(0 0)">
        <g id="Grupo_128020" data-name="Grupo 128020" transform="translate(68.049 0)">
          <path id="Trazado_164748" data-name="Trazado 164748" d="M0,82.221l8.816-79.8L15.243,0,4.437,77.1Z" transform="translate(0 44.372)" fill="#1d272b"/>
          <path id="Trazado_164750" data-name="Trazado 164750" d="M4.679,13.785,0,67.267l3.193.908L4.275,54.524l10.377-.515.285-20.592L11.35,32.191l4.442-.681L15.493,0S7.106,1.121,4.679,13.785Z" transform="translate(7.219 0.001)" fill="#f6750e"/>
          <path id="Trazado_164751" data-name="Trazado 164751" d="M9.374,50.971,0,51.026S1.039,18.708,3.981,10.215,11.058,0,11.058,0L11,28.819l.15,1.543-3.034.314,2.514.86Z" transform="translate(10.453 1.515)" fill="#b2541b" opacity="0.42"/>
          <path id="Trazado_164752" data-name="Trazado 164752" d="M1.506,0c.215-.085,1.725,1.809,4.022,2.188s3.2-.413,3.2-.413,1.589,1.07.662,1.628.814.85-.2,1.877L8.18,6.309S9.827,7.793,8.827,8.5l-1,.71s1.7,1.829.969,2.553a9.431,9.431,0,0,0-1.07,1.215,12.461,12.461,0,0,1-5.4.133C.141,12.445-.112,11.664.052,10.983A8.278,8.278,0,0,1,.784,9.326S-.409,8.694.149,7.766,1.9,5.93.907,5.544.286,3.348.943,2.7-.47.785,1.506,0Z" transform="translate(4.872 56.128)" fill="#ffad00"/>
          <path id="Trazado_164753" data-name="Trazado 164753" d="M0,55.988s5.461-36.07,8.616-45.369S14.162,0,14.162,0,6.3-.3,3.693,12.044,0,55.988,0,55.988Z" transform="translate(8.55 0)" fill="#ffad00"/>
        </g>
        <g id="Grupo_128021" data-name="Grupo 128021" transform="translate(0 35.258)">
          <path id="Trazado_164754" data-name="Trazado 164754" d="M56.15,37.967,7.208,0,0,2.229,53.128,42.1Z" transform="translate(36.337 26.002)" fill="#1d272b"/>
          <path id="Trazado_164756" data-name="Trazado 164756" d="M17.367,4l40.7,35.007-1.65,2.879L46.111,32.878l-7.783,6.879L23.741,25.218l1.708-3.382L21.795,24.45,0,1.692S6.785-3.364,17.367,4Z" transform="translate(0 0)" fill="#f6750e"/>
          <path id="Trazado_164757" data-name="Trazado 164757" d="M36.806,35.636l6.746-6.507S20.237,6.726,12.2,2.7,0,.337,0,.337L20.171,20.919l.969,1.21,2.391-1.894-1.2,2.37Z" transform="translate(1.918 1.601)" fill="#b2541b" opacity="0.42"/>
          <path id="Trazado_164758" data-name="Trazado 164758" d="M4,.174c-.21.089.029,2.5-1.348,4.374S.071,6.49.071,6.49-.32,8.367.733,8.118.745,9.295,2.187,9.324l1.442.027S3.487,11.56,4.7,11.37l1.21-.191s.056,2.5,1.087,2.5a9.53,9.53,0,0,1,1.616.123,12.487,12.487,0,0,0,3.959-3.679c1.1-2,.734-2.739.142-3.109a8.177,8.177,0,0,0-1.681-.676s.411-1.285-.635-1.56-2.536-.092-2.1-1.06S7.209,1.715,6.284,1.71,5.96-.647,4,.174Z" transform="translate(46.895 30.278)" fill="#ffad00"/>
        </g>
      </g>
      <path id="Trazado_164759" data-name="Trazado 164759" d="M12.517,14.743S7.691,8.533,6.1,4.315,5.428.006,5.428.006a8.13,8.13,0,0,0-3.35.531C.872,1.171,0,1.673,0,1.673Z" transform="translate(0 35.277)" fill="#ffad00"/>
    </g>
    <g id="Grupo_128170" data-name="Grupo 128170" transform="translate(1224.045 5370.118) rotate(60)">
      <g id="Grupo_128022-2" data-name="Grupo 128022" transform="matrix(0.985, 0.174, -0.174, 0.985, 21.983, 0)">
        <g id="Grupo_128020-2" data-name="Grupo 128020" transform="translate(68.049 0)">
          <path id="Trazado_164748-2" data-name="Trazado 164748" d="M0,82.221l8.816-79.8L15.243,0,4.437,77.1Z" transform="translate(0 44.372)" fill="#1d272b"/>
          <path id="Trazado_164750-2" data-name="Trazado 164750" d="M4.679,13.785,0,67.267l3.193.908L4.275,54.524l10.377-.515.285-20.592L11.35,32.191l4.442-.681L15.493,0S7.106,1.121,4.679,13.785Z" transform="translate(7.219 0.001)" fill="#f6750e"/>
          <path id="Trazado_164751-2" data-name="Trazado 164751" d="M9.374,50.97,0,51.026S1.039,18.708,3.981,10.215,11.058,0,11.058,0L11,28.819l.15,1.543-3.034.314,2.514.86Z" transform="translate(10.453 1.515)" fill="#b2541b" opacity="0.42"/>
          <path id="Trazado_164752-2" data-name="Trazado 164752" d="M1.506,0c.215-.085,1.725,1.809,4.022,2.188s3.2-.413,3.2-.413,1.589,1.07.662,1.628.814.85-.2,1.877L8.18,6.309S9.827,7.793,8.827,8.5l-1,.71s1.7,1.829.969,2.553a9.431,9.431,0,0,0-1.07,1.215,12.461,12.461,0,0,1-5.4.133C.141,12.445-.112,11.664.052,10.983A8.278,8.278,0,0,1,.784,9.326S-.409,8.693.149,7.766,1.9,5.93.907,5.544.286,3.348.943,2.7-.47.785,1.506,0Z" transform="translate(4.872 56.128)" fill="#ffad00"/>
          <path id="Trazado_164753-2" data-name="Trazado 164753" d="M0,55.988s5.461-36.07,8.616-45.369S14.162,0,14.162,0,6.3-.3,3.693,12.044,0,55.988,0,55.988Z" transform="translate(8.55 0)" fill="#ffad00"/>
        </g>
        <g id="Grupo_128021-2" data-name="Grupo 128021" transform="translate(0 35.258)">
          <path id="Trazado_164754-2" data-name="Trazado 164754" d="M56.15,37.967,7.208,0,0,2.229,53.128,42.1Z" transform="translate(36.337 26.002)" fill="#1d272b"/>
          <path id="Trazado_164756-2" data-name="Trazado 164756" d="M17.367,4l40.7,35.007-1.65,2.879L46.111,32.878l-7.783,6.879L23.741,25.218l1.708-3.382L21.795,24.45,0,1.692S6.785-3.364,17.367,4Z" transform="translate(0 0)" fill="#f6750e"/>
          <path id="Trazado_164757-2" data-name="Trazado 164757" d="M36.806,35.636l6.746-6.507S20.237,6.726,12.2,2.7,0,.337,0,.337L20.171,20.919l.969,1.21,2.391-1.894-1.2,2.37Z" transform="translate(1.918 1.601)" fill="#b2541b" opacity="0.42"/>
          <path id="Trazado_164758-2" data-name="Trazado 164758" d="M4,.174c-.21.089.029,2.5-1.348,4.374S.071,6.49.071,6.49-.32,8.367.733,8.118.745,9.295,2.187,9.324l1.442.027S3.487,11.56,4.7,11.37l1.21-.191s.056,2.5,1.087,2.5a9.53,9.53,0,0,1,1.616.123,12.487,12.487,0,0,0,3.959-3.679c1.1-2,.734-2.739.142-3.109a8.176,8.176,0,0,0-1.681-.676s.411-1.285-.635-1.56-2.536-.092-2.1-1.06S7.209,1.715,6.284,1.71,5.96-.647,4,.174Z" transform="translate(46.895 30.278)" fill="#ffad00"/>
        </g>
      </g>
    </g>
    <g id="Grupo_131492" data-name="Grupo 131492" transform="translate(1172.5 5308.06)">
      <path id="Trazado_168456" data-name="Trazado 168456" d="M8.167-6.506H5.249V0H1.587V-17.773h6.6a7.465,7.465,0,0,1,4.858,1.4A4.845,4.845,0,0,1,14.758-12.4a5.468,5.468,0,0,1-.787,3.033,5.37,5.37,0,0,1-2.386,1.935L15.43-.171V0H11.5ZM5.249-9.473H8.2a3.025,3.025,0,0,0,2.136-.7,2.509,2.509,0,0,0,.757-1.935,2.685,2.685,0,0,0-.714-1.978,2.968,2.968,0,0,0-2.191-.72H5.249ZM21.436,0H17.773V-17.773h3.662ZM38.208-14.807H32.764V0H29.1V-14.807H23.73v-2.966H38.208ZM54.553-8.484a10.729,10.729,0,0,1-.928,4.6A6.987,6.987,0,0,1,50.97-.83,7.344,7.344,0,0,1,47.009.244,7.394,7.394,0,0,1,43.066-.818a7.055,7.055,0,0,1-2.686-3.033,10.422,10.422,0,0,1-.964-4.535v-.879a10.673,10.673,0,0,1,.946-4.62,7.044,7.044,0,0,1,2.673-3.064,7.354,7.354,0,0,1,3.949-1.068,7.354,7.354,0,0,1,3.949,1.068,7.044,7.044,0,0,1,2.673,3.064,10.643,10.643,0,0,1,.946,4.608ZM50.842-9.29a7.479,7.479,0,0,0-1-4.248,3.262,3.262,0,0,0-2.856-1.453,3.263,3.263,0,0,0-2.844,1.434,7.394,7.394,0,0,0-1.013,4.205v.867a7.573,7.573,0,0,0,1,4.224,3.253,3.253,0,0,0,2.881,1.5,3.224,3.224,0,0,0,2.832-1.447,7.529,7.529,0,0,0,1-4.218ZM66.431-4.663A1.879,1.879,0,0,0,65.7-6.256a9.607,9.607,0,0,0-2.637-1.172,18.691,18.691,0,0,1-3.015-1.215q-3.027-1.636-3.027-4.407a4.292,4.292,0,0,1,.812-2.57,5.3,5.3,0,0,1,2.332-1.764,8.776,8.776,0,0,1,3.412-.635,7.988,7.988,0,0,1,3.394.69,5.4,5.4,0,0,1,2.313,1.947,5.1,5.1,0,0,1,.824,2.856H66.443a2.4,2.4,0,0,0-.769-1.9,3.161,3.161,0,0,0-2.161-.677,3.377,3.377,0,0,0-2.087.568,1.79,1.79,0,0,0-.745,1.5,1.715,1.715,0,0,0,.873,1.453,9.861,9.861,0,0,0,2.57,1.1,11.1,11.1,0,0,1,4.553,2.332A4.643,4.643,0,0,1,70.1-4.687a4.277,4.277,0,0,1-1.746,3.619A7.642,7.642,0,0,1,63.66.244a9.075,9.075,0,0,1-3.735-.751,5.911,5.911,0,0,1-2.57-2.057,5.268,5.268,0,0,1-.885-3.027h3.674q0,2.942,3.516,2.942A3.42,3.42,0,0,0,65.7-3.18,1.728,1.728,0,0,0,66.431-4.663Z" transform="translate(6.292 20.019)" fill="#008f85"/>
      <path id="Trazado_168457" data-name="Trazado 168457" d="M4.32-5.469,6.392-9.953H8.634L5.366-3.609V0H3.281V-3.609L.014-9.953H2.263ZM20.843-3.315A3.522,3.522,0,0,1,19.657-.786a4.165,4.165,0,0,1-2.82.923,3.745,3.745,0,0,1-3.011-1.289,5.284,5.284,0,0,1-1.1-3.538V-5.3a5.966,5.966,0,0,1,.506-2.529A3.791,3.791,0,0,1,14.68-9.505a4.05,4.05,0,0,1,2.184-.584,4.058,4.058,0,0,1,2.775.923,3.785,3.785,0,0,1,1.217,2.591H18.806a2.079,2.079,0,0,0-.537-1.4,1.987,1.987,0,0,0-1.4-.434,1.742,1.742,0,0,0-1.535.735,4.118,4.118,0,0,0-.523,2.28v.752A4.408,4.408,0,0,0,15.3-2.283a1.71,1.71,0,0,0,1.542.745,2.025,2.025,0,0,0,1.418-.434,1.961,1.961,0,0,0,.537-1.343Zm9.522-1.436a6.008,6.008,0,0,1-.52,2.577A3.913,3.913,0,0,1,28.359-.465a4.113,4.113,0,0,1-2.218.6,4.141,4.141,0,0,1-2.208-.595,3.951,3.951,0,0,1-1.5-1.7,5.837,5.837,0,0,1-.54-2.54v-.492a5.977,5.977,0,0,1,.53-2.587,3.945,3.945,0,0,1,1.5-1.716,4.118,4.118,0,0,1,2.211-.6,4.118,4.118,0,0,1,2.211.6,3.945,3.945,0,0,1,1.5,1.716,5.96,5.96,0,0,1,.53,2.581ZM28.287-5.2a4.188,4.188,0,0,0-.561-2.379,1.827,1.827,0,0,0-1.6-.813,1.827,1.827,0,0,0-1.593.8,4.141,4.141,0,0,0-.567,2.355v.485a4.241,4.241,0,0,0,.561,2.365,1.822,1.822,0,0,0,1.613.841,1.806,1.806,0,0,0,1.586-.81,4.216,4.216,0,0,0,.561-2.362Zm8.729,2.591a1.052,1.052,0,0,0-.41-.892A5.38,5.38,0,0,0,35.13-4.16a10.467,10.467,0,0,1-1.688-.68,2.759,2.759,0,0,1-1.7-2.468A2.4,2.4,0,0,1,32.2-8.747a2.965,2.965,0,0,1,1.306-.988,4.914,4.914,0,0,1,1.911-.355,4.473,4.473,0,0,1,1.9.386,3.026,3.026,0,0,1,1.3,1.09,2.853,2.853,0,0,1,.461,1.6H37.023a1.342,1.342,0,0,0-.431-1.063,1.77,1.77,0,0,0-1.21-.379,1.891,1.891,0,0,0-1.169.318A1,1,0,0,0,33.8-7.3a.96.96,0,0,0,.489.813,5.522,5.522,0,0,0,1.439.615,6.217,6.217,0,0,1,2.55,1.306,2.6,2.6,0,0,1,.8,1.941A2.4,2.4,0,0,1,38.1-.6a4.279,4.279,0,0,1-2.632.735,5.082,5.082,0,0,1-2.092-.42,3.31,3.31,0,0,1-1.439-1.152,2.95,2.95,0,0,1-.5-1.7H33.5q0,1.647,1.969,1.647a1.915,1.915,0,0,0,1.142-.3A.967.967,0,0,0,37.017-2.611ZM47.954-8.292H44.905V0H42.854V-8.292H39.847V-9.953h8.107Zm4.854,4.648H51.174V0H49.123V-9.953h3.7a4.181,4.181,0,0,1,2.721.786A2.713,2.713,0,0,1,56.5-6.945a3.062,3.062,0,0,1-.441,1.7,3.007,3.007,0,0,1-1.336,1.083L56.875-.1V0h-2.2ZM51.174-5.3h1.654a1.694,1.694,0,0,0,1.2-.393,1.4,1.4,0,0,0,.424-1.083,1.5,1.5,0,0,0-.4-1.107,1.662,1.662,0,0,0-1.227-.4H51.174ZM65.591-9.953V-3.4A3.356,3.356,0,0,1,64.569-.813a3.94,3.94,0,0,1-2.792.95,3.984,3.984,0,0,1-2.769-.923,3.3,3.3,0,0,1-1.046-2.536V-9.953h2.051v6.569a1.9,1.9,0,0,0,.468,1.425,1.8,1.8,0,0,0,1.3.448q1.729,0,1.757-1.818V-9.953Zm4.361,0,2.557,7.219,2.543-7.219h2.693V0H75.688V-2.721l.205-4.7L73.206,0H71.8l-2.68-7.41.205,4.689V0H67.272V-9.953ZM79.536,0V-9.953h3.486a4.578,4.578,0,0,1,2.748.694,2.373,2.373,0,0,1,.937,2.034,2.249,2.249,0,0,1-.376,1.289,2.172,2.172,0,0,1-1.046.817,2.1,2.1,0,0,1,1.207.772,2.284,2.284,0,0,1,.441,1.422,2.627,2.627,0,0,1-.916,2.174A4.124,4.124,0,0,1,83.405,0Zm2.051-4.334v2.687h1.757a1.7,1.7,0,0,0,1.131-.345,1.184,1.184,0,0,0,.407-.954,1.25,1.25,0,0,0-1.415-1.388Zm0-1.449H83.1q1.552-.027,1.552-1.237a1.143,1.143,0,0,0-.393-.974,2.067,2.067,0,0,0-1.241-.3H81.587Zm10.568,2.14H90.521V0H88.471V-9.953h3.7a4.181,4.181,0,0,1,2.721.786,2.713,2.713,0,0,1,.957,2.222,3.062,3.062,0,0,1-.441,1.7,3.007,3.007,0,0,1-1.336,1.083L96.223-.1V0h-2.2ZM90.521-5.3h1.654a1.694,1.694,0,0,0,1.2-.393A1.4,1.4,0,0,0,93.8-6.781a1.5,1.5,0,0,0-.4-1.107,1.662,1.662,0,0,0-1.227-.4H90.521Zm12.872.991H99.456v2.666h4.621V0H97.405V-9.953h6.658v1.661H99.456V-5.92h3.938Zm7.048,1.7a1.052,1.052,0,0,0-.41-.892,5.38,5.38,0,0,0-1.477-.656,10.467,10.467,0,0,1-1.688-.68,2.759,2.759,0,0,1-1.7-2.468,2.4,2.4,0,0,1,.455-1.439,2.965,2.965,0,0,1,1.306-.988,4.914,4.914,0,0,1,1.911-.355,4.473,4.473,0,0,1,1.9.386,3.026,3.026,0,0,1,1.3,1.09,2.853,2.853,0,0,1,.461,1.6h-2.051a1.342,1.342,0,0,0-.431-1.063,1.77,1.77,0,0,0-1.21-.379,1.891,1.891,0,0,0-1.169.318,1,1,0,0,0-.417.837.96.96,0,0,0,.489.813,5.522,5.522,0,0,0,1.439.615,6.217,6.217,0,0,1,2.55,1.306,2.6,2.6,0,0,1,.8,1.941A2.4,2.4,0,0,1,111.521-.6a4.279,4.279,0,0,1-2.632.735,5.082,5.082,0,0,1-2.092-.42,3.31,3.31,0,0,1-1.439-1.152,2.95,2.95,0,0,1-.5-1.7h2.058q0,1.647,1.969,1.647a1.915,1.915,0,0,0,1.142-.3A.967.967,0,0,0,110.441-2.611Z" transform="translate(6.918 35.271)" fill="#1d272b"/>
      <rect id="Rectángulo_34968" data-name="Rectángulo 34968" width="2.926" height="42.471" transform="translate(0 -3)" fill="#d93328"/>
    </g>
  </g>
</svg>
