<svg xmlns="http://www.w3.org/2000/svg" width="106.75" height="97.841" viewBox="0 0 106.75 97.841">
  <g id="imgN1" transform="translate(-2043.331 -533.733)">
    <g id="Grupo_131667" data-name="Grupo 131667" transform="translate(2043.331 533.734)">
      <path id="Trazado_168451" data-name="Trazado 168451" d="M2070.959,691.985c.831-2.746,1.621-5.315,2.386-7.891,1.375-4.628,2.75-9.257,4.074-13.9a1.68,1.68,0,0,0-.287-1.289c-6.267-8.095-3.959-19.3,4.938-23.856a15.521,15.521,0,0,1,19.072,23.639,1.676,1.676,0,0,0-.349,1.781c2.079,6.848,4.116,13.708,6.167,20.564.075.25.161.5.309.949.212-.55.342-.936.507-1.306a1.709,1.709,0,1,1,3.187,1.234c-.7,2.016-1.452,4.016-2.166,6.028a1.741,1.741,0,0,1-3.4-.13q-2.371-7.932-4.744-15.862c-1.136-3.807-2.258-7.617-3.4-11.423a2.026,2.026,0,0,0-2.385-1.42,1.865,1.865,0,0,0-1.524,2.348c1.543,8.334,3.111,16.663,4.635,25a12.516,12.516,0,0,0,2.162,5.85,9.514,9.514,0,0,0,8.6,3.9,6.326,6.326,0,0,0,5.858-5.94c.121-4.1.394-8.232-.514-12.3a25.054,25.054,0,0,0-8.5-14.3,2.061,2.061,0,0,1-1.011-2.089,1.665,1.665,0,0,1,2.626-1.023,39.017,39.017,0,0,1,4.87,4.983,28.467,28.467,0,0,1,6,17.8c0,2.008-.033,4.018.009,6.025a10.02,10.02,0,0,1-2,6.369c-.092.124-.156.267-.327.562h1.18c3.754,0,7.507-.027,11.26.009a6.61,6.61,0,0,1,4.84,11.16,6.836,6.836,0,0,1-5.347,2.078q-24.6-.019-49.191-.008-14.026,0-28.053,0c-3.676,0-6.29-2.05-6.985-5.431a6.5,6.5,0,0,1,5.769-7.716c3.911-.175,7.834-.072,11.751-.089.386,0,.771,0,1,0-.584-1.591-1.156-3.133-1.715-4.68a1.626,1.626,0,0,1-.095-.582c.112-4.107-.01-8.239.411-12.314a24.5,24.5,0,0,1,5.638-12.94,56.993,56.993,0,0,1,4.5-4.673,3.529,3.529,0,0,1,1.52-.845,1.576,1.576,0,0,1,1.792.932,1.449,1.449,0,0,1-.307,1.887c-.754.686-1.576,1.3-2.3,2.01a25.048,25.048,0,0,0-7.863,18.047c-.041,2.041-.011,4.083-.007,6.124.01,4.81,3.8,7.848,8.527,6.837,4.257-.911,7.1-3.971,7.98-8.618q2.086-11.043,4.15-22.09c.23-1.225.456-2.451.665-3.68a2.049,2.049,0,0,0-1.479-2.59c-1.156-.291-2.027.3-2.448,1.688q-2.2,7.257-4.387,14.52-1.829,6.087-3.629,12.183c-.267.9-.635,1.705-1.723,1.747-1.118.043-1.6-.707-1.925-1.649-.625-1.8-1.288-3.587-1.929-5.382-.437-1.225-.1-2.173.888-2.552s1.869.14,2.341,1.351C2070.677,691.282,2070.783,691.543,2070.959,691.985Zm27.471-25.443a12.078,12.078,0,0,0-18.545-15.479c-4.356,5.132-3.247,12.229-.036,15.422a1.281,1.281,0,0,0,.184-.068,5.529,5.529,0,0,1,8.237,6.08c-1.51,7.872-3.029,15.743-4.445,23.632-.662,3.689-1.58,7.2-4.432,9.88-.029.027,0,.114,0,.213h19.669a13.391,13.391,0,0,1-4.111-7.322q-2.548-13.461-5.03-26.936a5.356,5.356,0,0,1,3.764-6.122A5.653,5.653,0,0,1,2098.43,666.542Zm-9.349,43.178h-38.518c-.3,0-.594-.012-.888.012a3.161,3.161,0,0,0-2.817,3.779c.348,1.682,1.564,2.56,3.562,2.56h77.333c.2,0,.4,0,.593,0a3.179,3.179,0,1,0-.35-6.345Q2108.538,709.715,2089.081,709.72Z" transform="translate(-2043.331 -621.696)" fill="#1d272b"/>
      <path id="Trazado_168452" data-name="Trazado 168452" d="M2388.606,575.266c-1.674-.108-3.346-.267-5.022-.315-3.736-.107-7.268,1.035-10.85,1.857-.544.125-1.092.242-1.627.4a1.659,1.659,0,0,1-1.937-.594,1.89,1.89,0,0,1-.062-2.044,24.778,24.778,0,0,0,1.56-4.005,9.147,9.147,0,0,0-.978-6.5c-6.517-12.439.9-27.231,14.835-29.917a21.291,21.291,0,0,1,25.23,17.077c1.749,10-4.719,20.173-14.833,23.089a62.956,62.956,0,0,1-6.276,1.165Zm-14.893-2.375c.157.039.224.078.28.066.448-.1.9-.2,1.341-.316a29.909,29.909,0,0,1,10.849-.986,19.843,19.843,0,0,0,7.24-.463,17.268,17.268,0,0,0,12.2-22.25c-2.926-8.393-11.925-13.256-20.974-11.334-11.061,2.349-17.073,14.253-12.179,24.249A15.07,15.07,0,0,1,2373.713,572.89Z" transform="translate(-2303.29 -533.734)" fill="#1d272b"/>
      <path id="Trazado_168453" data-name="Trazado 168453" d="M2427.873,590.237V580.31c-1.378,0-2.715.019-4.051-.006a1.735,1.735,0,1,1-.085-3.458c1.344-.038,2.688-.008,4.182-.008,0-1.2,0-2.335,0-3.472,0-.428-.014-.856.01-1.283a1.725,1.725,0,0,1,1.708-1.793,1.69,1.69,0,0,1,1.731,1.763c.044,1.183.015,2.368.017,3.553,0,.359,0,.719,0,1.231,1.351,0,2.661-.085,3.951.037a2.814,2.814,0,0,1,1.765.809c.878,1.052,0,2.535-1.485,2.617-.689.038-1.382.008-2.073.008h-2.1v9.929h5.946c.625,0,1.251-.024,1.875.009a1.692,1.692,0,0,1,1.653,1.732,1.662,1.662,0,0,1-1.62,1.653c-.295.023-.592.013-.888.013h-17.371c-.329,0-.659.008-.987-.014a1.691,1.691,0,0,1,.052-3.382c2.2-.026,4.408-.01,6.613-.011Z" transform="translate(-2344.286 -563.067)" fill="#1d272b"/>
    </g>
  </g>
</svg>
