<svg xmlns="http://www.w3.org/2000/svg" width="117.296" height="99.544" viewBox="0 0 117.296 99.544">
  <g id="imgN2" transform="translate(-1753.542 -800.975)">
    <g id="Grupo_131668" data-name="Grupo 131668" transform="translate(1753.542 783.885)">
      <path id="Trazado_168454" data-name="Trazado 168454" d="M1832.04,845.646c-8.167-7.48-9.813-15.866-4.578-22.67a12.337,12.337,0,0,1,16.6-3.049c7.326,4.613,8.51,12.807,3.234,23.422,4.732-.575,7.432,1.817,9.675,5.661,2.592,4.443,5.778,8.545,8.8,12.728a7.652,7.652,0,0,0,2.529,2.157q10.087,5.4,20.253,10.664c3.781,1.955,5.21,5.039,3.671,8.263-1.51,3.159-4.865,3.936-8.782,2.17-6.579-2.966-13.188-5.862-19.8-8.765-.814-.358-1.686-.585-2.969-1.022.984,6.524,1.7,12.658,2.881,18.7,1.127,5.755,2.776,11.407,4.111,17.124a7.863,7.863,0,0,1-.23,2.458c-.579-.655-1.513-1.23-1.682-1.978-1.913-8.432-3.71-16.891-5.534-25.343-.236-1.09-.442-2.186-.73-3.615l-25.541,3.545c.339,9.077.675,18.071,1.01,27.064l-1.245.264a10.138,10.138,0,0,1-.818-2.5c-.424-7.731-.528-15.489-1.224-23.194-.487-5.391-1.751-10.712-2.668-16.064l-1.2-.3c-.842,1.908-2.162,3.749-2.441,5.736-1.031,7.353-1.72,14.754-2.533,22.138-.574,5.213-5.549,7.984-9.178,4.851a7.69,7.69,0,0,1-2.3-5.313c.147-9.081.33-18.192,1.28-27.211.312-2.966,2.94-5.7,4.587-8.492a1.311,1.311,0,0,1,1.279-.135,1.7,1.7,0,0,1,.224,1.332,2.185,2.185,0,0,1-.637,1.041c-3.519,3.64-4.041,8.112-3.851,12.9.178,4.519.038,9.05.038,13.95l6.849.751c.66-5.188,1.431-10.058,1.844-14.959a11.067,11.067,0,0,1,3.005-7.2c1.925-2.006,3.548-4.3,5.4-6.379a10.24,10.24,0,0,1,2.168-1.451l.679.7a7.372,7.372,0,0,1-1.3,2.115c-2.525,2-2.359,4.471-1.693,7.22.866,3.576,1.531,7.2,2.336,11.059l25.513-3.571c-.394-3.771-.758-7.26-1.123-10.748,5.86,6.559,14.3,6.786,20.976,11.107l3.359-6.882c-4.148-2.241-8.035-4.556-12.107-6.478a20.033,20.033,0,0,1-8.393-7.426c-1.812-2.741-4.341-5-6.444-7.562a5.831,5.831,0,0,1-.708-2.3c-.77-3.237-2.975-5.019-6.293-4.605-5.32.663-10.638,1.427-15.9,2.457a8.208,8.208,0,0,0-3.97,2.586c-1.459,1.575-2.481,3.547-3.809,5.256-.357.46-1.144.587-1.734.866-.029-.63-.334-1.472-.042-1.856C1825.542,851.4,1826.953,846.747,1832.04,845.646Zm5.225-25.491c-6.062.05-10.7,5.341-10.6,12.093.1,6.887,5.363,12.49,11.642,12.4,5.889-.085,10.482-5.346,10.434-11.953C1848.693,825.752,1843.521,820.1,1837.265,820.155Zm43.85,61.3c2.612,1.017,4.748,3.57,7.689,1.856a4.325,4.325,0,0,0,1.69-3.55c-.51-3.339-3.778-3.456-6.195-4.745-.457.815-.834,1.417-1.141,2.053C1882.495,878.44,1881.867,879.832,1881.115,881.452ZM1814.1,894.058c-1.29,6.312-.445,8.874,2.582,9.151,2.564.235,4.229-1.7,4.03-5.985C1820.476,892.209,1816.2,895.994,1814.1,894.058Z" transform="translate(-1775.549 -796.854)" fill="#1d272b"/>
      <path id="Trazado_168456" data-name="Trazado 168456" d="M1899.952,811.477a59,59,0,0,0,6.778,3.781c2.071.825,4.405.964,6.572,1.586,1.045.3,1.927,1.139,2.965,1.507a10.746,10.746,0,0,0,3.4.7c6.892.074,6.892.043,6.894,6.787v1.239c0,4.117,0,4.117-4.288,4.727,0,3.829.051,7.724-.042,11.616a7.593,7.593,0,0,1-.9,2.34c-.417-.781-1.169-1.552-1.2-2.346-.126-3.8-.056-7.616-.056-12.531l-4.15,2.056a4.992,4.992,0,0,1-1.072.514,60.815,60.815,0,0,0-7.809,1.729c-2.352.854-4.462,2.371-7.1,3.829Zm13.8,19.462V819.57l-11.883-3.751V834.66Zm10.448-1.732v-7.925h-7.856v7.925Z" transform="translate(-1809.264 -794.386)" fill="#1d272b"/>
      <path id="Trazado_168457" data-name="Trazado 168457" d="M1789.318,884.238a32.791,32.791,0,0,1-4.32,2.137c-1.907.608-2.433,1.736-2.441,3.664-.031,7.987-.09,7.989-8.146,8-5.365,0-10.73.046-16.094-.015-3.459-.039-4.672-1.212-4.716-4.671q-.117-9.286-.005-18.574c.043-3.581,1.319-4.719,4.969-4.768,1.95-.025,3.9,0,5.852,0l.138,1.662a40.451,40.451,0,0,1-4.25.5c-4.588.075-4.591.035-4.592,4.623,0,5.366.066,10.733-.03,16.1-.04,2.268.818,3.124,3.09,3.09,6.292-.092,12.587-.079,18.88-.009,2.14.024,3.046-.869,2.925-2.956-.042-.72.032-1.446,0-2.166-.145-2.93-.5-5.958,4.176-6.655-5.488-1.3-4.248-5.2-4.133-8.468.094-2.67-.808-3.837-3.555-3.569-1.64.16-3.308.029-4.963.029l-.178-1.342a10.466,10.466,0,0,1,2.414-.8,28.41,28.41,0,0,1,4.637,0,3.534,3.534,0,0,1,3.562,3.554,5.279,5.279,0,0,1,.04,1.235c-.66,4.052.339,7.045,4.865,7.948C1787.94,882.882,1788.343,883.461,1789.318,884.238Z" transform="translate(-1753.542 -816.64)" fill="#1d272b"/>
      <path id="Trazado_168459" data-name="Trazado 168459" d="M1768.064,882.446l5.011,4.553,5.632-4.523.921,1.093-5.425,6.006a22.777,22.777,0,0,1,3.593,2.431c.649.632.794,1.779,1.165,2.7a8.315,8.315,0,0,1-2.475-1.165,38.387,38.387,0,0,1-3.113-4.045c-1.843,2.108-3,3.534-4.288,4.839-.333.338-1.052.3-1.595.429.04-.624-.17-1.516.162-1.823,1.351-1.252,2.869-2.324,4.235-3.391l-5.06-6.237Z" transform="translate(-1758.598 -821.396)" fill="#1d272b"/>
      <path id="Trazado_168462" data-name="Trazado 168462" d="M1870.388,962.475l1.075-12.137,1.165.041c.745,3.857,1.491,7.713,2.282,11.8Z" transform="translate(-1798.013 -847.236)" fill="#1d272b"/>
      <path id="Trazado_168465" data-name="Trazado 168465" d="M1888.748,833.94c-3.626.11-6.631.79-9.866-.56C1881.333,831.345,1886.9,831.5,1888.748,833.94Z" transform="translate(-1801.245 -802.187)" fill="#1d272b"/>
      <path id="Trazado_168466" data-name="Trazado 168466" d="M1881.589,819.966c2.4,1.207,4.81,2.394,7.18,3.657.208.112.3.794.172,1.082s-.735.644-.93.551c-2.459-1.186-5.258-1.867-7.145-3.949Z" transform="translate(-1802.001 -797.617)" fill="#1d272b"/>
      <path id="Trazado_168467" data-name="Trazado 168467" d="M1880.666,842.189l7.847-3.863c-.435,2.979-4.6,5.189-7.411,4.891Z" transform="translate(-1801.925 -804.605)" fill="#1d272b"/>
    </g>
  </g>
</svg>
