<svg xmlns="http://www.w3.org/2000/svg" width="107.038" height="95.557" viewBox="0 0 107.038 95.557">
  <g id="imgN6" transform="translate(-2256.78 -648.354)">
    <path id="Trazado_168437" data-name="Trazado 168437" d="M2311.806,677.386c-3.176-9.01-3.525-18.285,6.222-25.036a18.383,18.383,0,0,1,21.392.2c7.371,5.14,9.156,12.906,5.67,26.164,12.606,4.133,14.039,13.541,12.93,25.573-.822,8.923,1.668,18.144,2.6,27.242.337,3.27.447,6.563.661,9.848l-2.18.413-3.574-18.681c-5.648,20.516-5.648,20.513-26.778,20.413-5.246-.024-10.5-.12-15.739,0-5.53.123-10.268-1.155-10.889-7.524-.638-6.552,2.734-10.361,9.4-11.087a19.51,19.51,0,0,0,2.758-.674,4.731,4.731,0,0,0,.423-1.013c2.8-31.649-10.112-32.463-34.361-31.447-1.41.058-3.806,1.592-3.957,2.684-1.272,9.247-7.958,10.671-16.361,10.889v32.364l-3.083-.019q0-15.334,0-30.666c0-1.8.778-4.218-.1-5.3-6.111-7.534-.062-12,4.024-16.828,3.6-4.254,7.272-3.88,11.485-.178a17.355,17.355,0,0,0,8.575,3.613C2292.79,690.083,2303.585,687.973,2311.806,677.386Zm7,46.826h14.37c1.081-5.42,2.075-10.415,3.07-15.408l2.527.477-2.219,19.152c-8.8,0-16.933-.469-24.947.3-2.252.217-4.155,4.076-6.218,6.264,2.167,1.771,4.254,4.94,6.516,5.07a274.291,274.291,0,0,0,29.87.073c2.566-.132,6.841-2.553,7.2-4.494,2.48-13.622,5.042-27.345,5.754-41.131.5-9.679-8.224-13.359-17.583-10.267-5.036,1.665-11.913,2.307-16.379.146-7.877-3.81-12.029-.75-16.734,4.453C2316.122,697.041,2316.122,697.041,2318.806,724.213Zm24.956-56.031c.112-8.734-6.428-15.682-14.885-15.816a15.5,15.5,0,0,0-.676,30.986A15.261,15.261,0,0,0,2343.762,668.181Zm-68.052,26.991-8.958-9.945c-2.967,3.339-6.247,6.486-8.548,10.234-.329.536,4.2,5.79,6.276,5.661C2267.714,700.922,2270.777,697.976,2275.709,695.172Z" transform="translate(2.533 0.38)" fill="#1d272b"/>
    <path id="Trazado_168438" data-name="Trazado 168438" d="M2281.531,685.806c-10.611.09-18.484-7.537-18.676-18.1s8.307-19.443,18.535-19.355c9.9.085,18.8,8.723,19,18.462A18.639,18.639,0,0,1,2281.531,685.806Zm.241-3.237a15.7,15.7,0,0,0,15.234-15.679c-.12-8.277-7.349-15.011-15.979-14.88a15.284,15.284,0,1,0,.745,30.559Z" transform="translate(7.482)" fill="#1d272b"/>
  </g>
</svg>
