<svg xmlns="http://www.w3.org/2000/svg" width="110.245" height="110.121" viewBox="0 0 110.245 110.121">
  <g id="imgN4" transform="translate(-1095.56 -5483.456)">
    <g id="x9MjUF" transform="translate(-1646.46 9621.874)">
      <g id="Grupo_131452" data-name="Grupo 131452" transform="translate(2814.039 -4120.417)">
        <path id="Trazado_168257" data-name="Trazado 168257" d="M3314.481-4057.777l.625-1.085c.542.347,1.072.665,1.579,1.016a16.82,16.82,0,0,1,3.291,2.994,17.079,17.079,0,0,1,4.014,9.106,17.1,17.1,0,0,1-2.3,11.069,23.2,23.2,0,0,1-1.335,1.9c-.132.178-.125.27.049.4.2.148.385.325.617.523l-4.026,1.987,1.551-4.2.763.673a15.929,15.929,0,0,0,3.254-13.317A16.039,16.039,0,0,0,3314.481-4057.777Z" transform="translate(-3288.199 4062.095)" fill="#1d272b"/>
        <path id="Trazado_168258" data-name="Trazado 168258" d="M3139.909-3912.028c0,.9,0,1.8,0,2.7a.333.333,0,0,0,.165.319,1.424,1.424,0,0,1,.639,1.545.383.383,0,0,0,.134.388q2.268,2.26,4.533,4.523a.616.616,0,0,1,.189.687.681.681,0,0,1-.556.464.632.632,0,0,1-.579-.235q-2.24-2.25-4.486-4.495a.458.458,0,0,0-.45-.16,1.463,1.463,0,0,1-1.641-.927,1.474,1.474,0,0,1,.58-1.8.35.35,0,0,0,.168-.344q0-2.73,0-5.46a.644.644,0,0,1,.974-.609.673.673,0,0,1,.333.64Q3139.908-3913.406,3139.909-3912.028Z" transform="translate(-3120.75 3926.28)" fill="#1d272b"/>
        <path id="Trazado_168259" data-name="Trazado 168259" d="M3205.888-4116.712l1.148.2-.59,3.368-1.151-.2Z" transform="translate(-3184.747 4116.907)" fill="#1d272b"/>
        <path id="Trazado_168260" data-name="Trazado 168260" d="M3035.255-4102.328l1.1-.4,1.171,3.216-1.1.4Z" transform="translate(-3023.637 4103.658)" fill="#1d272b"/>
        <path id="Trazado_168261" data-name="Trazado 168261" d="M2834.831-3897.435l-.4,1.1-3.213-1.167.395-1.1Z" transform="translate(-2830.317 3910.254)" fill="#1d272b"/>
        <path id="Trazado_168262" data-name="Trazado 168262" d="M2834.778-3678.594l-3.215,1.17-.4-1.1,3.212-1.171Z" transform="translate(-2830.263 3702.838)" fill="#1d272b"/>
        <path id="Trazado_168263" data-name="Trazado 168263" d="M3207.029-3483.013l-1.149.2-.594-3.367,1.15-.2C3206.634-3485.255,3206.829-3484.152,3207.029-3483.013Z" transform="translate(-3184.739 3519.678)" fill="#1d272b"/>
        <path id="Trazado_168264" data-name="Trazado 168264" d="M3301.409-3524.208l1.712,2.965-1.012.583-1.712-2.96Z" transform="translate(-3274.854 3555.52)" fill="#1d272b"/>
        <path id="Trazado_168265" data-name="Trazado 168265" d="M3035.253-3498l1.17-3.215,1.1.4-1.169,3.215Z" transform="translate(-3023.635 3533.735)" fill="#1d272b"/>
        <path id="Trazado_168266" data-name="Trazado 168266" d="M2934.235-4042.211l-.893.751-2.2-2.619.894-.754Z" transform="translate(-2924.99 4048.802)" fill="#1d272b"/>
        <path id="Trazado_168267" data-name="Trazado 168267" d="M2933.336-3554.517l.894.75-2.2,2.623-.9-.752Z" transform="translate(-2924.986 3584.237)" fill="#1d272b"/>
        <path id="Trazado_168268" data-name="Trazado 168268" d="M2980.37-4077.931l1.01-.587,1.713,2.962-1.01.588Z" transform="translate(-2971.635 4080.719)" fill="#1d272b"/>
        <path id="Trazado_168269" data-name="Trazado 168269" d="M2889.858-3588.213l-.746-.9,2.616-2.2.754.894Z" transform="translate(-2885.169 3619.097)" fill="#1d272b"/>
        <path id="Trazado_168270" data-name="Trazado 168270" d="M2981.4-3520.655l-1.01-.587,1.71-2.964,1.011.586Z" transform="translate(-2971.656 3555.518)" fill="#1d272b"/>
        <path id="Trazado_168271" data-name="Trazado 168271" d="M2891.341-4002.711l2.62,2.2-.749.9-1.137-.95c-.422-.354-.839-.713-1.267-1.06-.152-.123-.183-.237-.054-.389C2890.946-4002.242,2891.136-4002.468,2891.341-4002.711Z" transform="translate(-2886.649 4008.893)" fill="#1d272b"/>
        <path id="Trazado_168272" data-name="Trazado 168272" d="M2820.723-3839.129l-.208,1.15-3.366-.594.2-1.149Z" transform="translate(-2816.986 3854.464)" fill="#1d272b"/>
        <path id="Trazado_168273" data-name="Trazado 168273" d="M2820.464-3728.609c.07.392.135.751.206,1.149l-3.367.6c-.07-.382-.136-.747-.209-1.148Z" transform="translate(-2816.933 3749.186)" fill="#1d272b"/>
        <path id="Trazado_168274" data-name="Trazado 168274" d="M3095.837-4112.968l-1.114.194c-.2-1.127-.393-2.226-.594-3.362.357-.065.7-.133,1.053-.185.036-.005.115.077.124.128.187,1.041.367,2.082.547,3.124A.414.414,0,0,1,3095.837-4112.968Z" transform="translate(-3079.419 4116.537)" fill="#1d272b"/>
        <path id="Trazado_168275" data-name="Trazado 168275" d="M3255.347-4102.751l1.1.4c-.392,1.077-.776,2.131-1.171,3.212l-1.1-.4Z" transform="translate(-3231.061 4103.679)" fill="#1d272b"/>
        <path id="Trazado_168276" data-name="Trazado 168276" d="M3256.441-3498.016l-1.1.4-1.171-3.214,1.1-.4Z" transform="translate(-3231.057 3533.75)" fill="#1d272b"/>
        <path id="Trazado_168277" data-name="Trazado 168277" d="M3094.736-3486.38l1.149.2c-.085.491-.167.961-.249,1.431-.1.568-.206,1.135-.295,1.705-.031.2-.1.244-.294.2-.287-.07-.582-.108-.9-.165C3094.341-3484.133,3094.535-3485.238,3094.736-3486.38Z" transform="translate(-3079.433 3519.678)" fill="#1d272b"/>
        <path id="Trazado_168278" data-name="Trazado 168278" d="M3155.068-4116.98v-.446c0-.9.009-1.8-.006-2.7,0-.238.071-.306.3-.289a5.763,5.763,0,0,0,.681,0c.151-.006.2.059.2.2,0,1.014,0,2.027-.007,3.041,0,.063-.075.18-.119.181C3155.774-4116.973,3155.436-4116.98,3155.068-4116.98Z" transform="translate(-3137.152 4120.417)" fill="#1d272b"/>
        <path id="Trazado_168279" data-name="Trazado 168279" d="M2858.339-3633.451l.589,1.013-2.97,1.7-.581-1.006Z" transform="translate(-2853.206 3659.025)" fill="#1d272b"/>
        <path id="Trazado_168280" data-name="Trazado 168280" d="M3156.311-3478.505c0,.489-.005.979,0,1.468,0,.169-.054.234-.226.226-.253-.011-.507-.007-.76,0-.132,0-.187-.045-.186-.183q.005-1.533,0-3.066c0-.136.05-.187.184-.184.245.005.49.011.734,0,.192-.011.262.05.257.25C3156.3-3479.5,3156.311-3479,3156.311-3478.505Z" transform="translate(-3137.227 3513.87)" fill="#1d272b"/>
        <path id="Trazado_168281" data-name="Trazado 168281" d="M2858.938-3951.672l-.587,1.012-2.962-1.709.584-1.007Z" transform="translate(-2853.217 3962.149)" fill="#1d272b"/>
        <path id="Trazado_168282" data-name="Trazado 168282" d="M2814.039-3777.146v-1.12h3.388v1.12Z" transform="translate(-2814.039 3796.236)" fill="#1d272b"/>
      </g>
    </g>
    <g id="Grupo_131453" data-name="Grupo 131453" transform="translate(-1071.06 9339.824)">
      <path id="Trazado_168283" data-name="Trazado 168283" d="M2267.676-3756.05c1.2.1,2.081.211,2.961.246,4.068.157,6.2,1.81,6.227,4.847.023,2.994-2.171,4.7-6.187,4.7q-41.978.015-83.958,0c-4.684,0-9.367.018-14.051-.006-3.982-.019-5.922-1.47-6.043-4.446-.126-3.122,1.923-4.892,5.915-5.107.563-.031,1.128-.057,2.351-.118-.289-2.142-.558-4.178-.841-6.211-.077-.551-.25-1.092-.291-1.645-.5-6.524-.491-6.525,6.918-7.557,0-2.643-.129-5.362.072-8.058.067-.893.984-1.723,1.513-2.582.553.824,1.517,1.616,1.582,2.477.207,2.7.077,5.429.077,8.536h9.537v-20.491h-9.566a20.485,20.485,0,0,1-.069,3.812c-.116.588-.955,1.431-1.472,1.435a2.25,2.25,0,0,1-1.579-1.365c-1.545-4.839.1-7.1,5.015-7.086,2.285.007,4.583.165,6.851-.033,3.219-.282,4.488.769,4.344,4.212-.266,6.361-.076,12.74-.076,19.313h8.177v-10.24c-6.139-1.617-6.137-1.617-6.138-8.265q0-11.822-.006-23.645c0-7.426,2.2-9.731,9.659-10.158a5.145,5.145,0,0,0,.951-.233c-1.692-6.145-.62-9.8,3.426-11.825,3.939-1.971,7.8-.634,11.373,4.264v-8.819c-4.85,2.02-9.595-.051-14.147.268-4.147.291-8.249.049-12.364.168-.871.025-2.249-.45-2.511-1.069-.276-.649.29-1.93.864-2.625,9.94-12.026,31.613-16.7,45.779-9.837.789.383,1.193,1.561,1.776,2.369-1.072.093-2.277.555-3.195.223-14.63-5.286-28.674-2.789-40.113,7.474,5.835.5,11.494,1.862,16.91,1.207a68.876,68.876,0,0,1,17.524-.062c5.5.713,11.273-.668,17.5-1.174-1.712-1.346-3.168-2.352-4.434-3.558-.459-.438-.464-1.353-.676-2.05.791-.127,1.889-.651,2.323-.316a55.735,55.735,0,0,1,7.475,6.449c1.313,1.457.68,3.146-1.709,3.081-4.013-.112-8.023-.353-12.034-.542a4.153,4.153,0,0,0-1.36-.059,20.94,20.94,0,0,1-13.98.027v16.708c5.047,1.552,6.506,5.337,6.265,10.3-.187,3.875-.039,7.766-.036,11.649,0,5.983-.1,6.105-6.16,6.651v6.433l4.548,4.349c2.691.571,5.359.383,6.613,1.624,1.173,1.161.844,3.837,1.215,6.088l4.779,5.348a15.067,15.067,0,0,1,3.376.07c.817.163,1.5,1.01,2.24,1.549a11.351,11.351,0,0,1-2.322,1.559,7.223,7.223,0,0,1-2.38.061h-68.837c-.69,2.334-.337,3.426,2.176,3.421q42.151-.068,84.3,0c2.276,0,3.244-.7,2.375-3.424-2.808,0-5.758.145-8.681-.083-.955-.074-1.835-1.115-2.749-1.712.893-.482,1.768-1.33,2.684-1.379,3.189-.172,6.394-.024,9.591-.086,1.85-.036,2.914.659,2.635,2.6-.365,2.533,1.105,5.32-1.571,7.618C2267.227-3760.075,2267.767-3757.8,2267.676-3756.05Zm-2.913-5.145h-86.739v5.085h86.739Zm-42.839,8.62c-16.322,0-32.645-.029-48.965.066-1.106.005-2.207.954-3.31,1.464,1.128.641,2.254,1.84,3.383,1.843q48.623.15,97.247,0c1.163,0,2.323-1.139,3.484-1.749-1.186-.544-2.368-1.555-3.558-1.562C2254.112-3752.614,2238.018-3752.58,2221.924-3752.575Zm-1.543-45.47c-.581-3.254.566-5.219,3.247-6.374a2.055,2.055,0,0,0,.98-1.539c.076-4.741.044-9.482.044-14.2h-15.9v22.111Zm-15.105-21.444-1.381-.473a39.236,39.236,0,0,0-2.011,4.923,14.881,14.881,0,0,0-.067,3.75c0,7.875-.062,15.752.08,23.625.017.95,1.141,1.88,1.752,2.819.542-.737,1.55-1.47,1.557-2.213C2205.308-3797.867,2205.276-3808.678,2205.276-3819.489Zm11.345-13.924a5.285,5.285,0,0,0-5.059,4.994,5.091,5.091,0,0,0,4.77,4.84,5.143,5.143,0,0,0,5.246-4.717A5.325,5.325,0,0,0,2216.622-3833.413Zm-7.912,45.374v16.795c2.329.745,3.172.008,3.12-2.192q-.152-6.322-.025-12.651C2211.851-3788.531,2210.657-3788.681,2208.709-3788.04Zm15.781-6.98c-4.732,0-9.05.107-13.359-.04-2.693-.092-3.061,1.061-2.348,3.294h15.707Zm6.326-9.694c1.8-7.818.7-13.563-2.82-14.734v14.742C2229.054-3804.706,2229.935-3804.706,2230.817-3804.713Zm-15.9,29.678c1.01-1.058,1.783-1.594,1.7-1.825-.909-2.552-.862-4.653,1.3-6.8.8-.794.268-2.932.356-4.715l-3.356.234Zm16.783-25.417-.809-.812a44.27,44.27,0,0,0-6.012.106c-.556.077-.937,1.433-1.4,2.2a43.008,43.008,0,0,0,6.412.9C2230.493-3798.056,2231.1-3799.611,2231.7-3800.452Zm-3.51,23.271c2.254-2.687,2.363-4.821-.042-7.129C2225.781-3781.9,2225.947-3779.761,2228.192-3777.181Zm-3.249,4.789.55,1.117h5.408l.511-.949c-1-.745-2.017-2.091-3.01-2.077C2227.24-3774.284,2226.1-3773.081,2224.943-3772.392Zm-5.974-7.921c1.106,3.867,2.128,4.655,5.193,4.2C2223.337-3779.677,2222.381-3780.49,2218.969-3780.313Zm13.085,4.188c3.384.463,4.739-.694,5.135-4.579C2234.1-3780.557,2232.592-3778.989,2232.053-3776.125Zm-10.743-12.022c.586,1.912-1.4,4.619,2.213,5.04C2225.545-3787.484,2225.272-3788.26,2221.311-3788.147Zm1.313,17.01c-3.024-2.789-5.131-2.692-7.009,0Zm18.583.006c-3.019-2.8-5.166-2.687-7.027,0Z" transform="translate(0 0)" fill="#1d272b"/>
    </g>
  </g>
</svg>
