<svg xmlns="http://www.w3.org/2000/svg" width="100.598" height="93.555" viewBox="0 0 100.598 93.555">
  <g id="imgN7" transform="translate(-2381.452 -890.96)">
    <path id="Trazado_168439" data-name="Trazado 168439" d="M2448.486,967.279c-19.02,0-37.541.011-56.061-.015-2.225,0-4.917.535-6.547-.5a8.713,8.713,0,0,1-3.666-5.828c-.6-8.55-.892-17.15-.7-25.717.131-6,1.292-11.965,1.857-17.958a31.018,31.018,0,0,0-.017-6.7c-.728-5.866,1.651-7.947,7.557-7.732,10.494.379,21.027.459,31.513.007,6.354-.274,9.273,1.625,8.421,8.226a31.078,31.078,0,0,0,.306,5.525c5.58.169,9.891,1.56,14.756-4.151,6.911-8.115,17.571-6.125,26.973-3.753,7.656,1.933,9.177,8.319,9.079,15.3-.063,4.47.375,9-.24,13.391-.386,2.762-2.358,5.287-3.515,7.962-.814,1.881-2,3.815-2.073,5.76-.258,6.7.015,13.414-.134,20.119-.179,8.018-4.236,10.822-11.668,8.394a6.547,6.547,0,0,0-3.558-.274c-8.625,2.422-11.089.724-11.874-8.388C2448.82,970.074,2448.7,969.21,2448.486,967.279Zm13.829,6.132,6.91,4.39c1.343-2.724,3.533-5.353,3.85-8.191.615-5.516.077-11.149.214-16.729.1-4.121-1.739-9.073,4.472-10.936.774-.232,1.189-2.72,1.221-4.174.126-5.58.1-11.165-.008-16.747-.1-5.352-2.684-8.965-8.081-9.923a57.415,57.415,0,0,0-11.226-1.1c-5.13.117-11.808.247-12.753,6.191-1.327,8.346-.375,17.053-.375,25.606,0,.158.271.419.454.461,5.9,1.324,4.722,5.983,4.735,10.06.019,5.581-.367,11.2.146,16.732.276,2.955,2.076,5.77,3.188,8.648Zm-70.489-24.989c3.491-1.6,6.66-3.909,10.063-4.331,2.6-.324,5.485,2.527,8.279,2.6,11.934.321,23.882.137,35.729.137-1.617-3.822-2.947-6.966-4.356-10.3h-55.594V963.89c1.095.094,3.024.4,4.953.4,15.437.009,30.873-.05,46.309-.066,12.427-.013,12.436,0,11.429-12.344-.049-.583-.564-1.127-1.229-2.384-13.917,2.419-28.487-3.138-42.424,3.139a4.769,4.769,0,0,1-3.262-.124C2398.527,951.328,2395.411,949.925,2391.826,948.422Zm23.661-18.614c-.138-5.067.806-5.733,12.045-7.3V906.223h-40.948V932.7h41.042v-8.21Zm26.762-9.24H2431.2v12.125h11.052Z" transform="translate(0 4.067)" fill="#1d272b"/>
    <path id="Trazado_168440" data-name="Trazado 168440" d="M2450.147,908.859c.9-5.955,1.1-11.731-5.265-14.088-2.581-.958-7.983-.274-8.878,1.393-2.078,3.871-2.193,8.8-3.218,13.86-2.6-1.774-3.235-5.284-2.713-9.161.747-5.545,4.308-8.743,9.569-9.677,5.693-1.012,10.16,1.412,12.479,6.665C2453.788,901.626,2453.582,905.54,2450.147,908.859Z" transform="translate(16.633 0)" fill="#1d272b"/>
    <path id="Trazado_168445" data-name="Trazado 168445" d="M2408.282,925.357c-10.644-9.939-10.949-7.5-19.18-.075.02-5.178,3.661-8.872,9.02-9.152C2403.649,915.843,2407.734,919.551,2408.282,925.357Z" transform="translate(2.625 8.635)" fill="#1d272b"/>
  </g>
</svg>
