<svg xmlns="http://www.w3.org/2000/svg" width="79.479" height="93.788" viewBox="0 0 79.479 93.788">
  <g id="imgN5" transform="translate(-2632.953 -402.343)">
    <path id="Trazado_168446" data-name="Trazado 168446" d="M2660.843,425.293c-3.977-3.822-7.211-5.939-9.024-8.919-2.358-3.876-.624-6.627,4.036-7.64,7.135-1.551,14.3-3.1,21.269-5.243,14.212-4.358,30.292,4.1,34.4,18.53,2.211,7.76.356,14.573-5.245,20.344-2.49,2.566-5.119,5-7.61,7.562-.908.934-2.516,2.508-2.255,3.065,4.82,10.308-4.951,13.4-9.292,19.134a26.832,26.832,0,0,1-1.95,2.137c2.978,2.654,6.412,4.732,8.417,7.756,2.419,3.65,1.277,6.566-3.75,7.574a202.23,202.23,0,0,0-21.3,5.311c-15.2,4.818-32.446-5.066-35.249-20.709-1.227-6.855,1.007-12.789,5.878-17.726,2.512-2.544,5.133-4.986,7.561-7.607,1.015-1.1,2.668-3.067,2.316-3.733-4.4-8.32,2.885-11.564,6.867-16.12C2657.342,427.364,2659.456,426.31,2660.843,425.293Zm15.934,43.862-2.7-2.528c1.361-1.532,2.665-3.123,4.1-4.587,3.75-3.834,7.789-7.417,11.2-11.528,1.053-1.269.453-3.909.61-5.923-1.994.142-4.546-.442-5.874.573-3.342,2.557-6.095,5.877-9.156,8.813-2.715,2.6-5.527,5.105-8.3,7.652l-1.435-1.508c4.548-4.683,9.321-9.177,13.512-14.162,1.342-1.6,1.145-4.49,1.652-6.791-2.312.394-5.232.039-6.815,1.328-4.138,3.365-7.641,7.5-11.506,11.218a41.107,41.107,0,0,1-4.485,3.314l-1.735-2.106c3.281-2.91,6.915-5.523,9.7-8.85,1.443-1.726,1.38-4.712,2-7.128-2.228.632-5.025.622-6.58,2.008-5.5,4.9-10.688,10.165-15.767,15.507-2.895,3.044-5.982,6.181-7.865,9.849-3.451,6.725-1.309,13.155,3.19,18.68,5.734,7.038,12.592,12.6,22.432,10.3,9.622-2.243,19.056-5.292,28.69-8.022-.848-8.136-8.06-5.966-13.873-8.335,4.658-5.408,10.014-9.749,14.848-14.608,1.277-1.283.942-4.17,1.348-6.32-2.3.355-5.347-.094-6.756,1.218C2683.36,460.8,2680.206,465.127,2676.778,469.155ZM2650.4,441.3l1.871,1.56c1.884-1.707,3.846-3.334,5.636-5.135,3.849-3.873,7.6-7.44,12.884-1.849.546.578,2.329-.2,3.439.063,3.143.749,6.272,1.607,9.329,2.648,1.126.383,2.056,2.045,3.044,2.017,5.917-.171,7.311,3.725,7.722,10.314,3.575-3.927,6.04-6.729,8.608-9.436,7.022-7.406,8.522-14.122,4.775-21.724-4.5-9.136-15.394-16.554-23.491-14.818-10.087,2.165-19.948,5.386-30.263,8.25.84,8.233,7.916,5.923,13.57,6.725C2663.169,428.6,2652.716,432.132,2650.4,441.3Z" transform="translate(0 0)" fill="#1d272b"/>
    <path id="Trazado_168447" data-name="Trazado 168447" d="M2677.6,433c-2.867-1.676-7.394-2.786-7.99-4.968-1.537-5.638-2.942-12.5,2.559-16.717,2-1.529,7.921-.93,9.847.954,9.632,9.419,11.008,13.512,6.656,16.749C2685.885,431.094,2681.893,431.54,2677.6,433Zm-7.057-5.851,2.638,2.721c4.825-1.269,11.836-1.011,14.013-4.127,4.383-6.275-7.582-5.639-7.314-11.6.016-.372-4.926-1.439-4.983-1.274C2673.238,417.563,2671.916,422.366,2670.539,427.152Z" transform="translate(12.131 2.788)" fill="#1d272b"/>
  </g>
</svg>
